{
.appVersion = "1075";
copyright = "Copyright 2011 The Aubrey Project Authors (https://github.com/cyrealtype/Aubrey)";
customParameters = (
{
name = licenseURL;
value = "http://scripts.sil.org/OFL";
},
{
name = license;
value = "This Font Software is licensed under the SIL Open Font License, Version 1.1. This license is available with a FAQ at: http://scripts.sil.org/OFL";
},
{
name = fsType;
value = (
);
},
{
name = "Use Typo Metrics";
value = 1;
},
{
name = "Disable Last Change";
value = 1;
},
{
name = "Use Line Breaks";
value = 1;
}
);
date = "2017-11-21 08:09:02 +0000";
designer = "Gayaneh Bagdasaryan";
disablesAutomaticAlignment = 1;
familyName = Aubrey;
featurePrefixes = (
{
code = "@_KERN_quotesingle = [quotesingle quotedbl];
@_KERN_hyphen = [hyphen endash emdash uni00AD];
@_KERN_period = [period comma quotesinglbase quotedblbase];
@_KERN_N = [N Ntilde];
@_KERN_U = [U Ugrave Uacute Ucircumflex Udieresis];
@_KERN_Y = [Y Yacute];
@_KERN_i = [i j dotlessi igrave iacute icircumflex idieresis];
@_KERN_u = [u ugrave uacute ucircumflex udieresis];
@_KERN_y = [y yacute ydieresis];
@_KERN_quoteleft = [quoteleft quotedblleft];
@_KERN_quoteright = [quoteright quotedblright];
@_KERN_A_1ST = [A Agrave Aacute Acircumflex Atilde Adieresis Aring];
@_KERN_C_1ST = [C Ccedilla];
@_KERN_D_1ST = [D Eth];
@_KERN_E_1ST = [E OE AE Egrave Eacute Ecircumflex Edieresis];
@_KERN_I_1ST = [I Igrave Iacute Icircumflex Idieresis];
@_KERN_O_1ST = [O Ograve Oacute Ocircumflex Otilde Odieresis Oslash];
@_KERN_a_1ST = [a agrave aacute acircumflex atilde adieresis aring];
@_KERN_c_1ST = [c ccedilla];
@_KERN_e_1ST = [e oe ae egrave eacute ecircumflex edieresis];
@_KERN_n_1ST = [n h ntilde];
@_KERN_o_1ST = [o ograve oacute ocircumflex otilde odieresis oslash];
@_KERN_p_1ST = [p thorn];
@_KERN_guilsinglright_1ST = [guilsinglright guillemotright];
@_KERN_A_2ND = [A Agrave Aacute Acircumflex Atilde Adieresis Aring AE];
@_KERN_C_2ND = [C G Ccedilla];

glyphs = (
{
glyphname = A;
layers = (
{
hints = (
{
place = "{154, 144}";
},
{
horizontal = 1;
place = "{354, 135}";
},
{
horizontal = 1;
place = "{-18, 43}";
},
{
horizontal = 1;
place = "{1280, -20}";
target = down;
type = TopGhost;
},
{
horizontal = 1;
place = "{0, 43}";
},
{
horizontal = 1;
place = "{1262, -20}";
target = down;
type = TopGhost;
}
);
layerId = UUID0;
paths = (
{
closed = 1;
nodes = (
"611 662 LINE",
"699 -20 LINE",
"840 -2 LINE",
"679 1257 LINE",
"586 1280 OFFCURVE",
"498 1282 OFFCURVE",
"457 1282 CURVE SMOOTH",
"417 1282 OFFCURVE",
"330 1280 OFFCURVE",
"238 1257 CURVE",
"74 -2 LINE",
"216 -20 LINE",
"304 662 LINE"
);
},
{
closed = 1;
nodes = (
"490 1151 OFFCURVE",
"523 1147 OFFCURVE",
"550 1141 CURVE",
"591 793 LINE",
"320 793 LINE",
"365 1141 LINE",
"392 1147 OFFCURVE",
"425 1151 OFFCURVE",
"457 1151 CURVE SMOOTH"
);
}
);
width = 915;
}
);
leftKerningGroup = A;
rightKerningGroup = A;
unicode = 0041;
},
{
glyphname = AE;
layers = (
{
hints = (
{
place = "{154, 144}";
},
{
place = "{1017, 143}";
},
{
place = "{2458, -143}";
},
{
place = "{1844, -143}";
},
{
horizontal = 1;
place = "{354, 135}";
},
{
horizontal = 1;
place = "{-18, 43}";
},
{
horizontal = 1;
place = "{1280, -20}";
target = down;
type = TopGhost;
},
{
horizontal = 1;
place = "{0, 43}";
},
{
horizontal = 1;
place = "{1262, -20}";
target = down;
type = TopGhost;
},
{
horizontal = 1;
place = "{659, 136}";
},
{
horizontal = 1;
place = "{1126, 136}";
},
{
horizontal = 1;
place = "{-39, 43}";
},
{
horizontal = 1;
place = "{-18, 135}";
},
{
horizontal = 1;
place = "{1145, 135}";
}
);
layerId = UUID0;
paths = (
{
closed = 1;
nodes = (
"1070 1262 LINE",
"662 1262 LINE",
"576 1280 OFFCURVE",
"496 1282 OFFCURVE",
"457 1282 CURVE SMOOTH",
"417 1282 OFFCURVE",
"330 1280 OFFCURVE",
"238 1257 CURVE",
"74 -2 LINE",
"216 -20 LINE",
"304 662 LINE",
"550 662 LINE",
"550 0 LINE",
"1070 0 LINE",
"1070 131 LINE",
"693 131 LINE",
"693 662 LINE",
"939 662 LINE",
"939 793 LINE",
"693 793 LINE",
"693 1130 LINE",
"1070 1130 LINE"
);
},
{
closed = 1;
nodes = (
"490 1151 OFFCURVE",
"523 1147 OFFCURVE",
"550 1141 CURVE",
"550 793 LINE",
"320 793 LINE",
"365 1141 LINE",
"392 1147 OFFCURVE",
"425 1151 OFFCURVE",
"457 1151 CURVE SMOOTH"
);
}
);
width = 1151;
}
);
leftKerningGroup = A;
rightKerningGroup = E;
unicode = 00C6;
},
{
glyphname = B;
layers = (
{
hints = (
{
place = "{145, 144}";
},
{
place = "{547, 143}";
},
{
place = "{707, 147}";
},
{
place = "{991, 144}";
},
{
place = "{1606, 143}";
},
{
horizontal = 1;
place = "{-16, 135}";
},
{
horizontal = 1;
place = "{614, 136}";
},
{
horizontal = 1;
place = "{1145, 135}";
},
{
horizontal = 1;
place = "{-18, 135}";
},
{
horizontal = 1;
place = "{1145, 135}";
}
);
layerId = UUID0;
paths = (
{
closed = 1;
nodes = (
"690 944 LINE SMOOTH",
"690 1135 OFFCURVE",
"596 1282 OFFCURVE",
"383 1282 CURVE SMOOTH",
"291 1282 OFFCURVE",
"191 1255 OFFCURVE",
"100 1208 CURVE",
"145 1100 LINE",
"145 74 LINE",
"221 12 OFFCURVE",
"344 -20 OFFCURVE",
"459 -20 CURVE SMOOTH",
"721 -20 OFFCURVE",
"850 137 OFFCURVE",
"854 381 CURVE SMOOTH",
"856 555 OFFCURVE",
"784 662 OFFCURVE",
"690 723 CURVE"
);
},
{
closed = 1;
nodes = (
"289 662 LINE",
"440 662 LINE SMOOTH",
"612 662 OFFCURVE",
"707 551 OFFCURVE",
"707 383 CURVE SMOOTH",
"707 217 OFFCURVE",
"627 111 OFFCURVE",
"471 111 CURVE SMOOTH",
"401 111 OFFCURVE",
"336 125 OFFCURVE",
"289 160 CURVE"
);
},
{
closed = 1;
nodes = (
"289 793 LINE",
"289 1135 LINE",
"313 1145 OFFCURVE",
"348 1151 OFFCURVE",
"385 1151 CURVE SMOOTH",
"506 1151 OFFCURVE",
"547 1051 OFFCURVE",
"547 942 CURVE SMOOTH",
"547 782 LINE",
"512 788 OFFCURVE",
"475 793 OFFCURVE",
"442 793 CURVE"
);
}
);
width = 926;
}
);
unicode = 0042;
},
{
glyphname = C;
layers = (
{
hints = (
{
place = "{137, 143}";
},
{
horizontal = 1;
place = "{-18, 137}";
},
{
horizontal = 1;
place = "{1145, 135}";
}
);
layerId = UUID0;
paths = (
{
closed = 1;
nodes = (
"774 1223 LINE",
"698 1264 OFFCURVE",
"627 1282 OFFCURVE",
"528 1282 CURVE SMOOTH",
"217 1282 OFFCURVE",
"137 1059 OFFCURVE",
"137 788 CURVE SMOOTH",
"137 240 LINE",
"63 145 LINE",
"225 0 OFFCURVE",
"418 -20 OFFCURVE",
"516 -20 CURVE SMOOTH",
"639 -20 OFFCURVE",
"741 6 OFFCURVE",
"811 43 CURVE",
"752 172 LINE",
"672 125 OFFCURVE",
"616 111 OFFCURVE",
"524 111 CURVE SMOOTH",
"428 111 OFFCURVE",
"356 127 OFFCURVE",
"280 174 CURVE",
"280 793 LINE SMOOTH",
"280 987 OFFCURVE",
"315 1151 OFFCURVE",
"532 1151 CURVE SMOOTH",
"586 1151 OFFCURVE",
"653 1137 OFFCURVE",
"723 1102 CURVE"
);
}
);
width = 853;
}
);
leftKerningGroup = C;
rightKerningGroup = C;
unicode = 0043;
},
{
glyphname = Ccedilla;
layers = (
{
hints = (
{
place = "{136, 143}";
},
{
place = "{1400, 170}";
},
{
place = "{-671, 168}";
},
{
place = "{-155, 168}";
},
{
horizontal = 1;
place = "{-18, 137}";
},
{
horizontal = 1;
place = "{1145, 135}";
},
{
horizontal = 1;
place = "{-18, 145}";
},
{
horizontal = 1;
place = "{940, -20}";
target = down;
type = TopGhost;
},
{
horizontal = 1;
place = "{-33, 146}";
},
{
horizontal = 1;
place = "{782, 144}";
},
{
horizontal = 1;
place = "{795, 145}";
},
{
horizontal = 1;
place = "{-18, 63}";
}
);
layerId = UUID0;
paths = (
{
closed = 1;
nodes = (
"486 -158 LINE SMOOTH",
"540 -158 OFFCURVE",
"566 -172 OFFCURVE",
"566 -207 CURVE SMOOTH",
"566 -244 OFFCURVE",
"529 -254 OFFCURVE",
"490 -254 CURVE SMOOTH",
"427 -254 OFFCURVE",
"359 -233 OFFCURVE",
"292 -205 CURVE",
"292 -315 LINE",
"343 -338 OFFCURVE",
"413 -354 OFFCURVE",
"490 -354 CURVE SMOOTH",
"593 -354 OFFCURVE",
"691 -317 OFFCURVE",
"691 -207 CURVE SMOOTH",
"691 -109 OFFCURVE",
"624 -61 OFFCURVE",
"511 -61 CURVE SMOOTH",
"503 -61 LINE",
"503 -20 LINE",
"515 -20 LINE SMOOTH",
"638 -20 OFFCURVE",
"740 6 OFFCURVE",
"810 43 CURVE",
"751 172 LINE",
"671 125 OFFCURVE",
"615 111 OFFCURVE",
"523 111 CURVE SMOOTH",
"427 111 OFFCURVE",
"355 127 OFFCURVE",
"279 174 CURVE",
"279 793 LINE SMOOTH",
"279 987 OFFCURVE",
"314 1151 OFFCURVE",
"531 1151 CURVE SMOOTH",
"585 1151 OFFCURVE",
"652 1137 OFFCURVE",
"722 1102 CURVE",
"773 1223 LINE",
"697 1264 OFFCURVE",
"626 1282 OFFCURVE",
"527 1282 CURVE SMOOTH",
"216 1282 OFFCURVE",
"136 1059 OFFCURVE",
"136 788 CURVE SMOOTH",
"136 240 LINE",
"62 145 LINE",
"167 51 OFFCURVE",
"284 8 OFFCURVE",
"380 -8 CURVE",
"380 -158 LINE"
);
}
);
width = 850;
}
);
leftKerningGroup = C;
rightKerningGroup = C;
unicode = 00C7;
},
{
glyphname = D;
layers = (
{
hints = (
{
place = "{145, 143}";
},
{
place = "{741, 143}";
},
{
horizontal = 1;
place = "{0, 135}";
},
{
horizontal = 1;
place = "{1282, -20}";
target = down;
type = TopGhost;
}
);
layerId = UUID0;
paths = (
{
closed = 1;
nodes = (
"145 0 LINE",
"308 0 LINE SMOOTH",
"724 0 OFFCURVE",
"884 264 OFFCURVE",
"884 641 CURVE SMOOTH",
"884 991 OFFCURVE",
"730 1282 OFFCURVE",
"382 1282 CURVE SMOOTH",
"270 1282 OFFCURVE",
"171 1260 OFFCURVE",
"106 1229 CURVE",
"145 1116 LINE"
);
},
{
closed = 1;
nodes = (
"288 1141 LINE",
"313 1147 OFFCURVE",
"347 1151 OFFCURVE",
"384 1151 CURVE SMOOTH",
"597 1151 OFFCURVE",
"741 977 OFFCURVE",
"741 641 CURVE SMOOTH",
"741 346 OFFCURVE",
"636 131 OFFCURVE",
"329 131 CURVE SMOOTH",
"288 131 LINE"
);
}
);
width = 989;
}
);
leftKerningGroup = I;
rightKerningGroup = D;
unicode = 0044;
},
{
glyphname = Eth;
layers = (
{
hints = (
{
place = "{153, 143}";
},
{
place = "{749, 143}";
},
{
place = "{1427, 143}";
},
{
horizontal = 1;
place = "{0, 135}";
},
{
horizontal = 1;
place = "{1282, -20}";
target = down;
type = TopGhost;
},
{
horizontal = 1;
place = "{664, 135}";
},
{
horizontal = 1;
place = "{1130, 136}";
},
{
horizontal = 1;
place = "{4, 43}";
}
);
layerId = UUID0;
paths = (
{
closed = 1;
nodes = (
"67 662 LINE",
"153 662 LINE",
"153 0 LINE",
"316 0 LINE SMOOTH",
"732 0 OFFCURVE",
"892 264 OFFCURVE",
"892 641 CURVE SMOOTH",
"892 991 OFFCURVE",
"738 1282 OFFCURVE",
"390 1282 CURVE SMOOTH",
"278 1282 OFFCURVE",
"179 1260 OFFCURVE",
"114 1229 CURVE",
"153 1116 LINE",
"153 793 LINE",
"26 793 LINE"
);
},
{
closed = 1;
nodes = (
"296 1141 LINE",
"321 1147 OFFCURVE",
"355 1151 OFFCURVE",
"392 1151 CURVE SMOOTH",
"605 1151 OFFCURVE",
"749 977 OFFCURVE",
"749 641 CURVE SMOOTH",
"749 346 OFFCURVE",
"644 131 OFFCURVE",
"337 131 CURVE SMOOTH",
"296 131 LINE",
"296 662 LINE",
"489 662 LINE",
"489 793 LINE",
"296 793 LINE"
);
}
);
width = 997;
}
);
leftKerningGroup = I;
rightKerningGroup = D;
unicode = 00D0;
},
{
glyphname = E;
layers = (
{
hints = (
{
place = "{151, 143}";
},
{
place = "{1592, -143}";
},
{
place = "{978, -143}";
},
{
horizontal = 1;
place = "{659, 136}";
},
{
horizontal = 1;
place = "{1126, 136}";
},
{
horizontal = 1;
place = "{-39, 43}";
},
{
horizontal = 1;
place = "{-18, 135}";
},
{
horizontal = 1;
place = "{1145, 135}";
}
);
layerId = UUID0;
paths = (
{
closed = 1;
nodes = (
"691 1262 LINE",
"110 1262 LINE",
"151 1130 LINE",
"151 295 LINE",
"77 201 LINE",
"214 80 OFFCURVE",
"417 -20 OFFCURVE",
"681 -20 CURVE",
"691 111 LINE",
"536 111 OFFCURVE",
"417 135 OFFCURVE",
"294 217 CURVE",
"294 662 LINE",
"560 662 LINE",
"560 793 LINE",
"294 793 LINE",
"294 1130 LINE",
"691 1130 LINE"
);
}
);
width = 767;
}
);
leftKerningGroup = E;
rightKerningGroup = E;
unicode = 0045;
},
{
glyphname = F;
layers = (
{
hints = (
{
place = "{147, 144}";
},
{
horizontal = 1;
place = "{664, 135}";
},
{
horizontal = 1;
place = "{1130, 136}";
},
{
horizontal = 1;
place = "{4, 43}";
}
);
layerId = UUID0;
paths = (
{
closed = 1;
nodes = (
"717 1262 LINE",
"106 1262 LINE",
"147 1130 LINE",
"147 0 LINE",
"291 0 LINE",
"291 662 LINE",
"557 662 LINE",
"557 793 LINE",
"291 793 LINE",
"291 1130 LINE",
"717 1130 LINE"
);
}
);
width = 759;
}
);
leftKerningGroup = I;
unicode = 0046;
},
{
glyphname = G;
layers = (
{
hints = (
{
place = "{145, 144}";
},
{
place = "{670, 143}";
},
{
place = "{1036, 144}";
},
{
place = "{1651, 143}";
},
{
place = "{145, 144}";
},
{
place = "{674, 143}";
},
{
place = "{1014, 143}";
},
{
place = "{137, 143}";
},
{
horizontal = 1;
place = "{1288, -20}";
target = down;
type = TopGhost;
},
{
horizontal = 1;
place = "{-18, 43}";
},
{
horizontal = 1;
place = "{-18, 135}";
},
{
horizontal = 1;
place = "{1145, 135}";
},
{
horizontal = 1;
place = "{641, 135}";
},
{
horizontal = 1;
place = "{1262, -20}";
target = down;
type = TopGhost;
},
{
horizontal = 1;
place = "{0, 43}";
},
{
horizontal = 1;
place = "{-18, 137}";
},
{
horizontal = 1;
place = "{1145, 135}";
},
{
horizontal = 1;
place = "{-18, 137}";
},
{
horizontal = 1;
place = "{1145, 135}";
}
);
layerId = UUID0;
paths = (
{
closed = 1;
nodes = (
"651 -20 OFFCURVE",
"747 8 OFFCURVE",
"858 61 CURVE",
"858 582 LINE",
"715 582 LINE",
"715 158 LINE",
"661 127 OFFCURVE",
"602 111 OFFCURVE",
"516 111 CURVE",
"424 111 OFFCURVE",
"354 127 OFFCURVE",
"280 174 CURVE",
"280 793 LINE SMOOTH",
"280 987 OFFCURVE",
"315 1151 OFFCURVE",
"532 1151 CURVE SMOOTH",
"586 1151 OFFCURVE",
"653 1137 OFFCURVE",
"723 1102 CURVE",
"774 1223 LINE",
"698 1264 OFFCURVE",
"627 1282 OFFCURVE",
"528 1282 CURVE SMOOTH",
"217 1282 OFFCURVE",
"137 1059 OFFCURVE",
"137 788 CURVE SMOOTH",
"137 240 LINE",
"63 145 LINE",
"223 0 OFFCURVE",
"412 -20 OFFCURVE",
"508 -20 CURVE SMOOTH"
);
}
);
width = 959;
}
);
leftKerningGroup = C;
unicode = 0047;
},
{
glyphname = H;
layers = (
{
hints = (
{
place = "{144, 144}";
},
{
place = "{673, 143}";
},
{
horizontal = 1;
place = "{641, 135}";
},
{
horizontal = 1;
place = "{1262, -20}";
target = down;
type = TopGhost;
},
{
horizontal = 1;
place = "{0, 43}";
}
);
layerId = UUID0;
paths = (
{
closed = 1;
nodes = (
"144 1262 LINE",
"144 0 LINE",
"288 0 LINE",
"288 662 LINE",
"714 662 LINE",
"714 0 LINE",
"857 0 LINE",
"857 1262 LINE",
"714 1262 LINE",
"714 793 LINE",
"288 793 LINE",
"288 1262 LINE"
);
}
);
width = 1001;
}
);
leftKerningGroup = I;
unicode = 0048;
},
{
glyphname = I;
layers = (
{
hints = (
{
place = "{144, 144}";
},
{
horizontal = 1;
place = "{0, 43}";
},
{
horizontal = 1;
place = "{1262, -20}";
target = down;
type = TopGhost;
}
);
layerId = UUID0;
paths = (
{
closed = 1;
nodes = (
"144 0 LINE",
"288 0 LINE",
"288 1262 LINE",
"144 1262 LINE"
);
}
);
width = 432;
}
);
leftKerningGroup = I;
rightKerningGroup = I;
unicode = 0049;
},
{
glyphname = J;
layers = (
{
hints = (
{
place = "{276, 144}";
},
{
horizontal = 1;
place = "{1126, 136}";
},
{
horizontal = 1;
place = "{-152, 43}";
}
);
layerId = UUID0;
paths = (
{
closed = 1;
nodes = (
"65 1262 LINE",
"106 1130 LINE",
"276 1130 LINE",
"276 608 LINE SMOOTH",
"276 457 OFFCURVE",
"262 352 OFFCURVE",
"223 279 CURVE SMOOTH",
"186 207 OFFCURVE",
"111 141 OFFCURVE",
"39 102 CURVE",
"121 -20 LINE",
"203 29 OFFCURVE",
"287 102 OFFCURVE",
"332 170 CURVE SMOOTH",
"422 303 OFFCURVE",
"420 446 OFFCURVE",
"420 555 CURVE SMOOTH",
"420 1262 LINE"
);
}
);
width = 549;
}
);
unicode = 004A;
},
{
glyphname = K;
layers = (
{
hints = (
{
place = "{144, 144}";
},
{
place = "{1029, 143}";
},
{
place = "{1643, 144}";
},
{
horizontal = 1;
place = "{1262, -20}";
target = down;
type = TopGhost;
},
{
horizontal = 1;
place = "{0, 43}";
},
{
horizontal = 1;
place = "{1274, -20}";
target = down;
type = TopGhost;
},
{
horizontal = 1;
place = "{-16, 43}";
},
{
horizontal = 1;
place = "{-18, 135}";
},
{
horizontal = 1;
place = "{1145, 135}";
}
);
layerId = UUID0;
paths = (
{
closed = 1;
nodes = (
"288 1262 LINE",
"144 1262 LINE",
"144 0 LINE",
"288 0 LINE"
);
},
{
closed = 1;
nodes = (
"392 662 LINE",
"744 -20 LINE",
"869 45 LINE",
"482 793 LINE",
"511 958 OFFCURVE",
"663 1120 OFFCURVE",
"822 1155 CURVE",
"771 1282 LINE",
"495 1206 OFFCURVE",
"329 934 OFFCURVE",
"323 662 CURVE"
);
}
);
width = 891;
}
);
leftKerningGroup = I;
unicode = 004B;
},
{
glyphname = L;
layers = (
{
hints = (
{
place = "{144, 144}";
},
{
horizontal = 1;
place = "{0, 135}";
},
{
horizontal = 1;
place = "{1262, -20}";
target = down;
type = TopGhost;
}
);
layerId = UUID0;
paths = (
{
closed = 1;
nodes = (
"144 0 LINE",
"732 0 LINE",
"732 131 LINE",
"288 131 LINE",
"288 1262 LINE",
"144 1262 LINE"
);
}
);
width = 768;
}
);
leftKerningGroup = I;
unicode = 004C;
},
{
glyphname = M;
layers = (
{
hints = (
{
place = "{115, 209}";
},
{
place = "{969, 59}";
},
{
horizontal = 1;
place = "{1305, -20}";
target = down;
type = TopGhost;
},
{
horizontal = 1;
place = "{-20, 43}";
}
);
layerId = UUID0;
paths = (
{
closed = 1;
nodes = (
"527 997 OFFCURVE",
"400 1161 OFFCURVE",
"213 1282 CURVE",
"127 1165 LINE",
"191 1118 LINE",
"115 -12 LINE",
"256 -20 LINE",
"324 993 LINE",
"443 840 OFFCURVE",
"498 709 OFFCURVE",
"545 541 CURVE",
"678 541 LINE",
"729 719 OFFCURVE",
"789 852 OFFCURVE",
"901 993 CURVE",
"969 -20 LINE",
"1110 -12 LINE",
"1034 1120 LINE",
"1098 1165 LINE",
"1012 1282 LINE",
"815 1147 OFFCURVE",
"692 983 OFFCURVE",
"613 774 CURVE"
);
}
);
width = 1225;
}
);
unicode = 004D;
},
{
glyphname = N;
layers = (
{
hints = (
{
place = "{160, 143}";
},
{
place = "{688, 143}";
},
{
horizontal = 1;
place = "{0, 43}";
},
{
horizontal = 1;
place = "{1262, -20}";
target = down;
type = TopGhost;
},
{
horizontal = 1;
place = "{1290, -20}";
target = down;
type = TopGhost;
}
);
layerId = UUID0;
paths = (
{
closed = 1;
nodes = (
"160 0 LINE",
"303 0 LINE",
"303 1090 LINE",
"487 1001 OFFCURVE",
"624 848 OFFCURVE",
"727 645 CURVE",
"729 0 LINE",
"872 0 LINE",
"872 1262 LINE",
"729 1262 LINE",
"729 918 LINE",
"577 1130 OFFCURVE",
"354 1251 OFFCURVE",
"117 1282 CURVE",
"90 1141 LINE",
"114 1137 OFFCURVE",
"139 1130 OFFCURVE",
"160 1124 CURVE"
);
}
);
width = 1016;
}
);
leftKerningGroup = N;
rightKerningGroup = N;
unicode = 004E;
},
{
glyphname = O;
layers = (
{
hints = (
{
place = "{129, 143}";
},
{
place = "{743, 144}";
},
{
horizontal = 1;
place = "{-18, 135}";
},
{
horizontal = 1;
place = "{1145, 135}";
}
);
layerId = UUID0;
paths = (
{
closed = 1;
nodes = (
"409 111 OFFCURVE",
"334 131 OFFCURVE",
"272 174 CURVE",
"272 809 LINE SMOOTH",
"272 975 OFFCURVE",
"311 1151 OFFCURVE",
"508 1151 CURVE SMOOTH",
"704 1151 OFFCURVE",
"743 975 OFFCURVE",
"743 809 CURVE SMOOTH",
"743 174 LINE",
"682 131 OFFCURVE",
"606 111 OFFCURVE",
"508 111 CURVE SMOOTH"
);
},
{
closed = 1;
nodes = (
"221 1282 OFFCURVE",
"129 1069 OFFCURVE",
"129 809 CURVE SMOOTH",
"129 94 LINE",
"190 49 OFFCURVE",
"309 -20 OFFCURVE",
"508 -20 CURVE SMOOTH",
"727 -20 OFFCURVE",
"870 68 OFFCURVE",
"960 145 CURVE",
"887 240 LINE",
"887 809 LINE SMOOTH",
"887 1069 OFFCURVE",
"794 1282 OFFCURVE",
"508 1282 CURVE SMOOTH"
);
}
);
width = 1023;
}
);
leftKerningGroup = O;
rightKerningGroup = O;
unicode = 004F;
},
{
glyphname = Oslash;
layers = (
{
hints = (
{
place = "{130, 143}";
},
{
place = "{744, 144}";
},
{
horizontal = 1;
place = "{-18, 135}";
},
{
horizontal = 1;
place = "{1145, 135}";
}
);
layerId = UUID0;
paths = (
{
closed = 1;
nodes = (
"-24 -145 LINE",
"85 -219 LINE",
"243 29 LINE",
"308 0 OFFCURVE",
"396 -20 OFFCURVE",
"509 -20 CURVE SMOOTH",
"728 -20 OFFCURVE",
"871 68 OFFCURVE",
"961 145 CURVE",
"888 240 LINE",
"888 809 LINE SMOOTH",
"888 877 OFFCURVE",
"881 942 OFFCURVE",
"867 1001 CURVE",
"1039 1270 LINE",
"931 1341 LINE",
"804 1145 LINE",
"744 1229 OFFCURVE",
"650 1282 OFFCURVE",
"509 1282 CURVE SMOOTH",
"222 1282 OFFCURVE",
"130 1069 OFFCURVE",
"130 809 CURVE SMOOTH",
"130 94 LINE"
);
},
{
closed = 1;
nodes = (
"273 809 LINE SMOOTH",
"273 975 OFFCURVE",
"312 1151 OFFCURVE",
"509 1151 CURVE SMOOTH",
"623 1151 OFFCURVE",
"685 1090 OFFCURVE",
"716 1008 CURVE",
"273 317 LINE"
);
},
{
closed = 1;
nodes = (
"433 111 OFFCURVE",
"372 123 OFFCURVE",
"318 147 CURVE",
"744 809 LINE",
"744 174 LINE",
"683 131 OFFCURVE",
"607 111 OFFCURVE",
"509 111 CURVE SMOOTH"
);
}
);
width = 1048;
}
);
leftKerningGroup = O;
rightKerningGroup = O;
unicode = 00D8;
},
{
glyphname = OE;
layers = (
{
background = {
paths = (
{
closed = 1;
nodes = (
"128 94 LINE",
"189 49 OFFCURVE",
"308 -20 OFFCURVE",
"507 -20 CURVE SMOOTH",
"658 -20 OFFCURVE",
"726 23 OFFCURVE",
"812 74 CURVE"
);
}
);
};
hints = (
{
place = "{128, 143}";
},
{
place = "{742, 144}";
},
{
place = "{740, 144}";
},
{
place = "{2182, -143}";
},
{
place = "{1568, -144}";
},
{
horizontal = 1;
place = "{-18, 135}";
},
{
horizontal = 1;
place = "{1145, 135}";
},
{
horizontal = 1;
place = "{659, 136}";
},
{
horizontal = 1;
place = "{1126, 136}";
},
{
horizontal = 1;
place = "{-39, 43}";
},
{
horizontal = 1;
place = "{-18, 135}";
},
{
horizontal = 1;
place = "{1145, 135}";
}
);
layerId = UUID0;
paths = (
{
closed = 1;
nodes = (
"927 16 OFFCURVE",
"1064 -20 OFFCURVE",
"1226 -20 CURVE",
"1236 111 LINE",
"1080 111 OFFCURVE",
"961 135 OFFCURVE",
"839 215 CURVE",
"839 662 LINE",
"1105 662 LINE",
"1105 793 LINE",
"839 793 LINE",
"839 1130 LINE",
"1236 1130 LINE",
"1236 1262 LINE",
"509 1262 LINE SMOOTH",
"220 1262 OFFCURVE",
"130 1049 OFFCURVE",
"130 788 CURVE SMOOTH",
"128 94 LINE",
"185 49 OFFCURVE",
"298 -20 OFFCURVE",
"484 -20 CURVE SMOOTH",
"623 -20 OFFCURVE",
"730 23 OFFCURVE",
"812 74 CURVE"
);
},
{
closed = 1;
nodes = (
"695 174 LINE",
"632 127 OFFCURVE",
"558 111 OFFCURVE",
"482 111 CURVE SMOOTH",
"394 111 OFFCURVE",
"327 131 OFFCURVE",
"271 174 CURVE",
"271 788 LINE SMOOTH",
"271 954 OFFCURVE",
"310 1130 OFFCURVE",
"509 1130 CURVE SMOOTH",
"695 1130 LINE"
);
}
);
width = 1313;
}
);
leftKerningGroup = O;
rightKerningGroup = E;
unicode = 0152;
},
{
glyphname = P;
layers = (
{
hints = (
{
place = "{183, 144}";
},
{
place = "{763, 148}";
},
{
place = "{151, 143}";
},
{
place = "{683, 139}";
},
{
horizontal = 1;
place = "{1280, -135}";
},
{
horizontal = 1;
place = "{657, -135}";
},
{
horizontal = 1;
place = "{0, 43}";
},
{
horizontal = 1;
place = "{678, -137}";
}
);
layerId = UUID0;
paths = (
{
closed = 1;
nodes = (
"151 1094 LINE",
"151 0 LINE",
"294 0 LINE",
"294 662 LINE",
"822 662 LINE",
"822 870 LINE SMOOTH",
"822 973 OFFCURVE",
"824 1087 OFFCURVE",
"730 1184 CURVE SMOOTH",
"669 1245 OFFCURVE",
"568 1282 OFFCURVE",
"456 1282 CURVE SMOOTH",
"349 1282 OFFCURVE",
"196 1251 OFFCURVE",
"95 1206 CURVE"
);
},
{
closed = 1;
nodes = (
"294 1126 LINE",
"329 1141 OFFCURVE",
"394 1151 OFFCURVE",
"448 1151 CURVE SMOOTH",
"497 1151 OFFCURVE",
"568 1147 OFFCURVE",
"626 1081 CURVE SMOOTH",
"683 1014 OFFCURVE",
"683 926 OFFCURVE",
"683 868 CURVE SMOOTH",
"683 793 LINE",
"294 793 LINE"
);
}
);
width = 894;
}
);
leftKerningGroup = R;
unicode = 0050;
},
{
glyphname = Thorn;
layers = (
{
hints = (
{
place = "{176, 144}";
},
{
place = "{756, 148}";
},
{
place = "{144, 143}";
},
{
place = "{676, 139}";
},
{
horizontal = 1;
place = "{1280, -135}";
},
{
horizontal = 1;
place = "{657, -135}";
},
{
horizontal = 1;
place = "{0, 43}";
},
{
horizontal = 1;
place = "{678, -137}";
}
);
layerId = UUID0;
paths = (
{
closed = 1;
nodes = (
"287 0 LINE",
"287 375 LINE",
"815 375 LINE",
"815 584 LINE SMOOTH",
"815 686 OFFCURVE",
"817 801 OFFCURVE",
"723 897 CURVE SMOOTH",
"662 958 OFFCURVE",
"561 995 OFFCURVE",
"449 995 CURVE SMOOTH",
"402 995 OFFCURVE",
"344 989 OFFCURVE",
"287 979 CURVE",
"287 1262 LINE",
"144 1262 LINE",
"144 0 LINE"
);
},
{
closed = 1;
nodes = (
"287 840 LINE",
"322 854 OFFCURVE",
"387 864 OFFCURVE",
"441 864 CURVE SMOOTH",
"490 864 OFFCURVE",
"561 860 OFFCURVE",
"619 795 CURVE SMOOTH",
"676 727 OFFCURVE",
"676 639 OFFCURVE",
"676 582 CURVE SMOOTH",
"676 506 LINE",
"287 506 LINE"
);
}
);
width = 897;
}
);
leftKerningGroup = I;
unicode = 00DE;
},
{
glyphname = Q;
layers = (
{
hints = (
{
place = "{100, 144}";
},
{
place = "{735, 144}";
},
{
horizontal = 1;
place = "{0, 135}";
},
{
horizontal = 1;
place = "{1145, 135}";
}
);
layerId = UUID0;
paths = (
{
closed = 1;
nodes = (
"879 809 LINE SMOOTH",
"879 1069 OFFCURVE",
"786 1282 OFFCURVE",
"500 1282 CURVE SMOOTH",
"213 1282 OFFCURVE",
"121 1069 OFFCURVE",
"121 809 CURVE SMOOTH",
"121 473 LINE SMOOTH",
"121 213 OFFCURVE",
"213 0 OFFCURVE",
"500 0 CURVE",
"983 0 LINE",
"879 131 LINE"
);
},
{
closed = 1;
nodes = (
"735 131 LINE",
"500 131 LINE",
"303 131 OFFCURVE",
"264 307 OFFCURVE",
"264 473 CURVE SMOOTH",
"264 809 LINE SMOOTH",
"264 975 OFFCURVE",
"303 1151 OFFCURVE",
"500 1151 CURVE SMOOTH",
"696 1151 OFFCURVE",
"735 975 OFFCURVE",
"735 809 CURVE"
);
}
);
width = 1017;
}
);
unicode = 0051;
},
{
glyphname = R;
layers = (
{
hints = (
{
place = "{150, 143}";
},
{
place = "{664, 141}";
},
{
horizontal = 1;
place = "{594, 135}";
},
{
horizontal = 1;
place = "{606, 123}";
},
{
horizontal = 1;
place = "{1145, 135}";
},
{
horizontal = 1;
place = "{0, 43}";
},
{
horizontal = 1;
place = "{-16, 43}";
}
);
layerId = UUID0;
paths = (
{
closed = 1;
nodes = (
"150 1094 LINE",
"150 0 LINE",
"293 0 LINE",
"293 662 LINE",
"463 662 LINE",
"758 -20 LINE",
"891 37 LINE",
"623 662 LINE",
"821 662 LINE",
"821 893 LINE SMOOTH",
"821 995 OFFCURVE",
"811 1102 OFFCURVE",
"713 1190 CURVE SMOOTH",
"647 1249 OFFCURVE",
"543 1282 OFFCURVE",
"428 1282 CURVE SMOOTH",
"320 1282 OFFCURVE",
"197 1251 OFFCURVE",
"94 1206 CURVE"
);
},
{
closed = 1;
nodes = (
"293 1126 LINE",
"330 1143 OFFCURVE",
"373 1151 OFFCURVE",
"428 1151 CURVE SMOOTH",
"494 1151 OFFCURVE",
"561 1135 OFFCURVE",
"623 1069 CURVE SMOOTH",
"674 1012 OFFCURVE",
"682 924 OFFCURVE",
"682 862 CURVE SMOOTH",
"682 793 LINE",
"293 793 LINE"
);
}
);
width = 947;
}
);
leftKerningGroup = R;
unicode = 0052;
},
{
glyphname = S;
layers = (
{
hints = (
{
place = "{720, -143}";
},
{
place = "{1025, 144}";
},
{
horizontal = 1;
place = "{-14, 135}";
},
{
horizontal = 1;
place = "{1149, 135}";
},
{
horizontal = 1;
place = "{-2, 137}";
},
{
horizontal = 1;
place = "{1161, 135}";
}
);
layerId = UUID0;
paths = (
{
closed = 1;
nodes = (
"235 1282 OFFCURVE",
"95 1169 OFFCURVE",
"95 963 CURVE SMOOTH",
"95 782 OFFCURVE",
"216 680 OFFCURVE",
"345 580 CURVE SMOOTH",
"435 510 OFFCURVE",
"577 424 OFFCURVE",
"577 307 CURVE SMOOTH",
"577 166 LINE",
"523 131 OFFCURVE",
"464 111 OFFCURVE",
"384 111 CURVE SMOOTH",
"310 111 OFFCURVE",
"220 131 OFFCURVE",
"140 178 CURVE",
"81 49 LINE",
"188 -14 OFFCURVE",
"325 -20 OFFCURVE",
"388 -20 CURVE SMOOTH",
"534 -20 OFFCURVE",
"667 31 OFFCURVE",
"779 123 CURVE",
"720 236 LINE",
"720 324 LINE SMOOTH",
"720 461 OFFCURVE",
"624 551 OFFCURVE",
"433 694 CURVE",
"337 766 OFFCURVE",
"239 844 OFFCURVE",
"239 967 CURVE SMOOTH",
"239 1079 OFFCURVE",
"323 1151 OFFCURVE",
"446 1151 CURVE SMOOTH",
"503 1151 OFFCURVE",
"568 1137 OFFCURVE",
"642 1102 CURVE",
"704 1223 LINE",
"624 1264 OFFCURVE",
"548 1282 OFFCURVE",
"444 1282 CURVE SMOOTH"
);
}
);
width = 812;
}
);
unicode = 0053;
},
{
glyphname = T;
layers = (
{
hints = (
{
place = "{331, 143}";
},
{
horizontal = 1;
place = "{1126, 136}";
},
{
horizontal = 1;
place = "{0, 43}";
}
);
layerId = UUID0;
paths = (
{
closed = 1;
nodes = (
"331 0 LINE",
"474 0 LINE",
"474 1130 LINE",
"761 1130 LINE",
"761 1262 LINE",
"24 1262 LINE",
"64 1130 LINE",
"331 1130 LINE"
);
}
);
width = 803;
}
);
unicode = 0054;
},
{
glyphname = U;
layers = (
{
hints = (
{
place = "{134, 144}";
},
{
place = "{747, 143}";
},
{
horizontal = 1;
place = "{-18, 135}";
},
{
horizontal = 1;
place = "{1262, -20}";
target = down;
type = TopGhost;
}
);
layerId = UUID0;
paths = (
{
closed = 1;
nodes = (
"890 236 LINE",
"890 1262 LINE",
"747 1262 LINE",
"747 162 LINE",
"685 129 OFFCURVE",
"615 111 OFFCURVE",
"552 111 CURVE SMOOTH",
"441 111 OFFCURVE",
"378 160 OFFCURVE",
"347 197 CURVE SMOOTH",
"298 258 OFFCURVE",
"278 354 OFFCURVE",
"278 518 CURVE SMOOTH",
"278 1262 LINE",
"134 1262 LINE",
"134 522 LINE SMOOTH",
"134 403 OFFCURVE",
"128 279 OFFCURVE",
"196 162 CURVE SMOOTH",
"267 39 OFFCURVE",
"384 -20 OFFCURVE",
"552 -20 CURVE SMOOTH",
"638 -20 OFFCURVE",
"787 -6 OFFCURVE",
"957 121 CURVE"
);
}
);
width = 1043;
}
);
leftKerningGroup = U;
rightKerningGroup = U;
unicode = 0055;
},
{
glyphname = V;
layers = (
{
hints = (
{
horizontal = 1;
place = "{-20, 43}";
},
{
horizontal = 1;
place = "{1286, -20}";
target = down;
type = TopGhost;
}
);
layerId = UUID0;
paths = (
{
closed = 1;
nodes = (
"63 1262 LINE",
"276 -20 LINE",
"356 0 OFFCURVE",
"423 6 OFFCURVE",
"483 6 CURVE SMOOTH",
"542 6 OFFCURVE",
"610 0 OFFCURVE",
"690 -20 CURVE",
"903 1262 LINE",
"761 1282 LINE",
"571 131 LINE",
"544 135 OFFCURVE",
"516 137 OFFCURVE",
"483 137 CURVE SMOOTH",
"450 137 OFFCURVE",
"423 135 OFFCURVE",
"395 131 CURVE",
"204 1282 LINE"
);
}
);
width = 965;
}
);
unicode = 0056;
},
{
glyphname = W;
layers = (
{
hints = (
{
place = "{544, 148}";
},
{
horizontal = 1;
place = "{-20, 43}";
},
{
horizontal = 1;
place = "{1282, -20}";
target = down;
type = TopGhost;
},
{
horizontal = 1;
place = "{922, -20}";
target = down;
type = TopGhost;
}
);
layerId = UUID0;
paths = (
{
closed = 1;
nodes = (
"55 1255 LINE",
"299 -20 LINE",
"391 6 OFFCURVE",
"544 31 OFFCURVE",
"639 31 CURVE SMOOTH",
"733 31 OFFCURVE",
"886 6 OFFCURVE",
"979 -20 CURVE",
"1222 1255 LINE",
"1081 1282 LINE",
"864 145 LINE",
"825 154 OFFCURVE",
"757 160 OFFCURVE",
"712 162 CURVE",
"712 922 LINE",
"565 922 LINE",
"565 162 LINE",
"522 160 OFFCURVE",
"456 154 OFFCURVE",
"413 145 CURVE",
"196 1282 LINE"
);
}
);
width = 1278;
}
);
unicode = 0057;
},
{
glyphname = X;
layers = (
{
hints = (
{
horizontal = 1;
place = "{-25, 43}";
},
{
horizontal = 1;
place = "{1284, -20}";
target = down;
type = TopGhost;
},
{
horizontal = 1;
place = "{-20, 43}";
},
{
horizontal = 1;
place = "{1286, -20}";
target = down;
type = TopGhost;
}
);
layerId = UUID0;
paths = (
{
closed = 1;
nodes = (
"83 1239 LINE",
"249 727 LINE",
"83 12 LINE",
"225 -20 LINE",
"382 662 LINE",
"534 662 LINE",
"692 -20 LINE",
"833 12 LINE",
"667 727 LINE",
"833 1239 LINE",
"692 1282 LINE",
"532 793 LINE",
"385 793 LINE",
"225 1282 LINE"
);
}
);
width = 917;
}
);
unicode = 0058;
},
{
glyphname = Y;
layers = (
{
hints = (
{
place = "{344, 143}";
},
{
horizontal = 1;
place = "{0, 43}";
},
{
horizontal = 1;
place = "{1280, -20}";
target = down;
type = TopGhost;
}
);
layerId = UUID0;
paths = (
{
closed = 1;
nodes = (
"47 1260 LINE",
"92 961 OFFCURVE",
"121 827 OFFCURVE",
"188 750 CURVE SMOOTH",
"241 686 OFFCURVE",
"303 668 OFFCURVE",
"344 659 CURVE",
"344 0 LINE",
"487 0 LINE",
"487 659 LINE",
"528 668 OFFCURVE",
"590 686 OFFCURVE",
"643 750 CURVE SMOOTH",
"710 827 OFFCURVE",
"739 961 OFFCURVE",
"784 1260 CURVE",
"641 1282 LINE",
"624 1171 LINE SMOOTH",
"592 952 OFFCURVE",
"567 883 OFFCURVE",
"534 844 CURVE SMOOTH",
"497 801 OFFCURVE",
"450 793 OFFCURVE",
"416 793 CURVE SMOOTH",
"381 793 OFFCURVE",
"334 801 OFFCURVE",
"297 844 CURVE SMOOTH",
"264 883 OFFCURVE",
"239 952 OFFCURVE",
"207 1171 CURVE SMOOTH",
"190 1282 LINE"
);
}
);
width = 831;
}
);
leftKerningGroup = Y;
rightKerningGroup = Y;
unicode = 0059;
},
{
glyphname = Z;
layers = (
{
hints = (
{
horizontal = 1;
place = "{0, 135}";
},
{
horizontal = 1;
place = "{1280, -20}";
target = down;
type = TopGhost;
}
);
layerId = UUID0;
paths = (
{
closed = 1;
nodes = (
"798 1262 LINE",
"91 1262 LINE",
"91 1130 LINE",
"583 1130 LINE",
"51 0 LINE",
"798 0 LINE",
"798 131 LINE",
"264 131 LINE"
);
}
);
width = 869;
}
);
unicode = 005A;
},
{
glyphname = a;
layers = (
{
hints = (
{
place = "{65, 135}";
},
{
place = "{575, 131}";
},
{
place = "{1020, 147}";
},
{
place = "{1028, 131}";
},
{
horizontal = 1;
place = "{-18, 116}";
},
{
horizontal = 1;
place = "{485, 127}";
},
{
horizontal = 1;
place = "{948, -20}";
target = down;
type = TopGhost;
},
{
horizontal = 1;
place = "{922, 174}";
},
{
horizontal = 1;
place = "{1249, -153}";
},
{
horizontal = 1;
place = "{0, 43}";
}
);
layerId = UUID0;
paths = (
{
closed = 1;
nodes = (
"209 813 LINE",
"364 809 OFFCURVE",
"563 786 OFFCURVE",
"575 608 CURVE",
"315 606 OFFCURVE",
"63 543 OFFCURVE",
"63 268 CURVE SMOOTH",
"63 180 OFFCURVE",
"100 109 OFFCURVE",
"145 63 CURVE SMOOTH",
"192 18 OFFCURVE",
"270 -20 OFFCURVE",
"403 -20 CURVE SMOOTH",
"508 -20 OFFCURVE",
"635 8 OFFCURVE",
"761 80 CURVE",
"706 174 LINE",
"706 584 LINE SMOOTH",
"706 879 OFFCURVE",
"448 942 OFFCURVE",
"219 942 CURVE"
);
},
{
closed = 1;
nodes = (
"575 137 LINE",
"526 117 OFFCURVE",
"473 102 OFFCURVE",
"407 102 CURVE SMOOTH",
"352 102 OFFCURVE",
"292 113 OFFCURVE",
"249 156 CURVE SMOOTH",
"225 178 OFFCURVE",
"202 219 OFFCURVE",
"202 283 CURVE SMOOTH",
"202 469 OFFCURVE",
"444 485 OFFCURVE",
"575 485 CURVE"
);
}
);
width = 827;
}
);
leftKerningGroup = a;
rightKerningGroup = a;
unicode = 0061;
},
{
glyphname = ae;
layers = (
{
hints = (
{
place = "{63, 135}";
},
{
place = "{573, 131}";
},
{
place = "{1018, 147}";
},
{
place = "{1026, 131}";
},
{
horizontal = 1;
place = "{-18, 116}";
},
{
horizontal = 1;
place = "{485, 127}";
},
{
horizontal = 1;
place = "{948, -20}";
target = down;
type = TopGhost;
},
{
horizontal = 1;
place = "{922, 174}";
},
{
horizontal = 1;
place = "{1249, -153}";
},
{
horizontal = 1;
place = "{0, 43}";
}
);
layerId = UUID0;
paths = (
{
closed = 1;
nodes = (
"1177 451 LINE",
"1177 543 LINE SMOOTH",
"1177 618 OFFCURVE",
"1179 754 OFFCURVE",
"1097 852 CURVE SMOOTH",
"1028 934 OFFCURVE",
"940 942 OFFCURVE",
"874 942 CURVE SMOOTH",
"811 942 OFFCURVE",
"721 934 OFFCURVE",
"651 852 CURVE SMOOTH",
"641 840 OFFCURVE",
"633 825 OFFCURVE",
"624 811 CURVE",
"534 913 OFFCURVE",
"366 942 OFFCURVE",
"217 942 CURVE",
"207 813 LINE",
"362 809 OFFCURVE",
"561 782 OFFCURVE",
"573 573 CURVE",
"313 571 OFFCURVE",
"61 512 OFFCURVE",
"61 252 CURVE SMOOTH",
"61 170 OFFCURVE",
"98 102 OFFCURVE",
"143 59 CURVE SMOOTH",
"190 16 OFFCURVE",
"268 -20 OFFCURVE",
"401 -20 CURVE SMOOTH",
"477 -20 OFFCURVE",
"565 -6 OFFCURVE",
"651 27 CURVE",
"719 -6 OFFCURVE",
"796 -20 OFFCURVE",
"899 -20 CURVE SMOOTH",
"1007 -20 OFFCURVE",
"1099 0 OFFCURVE",
"1177 49 CURVE",
"1177 186 LINE",
"1093 127 OFFCURVE",
"1009 102 OFFCURVE",
"899 102 CURVE SMOOTH",
"839 102 OFFCURVE",
"764 113 OFFCURVE",
"704 156 CURVE",
"704 451 LINE"
);
},
{
closed = 1;
nodes = (
"573 133 LINE",
"524 115 OFFCURVE",
"471 102 OFFCURVE",
"405 102 CURVE SMOOTH",
"350 102 OFFCURVE",
"290 113 OFFCURVE",
"247 152 CURVE SMOOTH",
"223 172 OFFCURVE",
"200 209 OFFCURVE",
"200 266 CURVE SMOOTH",
"200 436 OFFCURVE",
"442 451 OFFCURVE",
"573 451 CURVE"
);
},
{
closed = 1;
nodes = (
"704 573 LINE",
"704 612 LINE SMOOTH",
"704 659 OFFCURVE",
"712 715 OFFCURVE",
"739 756 CURVE SMOOTH",
"757 780 OFFCURVE",
"798 819 OFFCURVE",
"876 819 CURVE SMOOTH",
"954 819 OFFCURVE",
"993 780 OFFCURVE",
"1011 756 CURVE SMOOTH",
"1046 705 OFFCURVE",
"1046 627 OFFCURVE",
"1046 573 CURVE"
);
}
);
width = 1277;
}
);
leftKerningGroup = a;
rightKerningGroup = e;
unicode = 00E6;
},
{
glyphname = b;
layers = (
{
hints = (
{
place = "{133, 131}";
},
{
place = "{673, 135}";
},
{
horizontal = 1;
place = "{-18, 127}";
},
{
horizontal = 1;
place = "{813, 127}";
},
{
horizontal = 1;
place = "{1341, -20}";
target = down;
type = TopGhost;
}
);
layerId = UUID0;
paths = (
{
closed = 1;
nodes = (
"75 74 LINE",
"159 25 OFFCURVE",
"282 -20 OFFCURVE",
"421 -20 CURVE SMOOTH",
"704 -20 OFFCURVE",
"808 215 OFFCURVE",
"808 461 CURVE SMOOTH",
"808 707 OFFCURVE",
"683 942 OFFCURVE",
"429 942 CURVE SMOOTH",
"368 942 OFFCURVE",
"321 934 OFFCURVE",
"264 918 CURVE",
"264 1341 LINE",
"92 1341 LINE",
"133 1212 LINE",
"133 178 LINE"
);
},
{
closed = 1;
nodes = (
"264 786 LINE",
"292 799 OFFCURVE",
"343 819 OFFCURVE",
"411 819 CURVE SMOOTH",
"612 819 OFFCURVE",
"673 625 OFFCURVE",
"673 461 CURVE SMOOTH",
"673 297 OFFCURVE",
"622 102 OFFCURVE",
"413 102 CURVE SMOOTH",
"362 102 OFFCURVE",
"305 115 OFFCURVE",
"264 135 CURVE"
);
}
);
width = 899;
}
);
unicode = 0062;
},
{
glyphname = c;
layers = (
{
hints = (
{
place = "{114, 131}";
},
{
horizontal = 1;
place = "{-18, 127}";
},
{
horizontal = 1;
place = "{813, 127}";
}
);
layerId = UUID0;
paths = (
{
closed = 1;
nodes = (
"656 913 LINE",
"597 930 OFFCURVE",
"534 942 OFFCURVE",
"462 942 CURVE SMOOTH",
"388 942 OFFCURVE",
"282 934 OFFCURVE",
"202 852 CURVE SMOOTH",
"108 754 OFFCURVE",
"114 618 OFFCURVE",
"114 543 CURVE SMOOTH",
"114 209 LINE",
"44 125 LINE",
"114 66 OFFCURVE",
"245 -20 OFFCURVE",
"456 -20 CURVE SMOOTH",
"534 -20 OFFCURVE",
"601 -8 OFFCURVE",
"667 18 CURVE",
"667 147 LINE",
"599 115 OFFCURVE",
"534 102 OFFCURVE",
"458 102 CURVE SMOOTH",
"378 102 OFFCURVE",
"312 119 OFFCURVE",
"245 156 CURVE",
"245 543 LINE SMOOTH",
"245 602 OFFCURVE",
"245 692 OFFCURVE",
"290 750 CURVE SMOOTH",
"310 776 OFFCURVE",
"360 819 OFFCURVE",
"458 819 CURVE SMOOTH",
"507 819 OFFCURVE",
"570 809 OFFCURVE",
"622 795 CURVE"
);
}
);
width = 734;
}
);
leftKerningGroup = e;
rightKerningGroup = c;
unicode = 0063;
},
{
glyphname = ccedilla;
layers = (
{
hints = (
{
place = "{112, 131}";
},
{
place = "{1724, -132}";
},
{
place = "{-525, 131}";
},
{
place = "{3, 131}";
},
{
place = "{1142, 170}";
},
{
place = "{-929, 168}";
},
{
place = "{-413, 168}";
},
{
horizontal = 1;
place = "{-18, 127}";
},
{
horizontal = 1;
place = "{813, 127}";
},
{
horizontal = 1;
place = "{-18, 127}";
},
{
horizontal = 1;
place = "{940, -20}";
target = down;
type = TopGhost;
},
{
horizontal = 1;
place = "{-33, 127}";
},
{
horizontal = 1;
place = "{799, 127}";
},
{
horizontal = 1;
place = "{813, 127}";
},
{
horizontal = 1;
place = "{-18, 43}";
},
{
horizontal = 1;
place = "{-18, 145}";
},
{
horizontal = 1;
place = "{940, -20}";
target = down;
type = TopGhost;
},
{
horizontal = 1;
place = "{-33, 146}";
},
{
horizontal = 1;
place = "{782, 144}";
},
{
horizontal = 1;
place = "{795, 145}";
},
{
horizontal = 1;
place = "{-18, 63}";
}
);
layerId = UUID0;
paths = (
{
closed = 1;
nodes = (
"405 -158 LINE SMOOTH",
"458 -158 OFFCURVE",
"484 -172 OFFCURVE",
"484 -207 CURVE SMOOTH",
"484 -244 OFFCURVE",
"448 -254 OFFCURVE",
"409 -254 CURVE SMOOTH",
"345 -254 OFFCURVE",
"278 -233 OFFCURVE",
"210 -205 CURVE",
"210 -315 LINE",
"261 -338 OFFCURVE",
"331 -354 OFFCURVE",
"409 -354 CURVE SMOOTH",
"511 -354 OFFCURVE",
"609 -317 OFFCURVE",
"609 -207 CURVE SMOOTH",
"609 -109 OFFCURVE",
"542 -61 OFFCURVE",
"429 -61 CURVE SMOOTH",
"421 -61 LINE",
"421 -18 LINE",
"431 -18 OFFCURVE",
"441 -20 OFFCURVE",
"454 -20 CURVE SMOOTH",
"532 -20 OFFCURVE",
"599 -8 OFFCURVE",
"665 18 CURVE",
"665 147 LINE",
"597 115 OFFCURVE",
"532 102 OFFCURVE",
"456 102 CURVE SMOOTH",
"376 102 OFFCURVE",
"310 119 OFFCURVE",
"243 156 CURVE",
"243 543 LINE SMOOTH",
"243 602 OFFCURVE",
"243 692 OFFCURVE",
"288 750 CURVE SMOOTH",
"308 776 OFFCURVE",
"358 819 OFFCURVE",
"456 819 CURVE SMOOTH",
"505 819 OFFCURVE",
"568 809 OFFCURVE",
"620 795 CURVE",
"654 913 LINE",
"595 930 OFFCURVE",
"532 942 OFFCURVE",
"460 942 CURVE SMOOTH",
"386 942 OFFCURVE",
"280 934 OFFCURVE",
"200 852 CURVE SMOOTH",
"106 754 OFFCURVE",
"112 618 OFFCURVE",
"112 543 CURVE SMOOTH",
"112 209 LINE",
"42 125 LINE",
"91 82 OFFCURVE",
"175 25 OFFCURVE",
"298 -2 CURVE",
"298 -158 LINE"
);
}
);
width = 732;
}
);
leftKerningGroup = e;
rightKerningGroup = c;
unicode = 00E7;
},
{
glyphname = d;
layers = (
{
hints = (
{
place = "{91, 135}";
},
{
place = "{636, 131}";
},
{
horizontal = 1;
place = "{-18, 127}";
},
{
horizontal = 1;
place = "{813, 127}";
},
{
horizontal = 1;
place = "{1341, -20}";
target = down;
type = TopGhost;
}
);
layerId = UUID0;
paths = (
{
closed = 1;
nodes = (
"767 178 LINE",
"767 1341 LINE",
"595 1341 LINE",
"636 1212 LINE",
"636 918 LINE",
"579 934 OFFCURVE",
"532 942 OFFCURVE",
"470 942 CURVE SMOOTH",
"216 942 OFFCURVE",
"91 707 OFFCURVE",
"91 461 CURVE SMOOTH",
"91 215 OFFCURVE",
"196 -20 OFFCURVE",
"478 -20 CURVE SMOOTH",
"618 -20 OFFCURVE",
"740 25 OFFCURVE",
"824 74 CURVE"
);
},
{
closed = 1;
nodes = (
"636 135 LINE",
"595 115 OFFCURVE",
"538 102 OFFCURVE",
"486 102 CURVE SMOOTH",
"278 102 OFFCURVE",
"226 297 OFFCURVE",
"226 461 CURVE SMOOTH",
"226 625 OFFCURVE",
"288 819 OFFCURVE",
"489 819 CURVE SMOOTH",
"556 819 OFFCURVE",
"607 799 OFFCURVE",
"636 786 CURVE"
);
}
);
width = 900;
}
);
leftKerningGroup = d;
unicode = 0064;
},
{
glyphname = eth;
layers = (
{
hints = (
{
place = "{111, 131}";
},
{
place = "{639, 131}";
},
{
place = "{1545, 147}";
},
{
place = "{1553, 131}";
},
{
place = "{1065, 148}";
},
{
place = "{1073, 132}";
},
{
horizontal = 1;
place = "{813, 127}";
},
{
horizontal = 1;
place = "{-18, 43}";
},
{
horizontal = 1;
place = "{1573, 174}";
},
{
horizontal = 1;
place = "{1901, -154}";
},
{
horizontal = 1;
place = "{219, 43}";
},
{
horizontal = 1;
place = "{922, 174}";
},
{
horizontal = 1;
place = "{1249, -153}";
},
{
horizontal = 1;
place = "{0, 43}";
}
);
layerId = UUID0;
paths = (
{
closed = 1;
nodes = (
"693 1341 LINE",
"578 1227 LINE",
"514 1274 OFFCURVE",
"439 1313 OFFCURVE",
"348 1343 CURVE",
"301 1239 LINE",
"367 1206 OFFCURVE",
"430 1174 OFFCURVE",
"482 1133 CURVE",
"375 1026 LINE",
"469 932 LINE",
"574 1036 LINE",
"613 979 OFFCURVE",
"635 905 OFFCURVE",
"635 809 CURVE",
"576 827 OFFCURVE",
"510 838 OFFCURVE",
"441 838 CURVE SMOOTH",
"281 838 OFFCURVE",
"176 791 OFFCURVE",
"111 745 CURVE",
"111 379 LINE SMOOTH",
"111 303 OFFCURVE",
"105 168 OFFCURVE",
"195 70 CURVE SMOOTH",
"271 -12 OFFCURVE",
"371 -20 OFFCURVE",
"441 -20 CURVE SMOOTH",
"510 -20 OFFCURVE",
"611 -12 OFFCURVE",
"686 70 CURVE SMOOTH",
"777 168 OFFCURVE",
"770 303 OFFCURVE",
"770 379 CURVE SMOOTH",
"770 829 LINE SMOOTH",
"770 952 OFFCURVE",
"736 1055 OFFCURVE",
"672 1137 CURVE",
"785 1249 LINE"
);
},
{
closed = 1;
nodes = (
"242 666 LINE",
"303 705 OFFCURVE",
"381 715 OFFCURVE",
"441 715 CURVE SMOOTH",
"500 715 OFFCURVE",
"578 705 OFFCURVE",
"639 666 CURVE",
"639 375 LINE SMOOTH",
"639 315 OFFCURVE",
"639 229 OFFCURVE",
"598 172 CURVE SMOOTH",
"578 145 OFFCURVE",
"533 102 OFFCURVE",
"441 102 CURVE SMOOTH",
"348 102 OFFCURVE",
"303 145 OFFCURVE",
"283 172 CURVE SMOOTH",
"242 229 OFFCURVE",
"242 315 OFFCURVE",
"242 375 CURVE SMOOTH"
);
}
);
width = 886;
}
);
unicode = 00F0;
},
{
glyphname = e;
layers = (
{
hints = (
{
place = "{114, 131}";
},
{
place = "{1002, 131}";
},
{
place = "{1531, 131}";
},
{
place = "{943, 143}";
},
{
horizontal = 1;
place = "{-18, 127}";
},
{
horizontal = 1;
place = "{399, 127}";
},
{
horizontal = 1;
place = "{940, -20}";
target = down;
type = TopGhost;
},
{
horizontal = 1;
place = "{422, 127}";
},
{
horizontal = 1;
place = "{813, 127}";
},
{
horizontal = 1;
place = "{-18, 43}";
},
{
horizontal = 1;
place = "{-18, 137}";
},
{
horizontal = 1;
place = "{1145, 135}";
}
);
layerId = UUID0;
paths = (
{
closed = 1;
nodes = (
"245 547 LINE",
"245 606 OFFCURVE",
"245 692 OFFCURVE",
"281 750 CURVE SMOOTH",
"300 776 OFFCURVE",
"341 819 OFFCURVE",
"423 819 CURVE SMOOTH",
"507 819 OFFCURVE",
"548 776 OFFCURVE",
"566 750 CURVE SMOOTH",
"603 692 OFFCURVE",
"603 606 OFFCURVE",
"603 547 CURVE SMOOTH"
);
},
{
closed = 1;
nodes = (
"746 424 LINE",
"746 543 LINE SMOOTH",
"746 618 OFFCURVE",
"750 754 OFFCURVE",
"664 852 CURVE SMOOTH",
"591 934 OFFCURVE",
"497 942 OFFCURVE",
"429 942 CURVE SMOOTH",
"361 942 OFFCURVE",
"267 934 OFFCURVE",
"193 852 CURVE SMOOTH",
"107 754 OFFCURVE",
"114 618 OFFCURVE",
"114 543 CURVE SMOOTH",
"114 209 LINE",
"44 125 LINE",
"152 29 OFFCURVE",
"279 -20 OFFCURVE",
"454 -20 CURVE SMOOTH",
"566 -20 OFFCURVE",
"664 0 OFFCURVE",
"746 49 CURVE",
"746 186 LINE",
"658 127 OFFCURVE",
"568 102 OFFCURVE",
"451 102 CURVE SMOOTH",
"388 102 OFFCURVE",
"308 113 OFFCURVE",
"245 156 CURVE",
"245 424 LINE"
);
}
);
width = 847;
}
);
leftKerningGroup = e;
rightKerningGroup = e;
unicode = 0065;
},
{
glyphname = ecircumflex;
layers = (
{
components = (
{
name = e;
}
);
hints = (
{
place = "{114, 131}";
},
{
place = "{1002, 131}";
},
{
place = "{1531, 131}";
},
{
place = "{943, 143}";
},
{
place = "{1301, 144}";
},
{
horizontal = 1;
place = "{-18, 127}";
},
{
horizontal = 1;
place = "{399, 127}";
},
{
horizontal = 1;
place = "{940, -20}";
target = down;
type = TopGhost;
},
{
horizontal = 1;
place = "{422, 127}";
},
{
horizontal = 1;
place = "{813, 127}";
},
{
horizontal = 1;
place = "{-18, 43}";
},
{
horizontal = 1;
place = "{-18, 137}";
},
{
horizontal = 1;
place = "{1145, 135}";
},
{
horizontal = 1;
place = "{254, 43}";
},
{
horizontal = 1;
place = "{1114, -20}";
target = down;
type = TopGhost;
},
{
horizontal = 1;
place = "{621, 137}";
},
{
horizontal = 1;
place = "{209, 43}";
},
{
horizontal = 1;
place = "{1161, -20}";
target = down;
type = TopGhost;
}
);
layerId = UUID0;
paths = (
{
closed = 1;
nodes = (
"357 1341 LINE",
"144 1128 LINE",
"238 1034 LINE",
"423 1219 LINE",
"607 1034 LINE",
"701 1128 LINE",
"488 1341 LINE"
);
}
);
width = 847;
}
);
leftKerningGroup = e;
rightKerningGroup = e;
unicode = 00EA;
},
{
glyphname = f;
layers = (
{
hints = (
{
place = "{123, 131}";
},
{
horizontal = 1;
place = "{795, 127}";
},
{
horizontal = 1;
place = "{0, 43}";
},
{
horizontal = 1;
place = "{1358, -20}";
target = down;
type = TopGhost;
}
);
layerId = UUID0;
paths = (
{
closed = 1;
nodes = (
"123 0 LINE",
"254 0 LINE",
"254 799 LINE",
"442 799 LINE",
"442 922 LINE",
"254 922 LINE",
"254 1137 LINE",
"336 1184 OFFCURVE",
"465 1210 OFFCURVE",
"578 1219 CURVE",
"567 1341 LINE",
"385 1329 OFFCURVE",
"193 1276 OFFCURVE",
"64 1165 CURVE",
"123 1073 LINE"
);
}
);
width = 485;
}
);
unicode = 0066;
},
{
glyphname = g;
layers = (
{
hints = (
{
place = "{75, 131}";
},
{
place = "{788, -132}";
},
{
place = "{749, -131}";
},
{
place = "{1236, 131}";
},
{
place = "{1764, 132}";
},
{
horizontal = 1;
place = "{-434, 127}";
},
{
horizontal = 1;
place = "{0, 371}";
},
{
horizontal = 1;
place = "{940, -20}";
target = down;
type = TopGhost;
},
{
horizontal = 1;
place = "{813, 127}";
},
{
horizontal = 1;
place = "{-18, 43}";
}
);
layerId = UUID0;
paths = (
{
closed = 1;
nodes = (
"618 578 LINE",
"613 440 OFFCURVE",
"534 369 OFFCURVE",
"409 369 CURVE SMOOTH",
"288 369 OFFCURVE",
"206 438 OFFCURVE",
"206 555 CURVE SMOOTH",
"206 627 LINE SMOOTH",
"206 750 OFFCURVE",
"300 819 OFFCURVE",
"429 819 CURVE SMOOTH",
"509 819 OFFCURVE",
"572 801 OFFCURVE",
"618 780 CURVE"
);
},
{
closed = 1;
nodes = (
"796 854 LINE",
"734 887 OFFCURVE",
"618 942 OFFCURVE",
"441 942 CURVE SMOOTH",
"239 942 OFFCURVE",
"75 840 OFFCURVE",
"75 627 CURVE SMOOTH",
"75 555 LINE SMOOTH",
"75 426 OFFCURVE",
"128 328 OFFCURVE",
"228 281 CURVE",
"228 0 LINE",
"468 0 LINE SMOOTH",
"636 0 OFFCURVE",
"679 -70 OFFCURVE",
"679 -205 CURVE SMOOTH",
"679 -248 LINE",
"630 -281 OFFCURVE",
"554 -309 OFFCURVE",
"448 -309 CURVE SMOOTH",
"323 -309 OFFCURVE",
"239 -287 OFFCURVE",
"112 -193 CURVE",
"42 -297 LINE",
"155 -387 OFFCURVE",
"290 -432 OFFCURVE",
"448 -432 CURVE SMOOTH",
"613 -432 OFFCURVE",
"765 -379 OFFCURVE",
"880 -274 CURVE",
"810 -190 LINE",
"810 -141 LINE SMOOTH",
"810 68 OFFCURVE",
"636 123 OFFCURVE",
"468 123 CURVE SMOOTH",
"360 123 LINE",
"360 250 LINE",
"372 248 OFFCURVE",
"394 246 OFFCURVE",
"413 246 CURVE SMOOTH",
"622 246 OFFCURVE",
"749 375 OFFCURVE",
"749 575 CURVE SMOOTH",
"749 745 LINE"
);
}
);
width = 867;
}
);
unicode = 0067;
},
{
glyphname = h;
layers = (
{
hints = (
{
place = "{124, 131}";
},
{
place = "{677, 131}";
},
{
place = "{124, 131}";
},
{
place = "{663, 131}";
},
{
horizontal = 1;
place = "{813, 127}";
},
{
horizontal = 1;
place = "{1341, -20}";
target = down;
type = TopGhost;
},
{
horizontal = 1;
place = "{0, 43}";
},
{
horizontal = 1;
place = "{813, 127}";
},
{
horizontal = 1;
place = "{0, 43}";
}
);
layerId = UUID0;
paths = (
{
closed = 1;
nodes = (
"255 1341 LINE",
"83 1341 LINE",
"124 1212 LINE",
"124 0 LINE",
"255 0 LINE",
"255 788 LINE",
"300 807 OFFCURVE",
"353 819 OFFCURVE",
"419 819 CURVE SMOOTH",
"536 819 OFFCURVE",
"589 772 OFFCURVE",
"613 735 CURVE SMOOTH",
"648 684 OFFCURVE",
"652 600 OFFCURVE",
"652 420 CURVE SMOOTH",
"652 0 LINE",
"783 0 LINE",
"783 416 LINE SMOOTH",
"783 635 OFFCURVE",
"775 719 OFFCURVE",
"746 780 CURVE SMOOTH",
"679 922 OFFCURVE",
"531 942 OFFCURVE",
"429 942 CURVE SMOOTH",
"364 942 OFFCURVE",
"306 932 OFFCURVE",
"255 915 CURVE"
);
}
);
width = 898;
}
);
leftKerningGroup = h;
rightKerningGroup = n;
unicode = 0068;
},
{
glyphname = i;
layers = (
{
hints = (
{
place = "{120, 147}";
},
{
place = "{128, 131}";
},
{
horizontal = 1;
place = "{922, 174}";
},
{
horizontal = 1;
place = "{1249, -153}";
},
{
horizontal = 1;
place = "{0, 43}";
}
);
layerId = UUID0;
paths = (
{
closed = 1;
nodes = (
"120 1262 LINE",
"120 1108 LINE",
"267 1108 LINE",
"267 1262 LINE"
);
},
{
closed = 1;
nodes = (
"87 922 LINE",
"128 793 LINE",
"128 0 LINE",
"259 0 LINE",
"259 922 LINE"
);
}
);
width = 382;
}
);
leftKerningGroup = i;
rightKerningGroup = i;
unicode = 0069;
},
{
glyphname = idotless;
layers = (
{
hints = (
{
place = "{120, 147}";
},
{
place = "{128, 131}";
},
{
horizontal = 1;
place = "{922, 174}";
},
{
horizontal = 1;
place = "{1249, -153}";
},
{
horizontal = 1;
place = "{0, 43}";
}
);
layerId = UUID0;
paths = (
{
closed = 1;
nodes = (
"87 922 LINE",
"128 793 LINE",
"128 0 LINE",
"259 0 LINE",
"259 922 LINE"
);
}
);
width = 382;
}
);
leftKerningGroup = i;
rightKerningGroup = i;
unicode = 0131;
},
{
glyphname = j;
layers = (
{
hints = (
{
place = "{121, 147}";
},
{
place = "{129, 131}";
},
{
horizontal = 1;
place = "{922, 174}";
},
{
horizontal = 1;
place = "{1249, -153}";
},
{
horizontal = 1;
place = "{-432, 43}";
}
);
layerId = UUID0;
paths = (
{
closed = 1;
nodes = (
"-39 -432 LINE",
"223 -303 OFFCURVE",
"260 -143 OFFCURVE",
"260 131 CURVE SMOOTH",
"260 922 LINE",
"88 922 LINE",
"129 793 LINE",
"129 131 LINE SMOOTH",
"129 -123 OFFCURVE",
"104 -221 OFFCURVE",
"-98 -328 CURVE"
);
},
{
closed = 1;
nodes = (
"121 1262 LINE",
"121 1108 LINE",
"268 1108 LINE",
"268 1262 LINE"
);
}
);
width = 383;
}
);
leftKerningGroup = i;
rightKerningGroup = i;
unicode = 006A;
},
{
glyphname = k;
layers = (
{
hints = (
{
place = "{124, 131}";
},
{
horizontal = 1;
place = "{1341, -20}";
target = down;
type = TopGhost;
},
{
horizontal = 1;
place = "{0, 43}";
},
{
horizontal = 1;
place = "{-18, 43}";
}
);
layerId = UUID0;
paths = (
{
closed = 1;
nodes = (
"83 1341 LINE",
"124 1212 LINE",
"124 0 LINE",
"255 0 LINE",
"255 1341 LINE"
);
},
{
closed = 1;
nodes = (
"339 444 LINE",
"652 -20 LINE",
"761 53 LINE",
"437 535 LINE",
"486 684 OFFCURVE",
"599 778 OFFCURVE",
"740 819 CURVE",
"695 942 LINE",
"462 877 OFFCURVE",
"312 670 OFFCURVE",
"284 444 CURVE"
);
}
);
width = 783;
}
);
leftKerningGroup = h;
unicode = 006B;
},
{
glyphname = l;
layers = (
{
hints = (
{
place = "{116, 131}";
},
{
horizontal = 1;
place = "{1341, -20}";
target = down;
type = TopGhost;
},
{
horizontal = 1;
place = "{-33, 43}";
}
);
layerId = UUID0;
paths = (
{
closed = 1;
nodes = (
"75 1341 LINE",
"116 1212 LINE",
"116 530 LINE SMOOTH",
"116 248 OFFCURVE",
"157 100 OFFCURVE",
"382 -20 CURVE",
"450 88 LINE",
"263 203 OFFCURVE",
"247 305 OFFCURVE",
"247 530 CURVE SMOOTH",
"247 1341 LINE"
);
}
);
width = 457;
}
);
unicode = 006C;
},
{
glyphname = m;
layers = (
{
hints = (
{
place = "{133, 131}";
},
{
place = "{550, 132}";
},
{
place = "{968, 129}";
},
{
place = "{1249, 131}";
},
{
place = "{1787, 132}";
},
{
horizontal = 1;
place = "{813, 127}";
},
{
horizontal = 1;
place = "{0, 43}";
},
{
horizontal = 1;
place = "{813, 127}";
},
{
horizontal = 1;
place = "{0, 43}";
}
);
layerId = UUID0;
paths = (
{
closed = 1;
nodes = (
"133 707 LINE",
"133 0 LINE",
"264 0 LINE",
"264 764 LINE",
"350 801 OFFCURVE",
"454 819 OFFCURVE",
"550 819 CURVE",
"550 0 LINE",
"682 0 LINE",
"682 819 LINE",
"749 819 OFFCURVE",
"847 791 OFFCURVE",
"897 739 CURVE SMOOTH",
"972 662 OFFCURVE",
"968 518 OFFCURVE",
"968 416 CURVE SMOOTH",
"968 0 LINE",
"1097 0 LINE",
"1097 487 LINE SMOOTH",
"1097 600 OFFCURVE",
"1091 733 OFFCURVE",
"989 831 CURVE SMOOTH",
"878 936 OFFCURVE",
"684 942 OFFCURVE",
"612 942 CURVE SMOOTH",
"413 942 OFFCURVE",
"225 897 OFFCURVE",
"75 807 CURVE"
);
}
);
width = 1208;
}
);
leftKerningGroup = m;
unicode = 006D;
},
{
glyphname = n;
layers = (
{
hints = (
{
place = "{130, 131}";
},
{
place = "{669, 131}";
},
{
horizontal = 1;
place = "{813, 127}";
},
{
horizontal = 1;
place = "{0, 43}";
}
);
layerId = UUID0;
paths = (
{
closed = 1;
nodes = (
"130 748 LINE",
"130 0 LINE",
"261 0 LINE",
"261 788 LINE",
"306 807 OFFCURVE",
"360 819 OFFCURVE",
"425 819 CURVE SMOOTH",
"542 819 OFFCURVE",
"595 772 OFFCURVE",
"620 735 CURVE SMOOTH",
"654 684 OFFCURVE",
"659 600 OFFCURVE",
"659 420 CURVE SMOOTH",
"659 0 LINE",
"790 0 LINE",
"790 416 LINE SMOOTH",
"790 635 OFFCURVE",
"781 719 OFFCURVE",
"753 780 CURVE SMOOTH",
"685 922 OFFCURVE",
"538 942 OFFCURVE",
"435 942 CURVE SMOOTH",
"271 942 OFFCURVE",
"153 891 OFFCURVE",
"81 848 CURVE"
);
}
);
width = 904;
}
);
leftKerningGroup = n;
rightKerningGroup = n;
unicode = 006E;
},
{
glyphname = o;
layers = (
{
hints = (
{
place = "{111, 131}";
},
{
place = "{639, 131}";
},
{
horizontal = 1;
place = "{813, 127}";
},
{
horizontal = 1;
place = "{-18, 43}";
}
);
layerId = UUID0;
paths = (
{
closed = 1;
nodes = (
"242 547 LINE",
"242 606 OFFCURVE",
"242 692 OFFCURVE",
"283 750 CURVE SMOOTH",
"303 776 OFFCURVE",
"348 819 OFFCURVE",
"441 819 CURVE SMOOTH",
"533 819 OFFCURVE",
"578 776 OFFCURVE",
"598 750 CURVE SMOOTH",
"639 692 OFFCURVE",
"639 606 OFFCURVE",
"639 547 CURVE SMOOTH",
"639 156 LINE",
"578 113 OFFCURVE",
"500 102 OFFCURVE",
"441 102 CURVE SMOOTH",
"381 102 OFFCURVE",
"303 113 OFFCURVE",
"242 156 CURVE"
);
},
{
closed = 1;
nodes = (
"111 72 LINE",
"176 27 OFFCURVE",
"281 -20 OFFCURVE",
"441 -20 CURVE SMOOTH",
"602 -20 OFFCURVE",
"731 29 OFFCURVE",
"840 125 CURVE",
"770 209 LINE",
"770 543 LINE SMOOTH",
"770 618 OFFCURVE",
"777 754 OFFCURVE",
"686 852 CURVE SMOOTH",
"611 934 OFFCURVE",
"510 942 OFFCURVE",
"441 942 CURVE SMOOTH",
"371 942 OFFCURVE",
"271 934 OFFCURVE",
"195 852 CURVE SMOOTH",
"105 754 OFFCURVE",
"111 618 OFFCURVE",
"111 543 CURVE SMOOTH"
);
}
);
width = 883;
}
);
leftKerningGroup = o;
rightKerningGroup = o;
unicode = 006F;
},
{
glyphname = oslash;
layers = (
{
hints = (
{
place = "{115, 131}";
},
{
place = "{643, 131}";
},
{
horizontal = 1;
place = "{813, 127}";
},
{
horizontal = 1;
place = "{-18, 43}";
}
);
layerId = UUID0;
paths = (
{
closed = 1;
nodes = (
"-4 -84 LINE",
"96 -166 LINE",
"234 12 LINE",
"289 -6 OFFCURVE",
"359 -20 OFFCURVE",
"445 -20 CURVE SMOOTH",
"606 -20 OFFCURVE",
"735 29 OFFCURVE",
"844 125 CURVE",
"774 209 LINE",
"774 543 LINE SMOOTH",
"774 584 OFFCURVE",
"776 643 OFFCURVE",
"762 702 CURVE",
"908 891 LINE",
"807 973 LINE",
"703 838 LINE",
"690 852 LINE SMOOTH",
"615 934 OFFCURVE",
"514 942 OFFCURVE",
"445 942 CURVE SMOOTH",
"375 942 OFFCURVE",
"275 934 OFFCURVE",
"199 852 CURVE SMOOTH",
"109 754 OFFCURVE",
"115 618 OFFCURVE",
"115 543 CURVE SMOOTH",
"115 72 LINE"
);
},
{
closed = 1;
nodes = (
"246 547 LINE SMOOTH",
"246 606 OFFCURVE",
"246 692 OFFCURVE",
"287 750 CURVE SMOOTH",
"307 776 OFFCURVE",
"352 819 OFFCURVE",
"445 819 CURVE SMOOTH",
"537 819 OFFCURVE",
"582 776 OFFCURVE",
"602 750 CURVE",
"617 725 LINE",
"246 242 LINE"
);
},
{
closed = 1;
nodes = (
"643 156 LINE",
"582 113 OFFCURVE",
"504 102 OFFCURVE",
"445 102 CURVE SMOOTH",
"406 102 OFFCURVE",
"361 106 OFFCURVE",
"316 121 CURVE",
"643 547 LINE"
);
}
);
width = 915;
}
);
leftKerningGroup = o;
rightKerningGroup = o;
unicode = 00F8;
},
{
glyphname = oe;
layers = (
{
hints = (
{
place = "{111, 131}";
},
{
place = "{639, 131}";
},
{
place = "{639, 131}";
},
{
place = "{1526, 131}";
},
{
place = "{2057, 131}";
},
{
place = "{1469, 141}";
},
{
horizontal = 1;
place = "{813, 127}";
},
{
horizontal = 1;
place = "{-18, 43}";
},
{
horizontal = 1;
place = "{-18, 127}";
},
{
horizontal = 1;
place = "{399, 127}";
},
{
horizontal = 1;
place = "{940, -20}";
target = down;
type = TopGhost;
},
{
horizontal = 1;
place = "{422, 127}";
},
{
horizontal = 1;
place = "{813, 127}";
},
{
horizontal = 1;
place = "{-18, 43}";
},
{
horizontal = 1;
place = "{-18, 137}";
},
{
horizontal = 1;
place = "{1145, 135}";
}
);
layerId = UUID0;
paths = (
{
closed = 1;
nodes = (
"1270 424 LINE",
"1270 543 LINE SMOOTH",
"1270 618 OFFCURVE",
"1274 754 OFFCURVE",
"1188 852 CURVE SMOOTH",
"1116 934 OFFCURVE",
"1022 942 OFFCURVE",
"955 942 CURVE SMOOTH",
"867 942 OFFCURVE",
"783 918 OFFCURVE",
"703 831 CURVE",
"621 918 OFFCURVE",
"531 942 OFFCURVE",
"441 942 CURVE SMOOTH",
"371 942 OFFCURVE",
"271 934 OFFCURVE",
"195 852 CURVE SMOOTH",
"105 754 OFFCURVE",
"111 618 OFFCURVE",
"111 543 CURVE SMOOTH",
"111 72 LINE",
"176 27 OFFCURVE",
"281 -20 OFFCURVE",
"441 -20 CURVE SMOOTH",
"539 -20 OFFCURVE",
"625 0 OFFCURVE",
"705 35 CURVE",
"783 0 OFFCURVE",
"871 -20 OFFCURVE",
"979 -20 CURVE SMOOTH",
"1092 -20 OFFCURVE",
"1188 0 OFFCURVE",
"1270 49 CURVE",
"1270 186 LINE",
"1182 127 OFFCURVE",
"1094 102 OFFCURVE",
"975 102 CURVE SMOOTH",
"914 102 OFFCURVE",
"834 113 OFFCURVE",
"770 156 CURVE",
"770 424 LINE"
);
},
{
closed = 1;
nodes = (
"242 547 LINE SMOOTH",
"242 606 OFFCURVE",
"242 692 OFFCURVE",
"283 750 CURVE",
"303 776 OFFCURVE",
"348 819 OFFCURVE",
"441 819 CURVE SMOOTH",
"533 819 OFFCURVE",
"578 776 OFFCURVE",
"598 750 CURVE",
"631 702 OFFCURVE",
"637 635 OFFCURVE",
"639 580 CURVE SMOOTH",
"639 547 LINE",
"639 156 LINE",
"578 113 OFFCURVE",
"500 102 OFFCURVE",
"441 102 CURVE SMOOTH",
"381 102 OFFCURVE",
"303 113 OFFCURVE",
"242 156 CURVE"
);
},
{
closed = 1;
nodes = (
"770 547 LINE",
"770 606 OFFCURVE",
"770 692 OFFCURVE",
"805 750 CURVE",
"826 776 OFFCURVE",
"867 819 OFFCURVE",
"949 819 CURVE SMOOTH",
"1033 819 OFFCURVE",
"1073 776 OFFCURVE",
"1092 750 CURVE",
"1129 692 OFFCURVE",
"1129 606 OFFCURVE",
"1129 547 CURVE"
);
}
);
width = 1372;
}
);
leftKerningGroup = o;
rightKerningGroup = e;
unicode = 0153;
},
{
glyphname = p;
layers = (
{
hints = (
{
place = "{134, 131}";
},
{
place = "{674, 136}";
},
{
horizontal = 1;
place = "{-18, 127}";
},
{
horizontal = 1;
place = "{813, 127}";
},
{
horizontal = 1;
place = "{-432, 43}";
}
);
layerId = UUID0;
paths = (
{
closed = 1;
nodes = (
"134 743 LINE",
"134 -432 LINE",
"265 -432 LINE",
"265 4 LINE",
"322 -12 OFFCURVE",
"369 -20 OFFCURVE",
"431 -20 CURVE SMOOTH",
"685 -20 OFFCURVE",
"810 215 OFFCURVE",
"810 461 CURVE SMOOTH",
"810 707 OFFCURVE",
"705 942 OFFCURVE",
"423 942 CURVE SMOOTH",
"283 942 OFFCURVE",
"160 897 OFFCURVE",
"76 848 CURVE"
);
},
{
closed = 1;
nodes = (
"265 786 LINE",
"306 807 OFFCURVE",
"363 819 OFFCURVE",
"414 819 CURVE SMOOTH",
"623 819 OFFCURVE",
"674 625 OFFCURVE",
"674 461 CURVE SMOOTH",
"674 297 OFFCURVE",
"613 102 OFFCURVE",
"412 102 CURVE SMOOTH",
"345 102 OFFCURVE",
"294 123 OFFCURVE",
"265 135 CURVE"
);
}
);
width = 901;
}
);
rightKerningGroup = p;
unicode = 0070;
},
{
glyphname = thorn;
layers = (
{
hints = (
{
place = "{123, 131}";
},
{
place = "{663, 136}";
},
{
place = "{1243, 131}";
},
{
place = "{1784, 135}";
},
{
horizontal = 1;
place = "{-18, 127}";
},
{
horizontal = 1;
place = "{813, 127}";
},
{
horizontal = 1;
place = "{-432, 43}";
},
{
horizontal = 1;
place = "{-18, 127}";
},
{
horizontal = 1;
place = "{813, 127}";
},
{
horizontal = 1;
place = "{1341, -20}";
target = down;
type = TopGhost;
}
);
layerId = UUID0;
paths = (
{
closed = 1;
nodes = (
"123 -432 LINE",
"254 -432 LINE",
"254 4 LINE",
"311 -12 OFFCURVE",
"358 -20 OFFCURVE",
"420 -20 CURVE SMOOTH",
"674 -20 OFFCURVE",
"799 215 OFFCURVE",
"799 461 CURVE SMOOTH",
"799 707 OFFCURVE",
"694 942 OFFCURVE",
"412 942 CURVE SMOOTH",
"356 942 OFFCURVE",
"303 936 OFFCURVE",
"254 924 CURVE",
"254 1341 LINE",
"82 1341 LINE",
"123 1212 LINE"
);
},
{
closed = 1;
nodes = (
"254 786 LINE",
"295 807 OFFCURVE",
"352 819 OFFCURVE",
"403 819 CURVE SMOOTH",
"612 819 OFFCURVE",
"663 625 OFFCURVE",
"663 461 CURVE SMOOTH",
"663 297 OFFCURVE",
"602 102 OFFCURVE",
"401 102 CURVE SMOOTH",
"334 102 OFFCURVE",
"283 123 OFFCURVE",
"254 135 CURVE"
);
}
);
width = 890;
}
);
leftKerningGroup = h;
rightKerningGroup = p;
unicode = 00FE;
},
{
glyphname = q;
layers = (
{
hints = (
{
place = "{116, 131}";
},
{
place = "{644, 131}";
},
{
horizontal = 1;
place = "{0, 127}";
},
{
horizontal = 1;
place = "{813, 127}";
}
);
layerId = UUID0;
paths = (
{
closed = 1;
nodes = (
"825 848 LINE",
"741 897 OFFCURVE",
"618 942 OFFCURVE",
"478 942 CURVE SMOOTH",
"196 942 OFFCURVE",
"91 707 OFFCURVE",
"91 461 CURVE SMOOTH",
"91 215 OFFCURVE",
"216 -20 OFFCURVE",
"470 -20 CURVE SMOOTH",
"532 -20 OFFCURVE",
"579 -12 OFFCURVE",
"636 4 CURVE",
"636 -432 LINE",
"767 -432 LINE",
"767 743 LINE"
);
},
{
closed = 1;
nodes = (
"636 135 LINE",
"607 123 OFFCURVE",
"556 102 OFFCURVE",
"489 102 CURVE SMOOTH",
"288 102 OFFCURVE",
"227 297 OFFCURVE",
"227 461 CURVE SMOOTH",
"227 625 OFFCURVE",
"278 819 OFFCURVE",
"487 819 CURVE SMOOTH",
"538 819 OFFCURVE",
"595 807 OFFCURVE",
"636 786 CURVE"
);
}
);
width = 901;
}
);
leftKerningGroup = d;
unicode = 0071;
},
{
glyphname = r;
layers = (
{
hints = (
{
place = "{130, 131}";
},
{
horizontal = 1;
place = "{0, 43}";
},
{
horizontal = 1;
place = "{954, -20}";
target = down;
type = TopGhost;
}
);
layerId = UUID0;
paths = (
{
closed = 1;
nodes = (
"130 0 LINE",
"261 0 LINE",
"261 745 LINE",
"310 772 OFFCURVE",
"382 799 OFFCURVE",
"515 819 CURVE",
"492 942 LINE",
"341 920 OFFCURVE",
"191 874 OFFCURVE",
"70 774 CURVE",
"130 682 LINE"
);
}
);
width = 551;
}
);
leftKerningGroup = m;
unicode = 0072;
},
{
glyphname = s;
layers = (
{
hints = (
{
place = "{1536, -131}";
},
{
place = "{-712, 131}";
},
{
place = "{-184, 131}";
},
{
horizontal = 1;
place = "{-18, 127}";
},
{
horizontal = 1;
place = "{940, -20}";
target = down;
type = TopGhost;
},
{
horizontal = 1;
place = "{-33, 127}";
},
{
horizontal = 1;
place = "{799, 127}";
},
{
horizontal = 1;
place = "{813, 127}";
},
{
horizontal = 1;
place = "{-18, 43}";
}
);
layerId = UUID0;
paths = (
{
closed = 1;
nodes = (
"676 868 LINE",
"602 911 OFFCURVE",
"504 942 OFFCURVE",
"387 942 CURVE SMOOTH",
"203 942 OFFCURVE",
"92 842 OFFCURVE",
"92 690 CURVE SMOOTH",
"92 553 OFFCURVE",
"170 492 OFFCURVE",
"260 446 CURVE SMOOTH",
"418 369 LINE SMOOTH",
"520 317 OFFCURVE",
"547 270 OFFCURVE",
"547 188 CURVE SMOOTH",
"547 147 LINE",
"510 119 OFFCURVE",
"443 102 OFFCURVE",
"369 102 CURVE SMOOTH",
"244 102 OFFCURVE",
"168 129 OFFCURVE",
"92 162 CURVE",
"92 31 LINE",
"158 2 OFFCURVE",
"254 -20 OFFCURVE",
"373 -20 CURVE SMOOTH",
"492 -20 OFFCURVE",
"629 2 OFFCURVE",
"748 111 CURVE",
"678 195 LINE",
"678 242 LINE SMOOTH",
"678 350 OFFCURVE",
"604 422 OFFCURVE",
"486 479 CURVE SMOOTH",
"351 545 LINE SMOOTH",
"279 580 OFFCURVE",
"224 616 OFFCURVE",
"224 690 CURVE SMOOTH",
"224 786 OFFCURVE",
"297 815 OFFCURVE",
"387 815 CURVE SMOOTH",
"480 815 OFFCURVE",
"545 793 OFFCURVE",
"623 754 CURVE"
);
}
);
width = 779;
}
);
unicode = 0073;
},
{
glyphname = germandbls;
layers = (
{
hints = (
{
place = "{1546, -131}";
},
{
place = "{-702, 131}";
},
{
place = "{-174, 131}";
},
{
place = "{-192, 131}";
},
{
place = "{1172, 143}";
},
{
place = "{1786, 143}";
},
{
place = "{969, 143}";
},
{
place = "{1583, 144}";
},
{
place = "{-844, 131}";
},
{
horizontal = 1;
place = "{-18, 127}";
},
{
horizontal = 1;
place = "{940, -20}";
target = down;
type = TopGhost;
},
{
horizontal = 1;
place = "{-33, 127}";
},
{
horizontal = 1;
place = "{799, 127}";
},
{
horizontal = 1;
place = "{813, 127}";
},
{
horizontal = 1;
place = "{-18, 43}";
},
{
horizontal = 1;
place = "{-20, 40}";
},
{
horizontal = 1;
place = "{1333, 21}";
target = up;
type = BottomGhost;
},
{
horizontal = 1;
place = "{-18, 135}";
},
{
horizontal = 1;
place = "{1145, 135}";
},
{
horizontal = 1;
place = "{-18, 135}";
},
{
horizontal = 1;
place = "{1145, 135}";
},
{
horizontal = 1;
place = "{795, 127}";
},
{
horizontal = 1;
place = "{1167, -20}";
target = down;
type = TopGhost;
},
{
horizontal = 1;
place = "{-18, 43}";
}
);
layerId = UUID0;
paths = (
{
closed = 1;
nodes = (
"45 795 LINE",
"219 795 LINE",
"219 -20 LINE",
"350 -20 LINE",
"350 920 LINE SMOOTH",
"350 1092 OFFCURVE",
"449 1214 OFFCURVE",
"647 1214 CURVE SMOOTH",
"844 1214 OFFCURVE",
"946 1092 OFFCURVE",
"946 922 CURVE",
"797 922 LINE SMOOTH",
"621 922 OFFCURVE",
"514 825 OFFCURVE",
"514 680 CURVE SMOOTH",
"514 549 OFFCURVE",
"584 489 OFFCURVE",
"668 446 CURVE SMOOTH",
"823 369 LINE SMOOTH",
"922 317 OFFCURVE",
"946 270 OFFCURVE",
"946 188 CURVE SMOOTH",
"946 147 LINE",
"911 119 OFFCURVE",
"848 102 OFFCURVE",
"776 102 CURVE SMOOTH",
"657 102 OFFCURVE",
"586 129 OFFCURVE",
"514 162 CURVE",
"514 31 LINE",
"578 2 OFFCURVE",
"670 -20 OFFCURVE",
"784 -20 CURVE SMOOTH",
"897 -20 OFFCURVE",
"1032 2 OFFCURVE",
"1145 111 CURVE",
"1077 195 LINE",
"1077 242 LINE SMOOTH",
"1077 350 OFFCURVE",
"1008 422 OFFCURVE",
"893 479 CURVE SMOOTH",
"756 545 LINE SMOOTH",
"690 578 OFFCURVE",
"639 610 OFFCURVE",
"639 680 CURVE SMOOTH",
"639 766 OFFCURVE",
"703 795 OFFCURVE",
"797 795 CURVE SMOOTH",
"1077 795 LINE",
"1077 868 LINE SMOOTH",
"1077 1128 OFFCURVE",
"985 1341 OFFCURVE",
"647 1341 CURVE SMOOTH",
"350 1341 OFFCURVE",
"219 1143 OFFCURVE",
"219 922 CURVE",
"45 922 LINE"
);
}
);
width = 1181;
}
);
unicode = 00DF;
},
{
glyphname = t;
layers = (
{
hints = (
{
place = "{107, 131}";
},
{
horizontal = 1;
place = "{795, 127}";
},
{
horizontal = 1;
place = "{1167, -20}";
target = down;
type = TopGhost;
},
{
horizontal = 1;
place = "{-18, 43}";
}
);
layerId = UUID0;
paths = (
{
closed = 1;
nodes = (
"66 1167 LINE",
"107 1038 LINE",
"107 477 LINE SMOOTH",
"107 373 OFFCURVE",
"115 268 OFFCURVE",
"189 164 CURVE SMOOTH",
"240 92 OFFCURVE",
"328 23 OFFCURVE",
"408 -20 CURVE",
"486 82 LINE",
"414 125 OFFCURVE",
"320 201 OFFCURVE",
"283 264 CURVE SMOOTH",
"232 352 OFFCURVE",
"238 453 OFFCURVE",
"238 530 CURVE SMOOTH",
"238 795 LINE",
"432 795 LINE",
"432 922 LINE",
"238 922 LINE",
"238 1167 LINE"
);
}
);
width = 501;
}
);
unicode = 0074;
},
{
glyphname = u;
layers = (
{
hints = (
{
place = "{115, 131}";
},
{
place = "{642, 131}";
},
{
horizontal = 1;
place = "{-18, 127}";
},
{
horizontal = 1;
place = "{922, -20}";
target = down;
type = TopGhost;
}
);
layerId = UUID0;
paths = (
{
closed = 1;
nodes = (
"775 174 LINE",
"775 922 LINE",
"644 922 LINE",
"644 133 LINE",
"599 115 OFFCURVE",
"545 102 OFFCURVE",
"480 102 CURVE SMOOTH",
"363 102 OFFCURVE",
"310 150 OFFCURVE",
"285 186 CURVE SMOOTH",
"251 238 OFFCURVE",
"246 322 OFFCURVE",
"246 502 CURVE SMOOTH",
"246 922 LINE",
"115 922 LINE",
"115 506 LINE SMOOTH",
"115 287 OFFCURVE",
"124 203 OFFCURVE",
"152 141 CURVE SMOOTH",
"220 0 OFFCURVE",
"367 -20 OFFCURVE",
"470 -20 CURVE SMOOTH",
"634 -20 OFFCURVE",
"752 31 OFFCURVE",
"824 74 CURVE"
);
}
);
width = 905;
}
);
leftKerningGroup = u;
rightKerningGroup = u;
unicode = 0075;
},
{
glyphname = v;
layers = (
{
hints = (
{
horizontal = 1;
place = "{-18, 43}";
},
{
horizontal = 1;
place = "{946, -20}";
target = down;
type = TopGhost;
}
);
layerId = UUID0;
paths = (
{
closed = 1;
nodes = (
"45 915 LINE",
"200 256 LINE SMOOTH",
"245 70 OFFCURVE",
"327 -20 OFFCURVE",
"481 -20 CURVE SMOOTH",
"571 -20 OFFCURVE",
"643 6 OFFCURVE",
"686 35 CURVE",
"639 129 LINE",
"823 915 LINE",
"694 942 LINE",
"499 104 LINE",
"489 102 OFFCURVE",
"479 102 OFFCURVE",
"471 102 CURVE SMOOTH",
"381 106 OFFCURVE",
"350 195 OFFCURVE",
"327 287 CURVE SMOOTH",
"174 942 LINE"
);
}
);
width = 871;
}
);
unicode = 0076;
},
{
glyphname = w;
layers = (
{
hints = (
{
place = "{454, 131}";
},
{
horizontal = 1;
place = "{-18, 127}";
},
{
horizontal = 1;
place = "{946, -20}";
target = down;
type = TopGhost;
}
);
layerId = UUID0;
paths = (
{
closed = 1;
nodes = (
"61 926 LINE",
"161 276 LINE SMOOTH",
"204 16 OFFCURVE",
"389 -20 OFFCURVE",
"589 -20 CURVE SMOOTH",
"757 -20 OFFCURVE",
"923 20 OFFCURVE",
"987 55 CURVE",
"948 152 LINE",
"1069 926 LINE",
"938 942 LINE",
"813 131 LINE",
"788 119 OFFCURVE",
"692 100 OFFCURVE",
"626 102 CURVE",
"626 748 LINE",
"495 748 LINE",
"495 102 LINE",
"389 109 OFFCURVE",
"311 156 OFFCURVE",
"290 297 CURVE SMOOTH",
"192 942 LINE"
);
}
);
width = 1136;
}
);
unicode = 0077;
},
{
glyphname = x;
layers = (
{
hints = (
{
horizontal = 1;
place = "{-18, 43}";
},
{
horizontal = 1;
place = "{948, -20}";
target = down;
type = TopGhost;
}
);
layerId = UUID0;
paths = (
{
closed = 1;
nodes = (
"72 883 LINE",
"279 473 LINE",
"140 367 OFFCURVE",
"99 141 OFFCURVE",
"72 4 CURVE",
"199 -20 LINE",
"226 115 OFFCURVE",
"250 309 OFFCURVE",
"375 377 CURVE SMOOTH",
"447 416 LINE",
"666 -23 LINE",
"785 37 LINE",
"562 477 LINE",
"676 545 OFFCURVE",
"719 678 OFFCURVE",
"752 918 CURVE",
"625 942 LINE",
"588 702 OFFCURVE",
"564 621 OFFCURVE",
"468 571 CURVE SMOOTH",
"396 535 LINE",
"189 942 LINE"
);
}
);
width = 842;
}
);
unicode = 0078;
},
{
glyphname = y;
layers = (
{
background = {
paths = (
{
closed = 1;
nodes = (
"45 915 LINE",
"200 256 LINE",
"244 74 OFFCURVE",
"323 -15 OFFCURVE",
"469 -20 CURVE",
"380 -403 LINE",
"508 -433 LINE",
"823 915 LINE",
"694 942 LINE",
"499 104 LINE",
"489 102 OFFCURVE",
"479 102 OFFCURVE",
"471 102 CURVE SMOOTH",
"381 106 OFFCURVE",
"350 195 OFFCURVE",
"327 287 CURVE",
"174 942 LINE"
);
}
);
};
hints = (
{
place = "{73, 146}";
},
{
place = "{1228, 144}";
},
{
place = "{997, 131}";
},
{
place = "{1525, 131}";
},
{
place = "{-275, 148}";
},
{
place = "{-267, 131}";
},
{
place = "{-447, 147}";
},
{
place = "{-439, 131}";
},
{
horizontal = 1;
place = "{936, -20}";
target = down;
type = TopGhost;
},
{
horizontal = 1;
place = "{-430, 43}";
},
{
horizontal = 1;
place = "{-340, 43}";
},
{
horizontal = 1;
place = "{940, -20}";
target = down;
type = TopGhost;
},
{
horizontal = 1;
place = "{109, -127}";
},
{
horizontal = 1;
place = "{919, 21}";
target = up;
type = BottomGhost;
},
{
horizontal = 1;
place = "{922, 174}";
},
{
horizontal = 1;
place = "{1249, -153}";
},
{
horizontal = 1;
place = "{0, 43}";
},
{
horizontal = 1;
place = "{-18, 43}";
},
{
horizontal = 1;
place = "{946, -20}";
target = down;
type = TopGhost;
},
{
horizontal = 1;
place = "{922, 174}";
},
{
horizontal = 1;
place = "{1249, -153}";
},
{
horizontal = 1;
place = "{0, 43}";
}
);
layerId = UUID0;
paths = (
{
closed = 1;
nodes = (
"45 915 LINE",
"200 256 LINE",
"244 74 OFFCURVE",
"323 -15 OFFCURVE",
"469 -20 CURVE",
"380 -403 LINE",
"508 -433 LINE",
"823 915 LINE",
"694 942 LINE",
"499 104 LINE",
"489 102 OFFCURVE",
"479 102 OFFCURVE",
"471 102 CURVE SMOOTH",
"381 106 OFFCURVE",
"350 195 OFFCURVE",
"327 287 CURVE",
"174 942 LINE"
);
}
);
width = 869;
}
);
leftKerningGroup = y;
rightKerningGroup = y;
unicode = 0079;
},
{
glyphname = z;
layers = (
{
hints = (
{
horizontal = 1;
place = "{0, 127}";
},
{
horizontal = 1;
place = "{813, 127}";
}
);
layerId = UUID0;
paths = (
{
closed = 1;
nodes = (
"659 922 LINE",
"94 922 LINE",
"94 795 LINE",
"448 795 LINE",
"51 0 LINE",
"659 0 LINE",
"659 127 LINE",
"260 127 LINE"
);
}
);
width = 730;
}
);
unicode = 007A;
},
{
glyphname = ordfeminine;
layers = (
{
hints = (
{
place = "{71, 135}";
},
{
place = "{581, 131}";
},
{
place = "{1026, 147}";
},
{
place = "{1034, 131}";
},
{
horizontal = 1;
place = "{-18, 116}";
},
{
horizontal = 1;
place = "{485, 127}";
},
{
horizontal = 1;
place = "{948, -20}";
target = down;
type = TopGhost;
},
{
horizontal = 1;
place = "{922, 174}";
},
{
horizontal = 1;
place = "{1249, -153}";
},
{
horizontal = 1;
place = "{0, 43}";
}
);
layerId = UUID0;
paths = (
{
closed = 1;
nodes = (
"161 1178 LINE",
"245 1176 OFFCURVE",
"354 1153 OFFCURVE",
"364 1075 CURVE",
"221 1073 OFFCURVE",
"71 1036 OFFCURVE",
"71 856 CURVE SMOOTH",
"71 799 OFFCURVE",
"94 752 OFFCURVE",
"124 723 CURVE SMOOTH",
"153 692 OFFCURVE",
"202 668 OFFCURVE",
"288 668 CURVE SMOOTH",
"356 668 OFFCURVE",
"434 684 OFFCURVE",
"514 731 CURVE",
"481 784 LINE",
"481 1053 LINE SMOOTH",
"481 1241 OFFCURVE",
"317 1282 OFFCURVE",
"172 1282 CURVE"
);
},
{
closed = 1;
nodes = (
"364 797 LINE",
"339 788 OFFCURVE",
"315 780 OFFCURVE",
"282 780 CURVE SMOOTH",
"253 780 OFFCURVE",
"225 786 OFFCURVE",
"204 807 CURVE SMOOTH",
"192 819 OFFCURVE",
"182 840 OFFCURVE",
"182 868 CURVE SMOOTH",
"182 961 OFFCURVE",
"301 969 OFFCURVE",
"364 969 CURVE"
);
}
);
width = 591;
}
);
unicode = 00AA;
},
{
glyphname = ordmasculine;
layers = (
{
hints = (
{
place = "{92, 90}";
},
{
place = "{430, 90}";
},
{
place = "{454, 90}";
},
{
place = "{790, 90}";
},
{
place = "{100, 131}";
},
{
place = "{628, 131}";
},
{
horizontal = 1;
place = "{-18, 81}";
},
{
horizontal = 1;
place = "{455, 82}";
},
{
horizontal = 1;
place = "{821, 82}";
},
{
horizontal = 1;
place = "{1292, 84}";
},
{
horizontal = 1;
place = "{813, 127}";
},
{
horizontal = 1;
place = "{-18, 43}";
}
);
layerId = UUID0;
paths = (
{
closed = 1;
nodes = (
"477 1053 LINE SMOOTH",
"477 1096 OFFCURVE",
"479 1174 OFFCURVE",
"428 1231 CURVE SMOOTH",
"385 1278 OFFCURVE",
"327 1282 OFFCURVE",
"286 1282 CURVE SMOOTH",
"247 1282 OFFCURVE",
"190 1278 OFFCURVE",
"145 1231 CURVE SMOOTH",
"94 1174 OFFCURVE",
"98 1096 OFFCURVE",
"98 1053 CURVE SMOOTH",
"98 897 LINE SMOOTH",
"98 854 OFFCURVE",
"94 776 OFFCURVE",
"145 719 CURVE SMOOTH",
"190 672 OFFCURVE",
"247 668 OFFCURVE",
"286 668 CURVE SMOOTH",
"327 668 OFFCURVE",
"385 672 OFFCURVE",
"428 719 CURVE SMOOTH",
"479 776 OFFCURVE",
"477 854 OFFCURVE",
"477 897 CURVE SMOOTH"
);
},
{
closed = 1;
nodes = (
"208 1063 LINE SMOOTH",
"208 1087 OFFCURVE",
"208 1120 OFFCURVE",
"225 1141 CURVE SMOOTH",
"233 1149 OFFCURVE",
"251 1169 OFFCURVE",
"286 1169 CURVE SMOOTH",
"321 1169 OFFCURVE",
"340 1149 OFFCURVE",
"346 1141 CURVE SMOOTH",
"360 1120 OFFCURVE",
"360 1087 OFFCURVE",
"360 1063 CURVE SMOOTH",
"360 887 LINE SMOOTH",
"360 862 OFFCURVE",
"360 829 OFFCURVE",
"346 809 CURVE SMOOTH",
"340 801 OFFCURVE",
"321 780 OFFCURVE",
"286 780 CURVE SMOOTH",
"251 780 OFFCURVE",
"233 801 OFFCURVE",
"225 809 CURVE SMOOTH",
"208 829 OFFCURVE",
"208 862 OFFCURVE",
"208 887 CURVE SMOOTH"
);
}
);
width = 574;
}
);
unicode = 00BA;
},
{
glyphname = zero;
layers = (
{
hints = (
{
place = "{130, 131}";
},
{
place = "{683, 131}";
},
{
place = "{128, 143}";
},
{
place = "{742, 144}";
},
{
horizontal = 1;
place = "{-18, 127}";
},
{
horizontal = 1;
place = "{1143, 127}";
},
{
horizontal = 1;
place = "{-18, 135}";
},
{
horizontal = 1;
place = "{1145, 135}";
}
);
layerId = UUID0;
paths = (
{
closed = 1;
nodes = (
"394 111 OFFCURVE",
"327 131 OFFCURVE",
"273 174 CURVE",
"273 829 LINE SMOOTH",
"273 1016 OFFCURVE",
"316 1151 OFFCURVE",
"478 1151 CURVE SMOOTH",
"640 1151 OFFCURVE",
"683 1016 OFFCURVE",
"683 829 CURVE SMOOTH",
"683 174 LINE",
"630 131 OFFCURVE",
"562 111 OFFCURVE",
"478 111 CURVE SMOOTH"
);
},
{
closed = 1;
nodes = (
"214 1282 OFFCURVE",
"130 1090 OFFCURVE",
"130 829 CURVE SMOOTH",
"130 94 LINE",
"185 49 OFFCURVE",
"296 -20 OFFCURVE",
"478 -20 CURVE SMOOTH",
"681 -20 OFFCURVE",
"812 68 OFFCURVE",
"894 145 CURVE",
"826 240 LINE",
"826 829 LINE SMOOTH",
"826 1090 OFFCURVE",
"742 1282 OFFCURVE",
"478 1282 CURVE SMOOTH"
);
}
);
width = 971;
}
);
unicode = 0030;
},
{
glyphname = one;
layers = (
{
hints = (
{
place = "{147, 131}";
},
{
place = "{452, 148}";
},
{
place = "{461, 131}";
},
{
horizontal = 1;
place = "{0, 43}";
},
{
horizontal = 1;
place = "{1280, -20}";
target = down;
type = TopGhost;
},
{
horizontal = 1;
place = "{922, 174}";
},
{
horizontal = 1;
place = "{1249, -153}";
},
{
horizontal = 1;
place = "{0, 43}";
}
);
layerId = UUID0;
paths = (
{
closed = 1;
nodes = (
"104 1262 LINE",
"147 1128 LINE",
"147 0 LINE",
"291 0 LINE",
"291 1262 LINE"
);
}
);
width = 435;
}
);
unicode = 0031;
},
{
glyphname = two;
layers = (
{
hints = (
{
place = "{41, 143}";
},
{
place = "{1427, -143}";
},
{
place = "{862, 143}";
},
{
horizontal = 1;
place = "{0, 127}";
},
{
horizontal = 1;
place = "{1280, -20}";
target = down;
type = TopGhost;
},
{
horizontal = 1;
place = "{-14, 135}";
},
{
horizontal = 1;
place = "{1149, 135}";
},
{
horizontal = 1;
place = "{-18, 137}";
},
{
horizontal = 1;
place = "{1145, 135}";
},
{
horizontal = 1;
place = "{0, 43}";
},
{
horizontal = 1;
place = "{1262, -20}";
target = down;
type = TopGhost;
}
);
layerId = UUID0;
paths = (
{
closed = 1;
nodes = (
"274 1151 OFFCURVE",
"209 1137 OFFCURVE",
"141 1102 CURVE",
"90 1223 LINE",
"166 1264 OFFCURVE",
"237 1282 OFFCURVE",
"336 1282 CURVE SMOOTH",
"540 1282 OFFCURVE",
"665 1159 OFFCURVE",
"665 963 CURVE SMOOTH",
"665 862 OFFCURVE",
"620 774 OFFCURVE",
"571 684 CURVE SMOOTH",
"262 131 LINE",
"673 131 LINE",
"673 0 LINE",
"34 0 LINE",
"462 770 LINE SMOOTH",
"503 844 OFFCURVE",
"522 899 OFFCURVE",
"522 967 CURVE SMOOTH",
"522 1073 OFFCURVE",
"454 1151 OFFCURVE",
"327 1151 CURVE SMOOTH"
);
}
);
width = 766;
}
);
unicode = 0032;
},
{
glyphname = three;
layers = (
{
hints = (
{
place = "{488, 135}";
},
{
place = "{-353, 143}";
},
{
horizontal = 1;
place = "{-70, 43}";
},
{
horizontal = 1;
place = "{1280, -20}";
target = down;
type = TopGhost;
},
{
horizontal = 1;
place = "{0, 43}";
},
{
horizontal = 1;
place = "{1262, -20}";
target = down;
type = TopGhost;
}
);
layerId = UUID0;
paths = (
{
closed = 1;
nodes = (
"419 1130 LINE",
"144 662 LINE",
"339 662 LINE SMOOTH",
"474 662 OFFCURVE",
"519 594 OFFCURVE",
"519 510 CURVE SMOOTH",
"519 315 OFFCURVE",
"337 190 OFFCURVE",
"81 111 CURVE",
"134 -23 LINE",
"423 72 OFFCURVE",
"662 233 OFFCURVE",
"662 514 CURVE SMOOTH",
"662 692 OFFCURVE",
"554 793 OFFCURVE",
"378 793 CURVE",
"652 1262 LINE",
"91 1262 LINE",
"91 1130 LINE"
);
}
);
width = 746;
}
);
unicode = 0033;
},
{
glyphname = four;
layers = (
{
hints = (
{
place = "{549, 131}";
},
{
place = "{1038, 135}";
},
{
place = "{1491, 131}";
},
{
horizontal = 1;
place = "{367, 127}";
},
{
horizontal = 1;
place = "{1262, -20}";
target = down;
type = TopGhost;
},
{
horizontal = 1;
place = "{0, 43}";
},
{
horizontal = 1;
place = "{557, 127}";
},
{
horizontal = 1;
place = "{1135, 127}";
},
{
horizontal = 1;
place = "{-23, 43}";
}
);
layerId = UUID0;
paths = (
{
closed = 1;
nodes = (
"405 793 LINE",
"270 793 OFFCURVE",
"205 866 OFFCURVE",
"205 1001 CURVE SMOOTH",
"205 1262 LINE",
"69 1262 LINE",
"69 1001 LINE SMOOTH",
"69 788 OFFCURVE",
"194 662 OFFCURVE",
"409 662 CURVE SMOOTH",
"549 662 LINE",
"549 0 LINE",
"692 0 LINE",
"692 662 LINE",
"833 662 LINE",
"794 793 LINE",
"692 793 LINE",
"692 1262 LINE",
"549 1262 LINE",
"549 793 LINE"
);
}
);
width = 882;
}
);
unicode = 0034;
},
{
glyphname = five;
layers = (
{
hints = (
{
place = "{187, 131}";
},
{
place = "{537, 135}";
},
{
place = "{1336, -131}";
},
{
horizontal = 1;
place = "{1135, 127}";
},
{
horizontal = 1;
place = "{-74, 43}";
},
{
horizontal = 1;
place = "{1305, -20}";
target = down;
type = TopGhost;
},
{
horizontal = 1;
place = "{-18, 127}";
},
{
horizontal = 1;
place = "{813, 127}";
}
);
layerId = UUID0;
paths = (
{
closed = 1;
nodes = (
"125 1262 LINE",
"125 662 LINE",
"324 662 LINE SMOOTH",
"469 662 OFFCURVE",
"537 627 OFFCURVE",
"537 502 CURVE SMOOTH",
"537 319 OFFCURVE",
"355 190 OFFCURVE",
"99 111 CURVE",
"152 -23 LINE",
"441 72 OFFCURVE",
"680 244 OFFCURVE",
"680 514 CURVE SMOOTH",
"680 713 OFFCURVE",
"549 793 OFFCURVE",
"351 793 CURVE SMOOTH",
"256 793 LINE",
"256 1130 LINE",
"652 1130 LINE",
"652 1305 LINE",
"519 1262 LINE"
);
}
);
width = 765;
}
);
unicode = 0035;
},
{
glyphname = six;
layers = (
{
hints = (
{
place = "{149, 131}";
},
{
place = "{597, 135}";
},
{
place = "{833, -131}";
},
{
place = "{280, -131}";
},
{
place = "{138, 144}";
},
{
place = "{540, 143}";
},
{
place = "{700, 147}";
},
{
place = "{1560, -135}";
},
{
place = "{1050, -131}";
},
{
horizontal = 1;
place = "{0, 127}";
},
{
horizontal = 1;
place = "{578, 127}";
},
{
horizontal = 1;
place = "{1284, -20}";
target = down;
type = TopGhost;
},
{
horizontal = 1;
place = "{-18, 127}";
},
{
horizontal = 1;
place = "{1143, 127}";
},
{
horizontal = 1;
place = "{-16, 135}";
},
{
horizontal = 1;
place = "{614, 136}";
},
{
horizontal = 1;
place = "{1145, 135}";
},
{
horizontal = 1;
place = "{-18, 116}";
},
{
horizontal = 1;
place = "{485, 127}";
},
{
horizontal = 1;
place = "{948, -20}";
target = down;
type = TopGhost;
}
);
layerId = UUID0;
paths = (
{
closed = 1;
nodes = (
"624 1282 LINE",
"351 1194 OFFCURVE",
"136 1077 OFFCURVE",
"136 795 CURVE SMOOTH",
"136 131 LINE",
"61 0 LINE",
"392 0 LINE SMOOTH",
"612 0 OFFCURVE",
"769 145 OFFCURVE",
"769 381 CURVE SMOOTH",
"769 700 OFFCURVE",
"501 772 OFFCURVE",
"280 793 CURVE",
"280 1030 OFFCURVE",
"456 1069 OFFCURVE",
"675 1151 CURVE"
);
},
{
closed = 1;
nodes = (
"280 662 LINE",
"468 645 OFFCURVE",
"626 578 OFFCURVE",
"626 381 CURVE SMOOTH",
"626 201 OFFCURVE",
"507 131 OFFCURVE",
"362 131 CURVE SMOOTH",
"280 131 LINE"
);
}
);
width = 844;
}
);
unicode = 0036;
},
{
glyphname = seven;
layers = (
{
hints = (
{
place = "{120, 144}";
},
{
horizontal = 1;
place = "{1135, 127}";
},
{
horizontal = 1;
place = "{0, 43}";
},
{
horizontal = 1;
place = "{0, 43}";
},
{
horizontal = 1;
place = "{1262, -20}";
target = down;
type = TopGhost;
}
);
layerId = UUID0;
paths = (
{
closed = 1;
nodes = (
"59 1262 LINE",
"59 1130 LINE",
"477 1130 LINE",
"110 23 LINE",
"241 -20 LINE",
"665 1262 LINE"
);
}
);
width = 693;
}
);
unicode = 0037;
},
{
glyphname = eight;
layers = (
{
hints = (
{
place = "{102, 131}";
},
{
place = "{614, 131}";
},
{
horizontal = 1;
place = "{-18, 127}";
},
{
horizontal = 1;
place = "{1280, -20}";
target = down;
type = TopGhost;
}
);
layerId = UUID0;
paths = (
{
closed = 1;
nodes = (
"413 805 OFFCURVE",
"362 844 OFFCURVE",
"335 874 CURVE SMOOTH",
"305 913 OFFCURVE",
"290 963 OFFCURVE",
"290 1010 CURVE SMOOTH",
"290 1098 OFFCURVE",
"364 1151 OFFCURVE",
"442 1151 CURVE SMOOTH",
"530 1151 OFFCURVE",
"596 1096 OFFCURVE",
"596 1010 CURVE SMOOTH",
"596 963 OFFCURVE",
"583 913 OFFCURVE",
"548 874 CURVE SMOOTH",
"522 844 OFFCURVE",
"473 805 OFFCURVE",
"442 786 CURVE"
);
},
{
closed = 1;
nodes = (
"610 -20 OFFCURVE",
"745 33 OFFCURVE",
"866 145 CURVE",
"798 240 LINE",
"798 375 LINE SMOOTH",
"798 518 OFFCURVE",
"714 635 OFFCURVE",
"583 731 CURVE",
"684 805 OFFCURVE",
"739 891 OFFCURVE",
"739 1006 CURVE SMOOTH",
"739 1180 OFFCURVE",
"600 1282 OFFCURVE",
"442 1282 CURVE SMOOTH",
"272 1282 OFFCURVE",
"147 1167 OFFCURVE",
"147 1006 CURVE SMOOTH",
"147 891 OFFCURVE",
"204 805 OFFCURVE",
"305 731 CURVE",
"172 635 OFFCURVE",
"102 518 OFFCURVE",
"102 375 CURVE SMOOTH",
"102 94 LINE",
"190 16 OFFCURVE",
"329 -20 OFFCURVE",
"448 -20 CURVE"
);
},
{
closed = 1;
nodes = (
"587 586 OFFCURVE",
"655 479 OFFCURVE",
"655 322 CURVE SMOOTH",
"655 174 LINE",
"600 127 OFFCURVE",
"522 111 OFFCURVE",
"448 111 CURVE SMOOTH",
"381 111 OFFCURVE",
"303 127 OFFCURVE",
"245 174 CURVE",
"245 322 LINE SMOOTH",
"245 479 OFFCURVE",
"315 586 OFFCURVE",
"448 666 CURVE"
);
}
);
width = 917;
}
);
unicode = 0038;
},
{
glyphname = nine;
layers = (
{
hints = (
{
place = "{95, 135}";
},
{
place = "{548, 131}";
},
{
horizontal = 1;
place = "{557, 127}";
},
{
horizontal = 1;
place = "{1135, 127}";
},
{
horizontal = 1;
place = "{-23, 43}";
}
);
layerId = UUID0;
paths = (
{
closed = 1;
nodes = (
"228 -20 LINE",
"472 57 OFFCURVE",
"710 254 OFFCURVE",
"716 662 CURVE",
"816 662 LINE",
"716 793 LINE",
"716 1262 LINE",
"439 1262 LINE SMOOTH",
"226 1262 OFFCURVE",
"91 1137 OFFCURVE",
"91 922 CURVE SMOOTH",
"91 662 LINE",
"572 662 LINE",
"562 330 OFFCURVE",
"394 174 OFFCURVE",
"175 113 CURVE"
);
},
{
closed = 1;
nodes = (
"572 793 LINE",
"234 793 LINE",
"234 926 LINE SMOOTH",
"234 1061 OFFCURVE",
"304 1130 OFFCURVE",
"439 1130 CURVE SMOOTH",
"572 1130 LINE"
);
}
);
width = 856;
}
);
unicode = 0039;
},
{
glyphname = onesuperior;
layers = (
{
hints = (
{
place = "{-12, 90}";
},
{
place = "{326, 90}";
},
{
place = "{350, 90}";
},
{
place = "{686, 90}";
},
{
place = "{-4, 131}";
},
{
place = "{524, 131}";
},
{
place = "{227, 131}";
},
{
place = "{533, 147}";
},
{
place = "{541, 131}";
},
{
place = "{190, 60}";
},
{
place = "{412, 61}";
},
{
place = "{616, 60}";
},
{
horizontal = 1;
place = "{-18, 81}";
},
{
horizontal = 1;
place = "{455, 82}";
},
{
horizontal = 1;
place = "{821, 82}";
},
{
horizontal = 1;
place = "{1292, 84}";
},
{
horizontal = 1;
place = "{813, 127}";
},
{
horizontal = 1;
place = "{-18, 43}";
},
{
horizontal = 1;
place = "{0, 43}";
},
{
horizontal = 1;
place = "{1280, -20}";
target = down;
type = TopGhost;
},
{
horizontal = 1;
place = "{922, 174}";
},
{
horizontal = 1;
place = "{1249, -153}";
},
{
horizontal = 1;
place = "{0, 43}";
},
{
horizontal = 1;
place = "{854, 59}";
},
{
horizontal = 1;
place = "{1262, -19}";
},
{
horizontal = 1;
place = "{688, 21}";
},
{
horizontal = 1;
place = "{942, 57}";
},
{
horizontal = 1;
place = "{1204, 58}";
},
{
horizontal = 1;
place = "{678, 20}";
}
);
layerId = UUID0;
paths = (
{
closed = 1;
nodes = (
"80 1262 LINE",
"123 1128 LINE",
"123 688 LINE",
"240 688 LINE",
"240 1262 LINE"
);
}
);
width = 356;
}
);
unicode = 00B9;
},
{
glyphname = twosuperior;
layers = (
{
hints = (
{
place = "{32, 90}";
},
{
place = "{370, 90}";
},
{
place = "{394, 90}";
},
{
place = "{730, 90}";
},
{
place = "{40, 131}";
},
{
place = "{568, 131}";
},
{
place = "{271, 131}";
},
{
place = "{577, 147}";
},
{
place = "{585, 131}";
},
{
place = "{234, 60}";
},
{
place = "{456, 61}";
},
{
place = "{660, 60}";
},
{
place = "{599, 143}";
},
{
place = "{1986, -144}";
},
{
place = "{1420, 144}";
},
{
horizontal = 1;
place = "{-18, 81}";
},
{
horizontal = 1;
place = "{455, 82}";
},
{
horizontal = 1;
place = "{821, 82}";
},
{
horizontal = 1;
place = "{1292, 84}";
},
{
horizontal = 1;
place = "{813, 127}";
},
{
horizontal = 1;
place = "{-18, 43}";
},
{
horizontal = 1;
place = "{0, 43}";
},
{
horizontal = 1;
place = "{1280, -20}";
target = down;
type = TopGhost;
},
{
horizontal = 1;
place = "{922, 174}";
},
{
horizontal = 1;
place = "{1249, -153}";
},
{
horizontal = 1;
place = "{0, 43}";
},
{
horizontal = 1;
place = "{854, 59}";
},
{
horizontal = 1;
place = "{1262, -19}";
},
{
horizontal = 1;
place = "{688, 21}";
},
{
horizontal = 1;
place = "{942, 57}";
},
{
horizontal = 1;
place = "{1204, 58}";
},
{
horizontal = 1;
place = "{678, 20}";
},
{
horizontal = 1;
place = "{0, 127}";
},
{
horizontal = 1;
place = "{1280, -20}";
target = down;
type = TopGhost;
},
{
horizontal = 1;
place = "{-14, 135}";
},
{
horizontal = 1;
place = "{1149, 135}";
},
{
horizontal = 1;
place = "{-18, 137}";
},
{
horizontal = 1;
place = "{1145, 135}";
},
{
horizontal = 1;
place = "{0, 43}";
},
{
horizontal = 1;
place = "{1262, -20}";
target = down;
type = TopGhost;
}
);
layerId = UUID0;
paths = (
{
closed = 1;
nodes = (
"181 1169 OFFCURVE",
"157 1163 OFFCURVE",
"124 1149 CURVE",
"87 1245 LINE",
"130 1270 OFFCURVE",
"181 1282 OFFCURVE",
"228 1282 CURVE SMOOTH",
"339 1282 OFFCURVE",
"400 1221 OFFCURVE",
"400 1120 CURVE SMOOTH",
"400 1065 OFFCURVE",
"378 1018 OFFCURVE",
"351 969 CURVE SMOOTH",
"261 801 LINE",
"411 801 LINE",
"411 688 LINE",
"75 688 LINE",
"257 1038 LINE SMOOTH",
"269 1063 OFFCURVE",
"280 1083 OFFCURVE",
"280 1108 CURVE SMOOTH",
"280 1145 OFFCURVE",
"255 1169 OFFCURVE",
"208 1169 CURVE SMOOTH"
);
}
);
width = 508;
}
);
unicode = 00B2;
},
{
glyphname = threesuperior;
layers = (
{
hints = (
{
place = "{38, 90}";
},
{
place = "{376, 90}";
},
{
place = "{400, 90}";
},
{
place = "{736, 90}";
},
{
place = "{46, 131}";
},
{
place = "{574, 131}";
},
{
place = "{277, 131}";
},
{
place = "{583, 147}";
},
{
place = "{591, 131}";
},
{
place = "{240, 60}";
},
{
place = "{462, 61}";
},
{
place = "{666, 60}";
},
{
place = "{298, 63}";
},
{
place = "{-89, 65}";
},
{
horizontal = 1;
place = "{-18, 81}";
},
{
horizontal = 1;
place = "{455, 82}";
},
{
horizontal = 1;
place = "{821, 82}";
},
{
horizontal = 1;
place = "{1292, 84}";
},
{
horizontal = 1;
place = "{813, 127}";
},
{
horizontal = 1;
place = "{-18, 43}";
},
{
horizontal = 1;
place = "{0, 43}";
},
{
horizontal = 1;
place = "{1280, -20}";
target = down;
type = TopGhost;
},
{
horizontal = 1;
place = "{922, 174}";
},
{
horizontal = 1;
place = "{1249, -153}";
},
{
horizontal = 1;
place = "{0, 43}";
},
{
horizontal = 1;
place = "{854, 59}";
},
{
horizontal = 1;
place = "{1262, -19}";
},
{
horizontal = 1;
place = "{688, 21}";
},
{
horizontal = 1;
place = "{942, 57}";
},
{
horizontal = 1;
place = "{1204, 58}";
},
{
horizontal = 1;
place = "{678, 20}";
},
{
horizontal = 1;
place = "{645, 21}";
},
{
horizontal = 1;
place = "{1270, -19}";
},
{
horizontal = 1;
place = "{678, 20}";
},
{
horizontal = 1;
place = "{1262, -19}";
}
);
layerId = UUID0;
paths = (
{
closed = 1;
nodes = (
"218 1149 LINE",
"120 961 LINE",
"214 961 LINE SMOOTH",
"267 961 OFFCURVE",
"281 936 OFFCURVE",
"281 907 CURVE SMOOTH",
"281 842 OFFCURVE",
"197 797 OFFCURVE",
"95 770 CURVE",
"136 668 LINE",
"269 711 OFFCURVE",
"398 774 OFFCURVE",
"398 915 CURVE SMOOTH",
"398 1004 OFFCURVE",
"351 1044 OFFCURVE",
"288 1063 CURVE",
"394 1262 LINE",
"87 1262 LINE",
"87 1149 LINE"
);
}
);
width = 477;
}
);
unicode = 00B3;
},
{
glyphname = foursuperior;
layers = (
{
hints = (
{
place = "{62, 90}";
},
{
place = "{400, 90}";
},
{
place = "{424, 90}";
},
{
place = "{760, 90}";
},
{
place = "{70, 131}";
},
{
place = "{598, 131}";
},
{
place = "{301, 131}";
},
{
place = "{607, 147}";
},
{
place = "{615, 131}";
},
{
place = "{264, 60}";
},
{
place = "{486, 61}";
},
{
place = "{690, 60}";
},
{
place = "{629, 143}";
},
{
place = "{2016, -144}";
},
{
place = "{1450, 144}";
},
{
horizontal = 1;
place = "{-18, 81}";
},
{
horizontal = 1;
place = "{455, 82}";
},
{
horizontal = 1;
place = "{821, 82}";
},
{
horizontal = 1;
place = "{1292, 84}";
},
{
horizontal = 1;
place = "{813, 127}";
},
{
horizontal = 1;
place = "{-18, 43}";
},
{
horizontal = 1;
place = "{0, 43}";
},
{
horizontal = 1;
place = "{1280, -20}";
target = down;
type = TopGhost;
},
{
horizontal = 1;
place = "{922, 174}";
},
{
horizontal = 1;
place = "{1249, -153}";
},
{
horizontal = 1;
place = "{0, 43}";
},
{
horizontal = 1;
place = "{854, 59}";
},
{
horizontal = 1;
place = "{1262, -19}";
},
{
horizontal = 1;
place = "{688, 21}";
},
{
horizontal = 1;
place = "{942, 57}";
},
{
horizontal = 1;
place = "{1204, 58}";
},
{
horizontal = 1;
place = "{678, 20}";
},
{
horizontal = 1;
place = "{0, 127}";
},
{
horizontal = 1;
place = "{1280, -20}";
target = down;
type = TopGhost;
},
{
horizontal = 1;
place = "{-14, 135}";
},
{
horizontal = 1;
place = "{1149, 135}";
},
{
horizontal = 1;
place = "{-18, 137}";
},
{
horizontal = 1;
place = "{1145, 135}";
},
{
horizontal = 1;
place = "{0, 43}";
},
{
horizontal = 1;
place = "{1262, -20}";
target = down;
type = TopGhost;
}
);
layerId = UUID0;
paths = (
{
closed = 1;
nodes = (
"258 1073 LINE SMOOTH",
"201 1073 OFFCURVE",
"170 1106 OFFCURVE",
"170 1165 CURVE SMOOTH",
"170 1262 LINE",
"62 1262 LINE",
"62 1147 LINE SMOOTH",
"62 1030 OFFCURVE",
"127 961 OFFCURVE",
"246 961 CURVE SMOOTH",
"324 961 LINE",
"324 688 LINE",
"441 688 LINE",
"441 961 LINE",
"561 961 LINE",
"531 1073 LINE",
"441 1073 LINE",
"441 1262 LINE",
"324 1262 LINE",
"324 1073 LINE"
);
}
);
width = 612;
}
);
unicode = 2074;
},
{
glyphname = fraction;
layers = (
{
hints = (
{
place = "{-196, 90}";
},
{
place = "{142, 90}";
},
{
place = "{167, 90}";
},
{
place = "{502, 91}";
},
{
place = "{-188, 131}";
},
{
place = "{341, 131}";
},
{
place = "{44, 131}";
},
{
place = "{351, 145}";
},
{
place = "{357, 131}";
},
{
place = "{7, 59}";
},
{
place = "{228, 61}";
},
{
place = "{433, 59}";
},
{
horizontal = 1;
place = "{-18, 81}";
},
{
horizontal = 1;
place = "{455, 82}";
},
{
horizontal = 1;
place = "{821, 82}";
},
{
horizontal = 1;
place = "{1292, 84}";
},
{
horizontal = 1;
place = "{813, 127}";
},
{
horizontal = 1;
place = "{-18, 43}";
},
{
horizontal = 1;
place = "{0, 43}";
},
{
horizontal = 1;
place = "{1280, -20}";
target = down;
type = TopGhost;
},
{
horizontal = 1;
place = "{922, 174}";
},
{
horizontal = 1;
place = "{1249, -153}";
},
{
horizontal = 1;
place = "{0, 43}";
},
{
horizontal = 1;
place = "{854, 59}";
},
{
horizontal = 1;
place = "{1262, -19}";
},
{
horizontal = 1;
place = "{688, 21}";
},
{
horizontal = 1;
place = "{942, 57}";
},
{
horizontal = 1;
place = "{1204, 58}";
},
{
horizontal = 1;
place = "{678, 20}";
}
);
layerId = UUID0;
paths = (
{
closed = 1;
nodes = (
"19 23 LINE",
"142 -20 LINE",
"595 1239 LINE",
"472 1282 LINE"
);
}
);
width = 614;
}
);
unicode = 2044;
},
{
glyphname = onehalf;
layers = (
{
hints = (
{
place = "{-26, 90}";
},
{
place = "{312, 90}";
},
{
place = "{336, 90}";
},
{
place = "{672, 90}";
},
{
place = "{-18, 131}";
},
{
place = "{510, 131}";
},
{
place = "{213, 131}";
},
{
place = "{519, 147}";
},
{
place = "{527, 131}";
},
{
place = "{176, 60}";
},
{
place = "{398, 61}";
},
{
place = "{602, 60}";
},
{
place = "{541, 143}";
},
{
place = "{1928, -144}";
},
{
place = "{1362, 144}";
},
{
horizontal = 1;
place = "{-18, 81}";
},
{
horizontal = 1;
place = "{455, 82}";
},
{
horizontal = 1;
place = "{821, 82}";
},
{
horizontal = 1;
place = "{1292, 84}";
},
{
horizontal = 1;
place = "{813, 127}";
},
{
horizontal = 1;
place = "{-18, 43}";
},
{
horizontal = 1;
place = "{0, 43}";
},
{
horizontal = 1;
place = "{1280, -20}";
target = down;
type = TopGhost;
},
{
horizontal = 1;
place = "{922, 174}";
},
{
horizontal = 1;
place = "{1249, -153}";
},
{
horizontal = 1;
place = "{0, 43}";
},
{
horizontal = 1;
place = "{854, 59}";
},
{
horizontal = 1;
place = "{1262, -19}";
},
{
horizontal = 1;
place = "{688, 21}";
},
{
horizontal = 1;
place = "{942, 57}";
},
{
horizontal = 1;
place = "{1204, 58}";
},
{
horizontal = 1;
place = "{678, 20}";
},
{
horizontal = 1;
place = "{0, 127}";
},
{
horizontal = 1;
place = "{1280, -20}";
target = down;
type = TopGhost;
},
{
horizontal = 1;
place = "{-14, 135}";
},
{
horizontal = 1;
place = "{1149, 135}";
},
{
horizontal = 1;
place = "{-18, 137}";
},
{
horizontal = 1;
place = "{1145, 135}";
},
{
horizontal = 1;
place = "{0, 43}";
},
{
horizontal = 1;
place = "{1262, -20}";
target = down;
type = TopGhost;
}
);
layerId = UUID0;
paths = (
{
closed = 1;
nodes = (
"189 23 LINE",
"312 -20 LINE",
"764 1239 LINE",
"641 1282 LINE"
);
},
{
closed = 1;
nodes = (
"66 1262 LINE",
"109 1128 LINE",
"109 688 LINE",
"226 688 LINE",
"226 1262 LINE"
);
},
{
closed = 1;
nodes = (
"756 481 OFFCURVE",
"731 475 OFFCURVE",
"699 461 CURVE",
"662 557 LINE",
"705 582 OFFCURVE",
"756 594 OFFCURVE",
"803 594 CURVE SMOOTH",
"914 594 OFFCURVE",
"975 532 OFFCURVE",
"975 432 CURVE SMOOTH",
"975 377 OFFCURVE",
"953 330 OFFCURVE",
"926 281 CURVE SMOOTH",
"836 113 LINE",
"985 113 LINE",
"985 0 LINE",
"650 0 LINE",
"832 350 LINE SMOOTH",
"844 375 OFFCURVE",
"854 395 OFFCURVE",
"854 420 CURVE SMOOTH",
"854 457 OFFCURVE",
"830 481 OFFCURVE",
"783 481 CURVE SMOOTH"
);
}
);
width = 1056;
}
);
unicode = 00BD;
},
{
glyphname = onequarter;
layers = (
{
hints = (
{
place = "{-16, 90}";
},
{
place = "{322, 90}";
},
{
place = "{346, 90}";
},
{
place = "{682, 90}";
},
{
place = "{-8, 131}";
},
{
place = "{520, 131}";
},
{
place = "{223, 131}";
},
{
place = "{529, 147}";
},
{
place = "{537, 131}";
},
{
place = "{186, 60}";
},
{
place = "{408, 61}";
},
{
place = "{612, 60}";
},
{
horizontal = 1;
place = "{-18, 81}";
},
{
horizontal = 1;
place = "{455, 82}";
},
{
horizontal = 1;
place = "{821, 82}";
},
{
horizontal = 1;
place = "{1292, 84}";
},
{
horizontal = 1;
place = "{813, 127}";
},
{
horizontal = 1;
place = "{-18, 43}";
},
{
horizontal = 1;
place = "{0, 43}";
},
{
horizontal = 1;
place = "{1280, -20}";
target = down;
type = TopGhost;
},
{
horizontal = 1;
place = "{922, 174}";
},
{
horizontal = 1;
place = "{1249, -153}";
},
{
horizontal = 1;
place = "{0, 43}";
},
{
horizontal = 1;
place = "{854, 59}";
},
{
horizontal = 1;
place = "{1262, -19}";
},
{
horizontal = 1;
place = "{688, 21}";
},
{
horizontal = 1;
place = "{942, 57}";
},
{
horizontal = 1;
place = "{1204, 58}";
},
{
horizontal = 1;
place = "{678, 20}";
}
);
layerId = UUID0;
paths = (
{
closed = 1;
nodes = (
"199 23 LINE",
"322 -20 LINE",
"774 1239 LINE",
"651 1282 LINE"
);
},
{
closed = 1;
nodes = (
"76 1262 LINE",
"119 1128 LINE",
"119 688 LINE",
"236 688 LINE",
"236 1262 LINE"
);
},
{
closed = 1;
nodes = (
"907 385 LINE",
"848 385 OFFCURVE",
"819 418 OFFCURVE",
"819 477 CURVE SMOOTH",
"819 573 LINE",
"709 573 LINE",
"709 459 LINE SMOOTH",
"709 342 OFFCURVE",
"776 272 OFFCURVE",
"895 272 CURVE SMOOTH",
"971 272 LINE",
"971 0 LINE",
"1088 0 LINE",
"1088 272 LINE",
"1210 272 LINE",
"1178 385 LINE",
"1088 385 LINE",
"1088 573 LINE",
"971 573 LINE",
"971 385 LINE"
);
}
);
width = 1262;
}
);
unicode = 00BC;
},
{
glyphname = threequarters;
layers = (
{
hints = (
{
place = "{34, 90}";
},
{
place = "{372, 90}";
},
{
place = "{396, 90}";
},
{
place = "{732, 90}";
},
{
place = "{42, 131}";
},
{
place = "{570, 131}";
},
{
place = "{273, 131}";
},
{
place = "{579, 147}";
},
{
place = "{587, 131}";
},
{
place = "{236, 60}";
},
{
place = "{458, 61}";
},
{
place = "{662, 60}";
},
{
place = "{294, 63}";
},
{
place = "{-93, 65}";
},
{
horizontal = 1;
place = "{-18, 81}";
},
{
horizontal = 1;
place = "{455, 82}";
},
{
horizontal = 1;
place = "{821, 82}";
},
{
horizontal = 1;
place = "{1292, 84}";
},
{
horizontal = 1;
place = "{813, 127}";
},
{
horizontal = 1;
place = "{-18, 43}";
},
{
horizontal = 1;
place = "{0, 43}";
},
{
horizontal = 1;
place = "{1280, -20}";
target = down;
type = TopGhost;
},
{
horizontal = 1;
place = "{922, 174}";
},
{
horizontal = 1;
place = "{1249, -153}";
},
{
horizontal = 1;
place = "{0, 43}";
},
{
horizontal = 1;
place = "{854, 59}";
},
{
horizontal = 1;
place = "{1262, -19}";
},
{
horizontal = 1;
place = "{688, 21}";
},
{
horizontal = 1;
place = "{942, 57}";
},
{
horizontal = 1;
place = "{1204, 58}";
},
{
horizontal = 1;
place = "{678, 20}";
},
{
horizontal = 1;
place = "{645, 21}";
},
{
horizontal = 1;
place = "{1270, -19}";
},
{
horizontal = 1;
place = "{678, 20}";
},
{
horizontal = 1;
place = "{1262, -19}";
}
);
layerId = UUID0;
paths = (
{
closed = 1;
nodes = (
"249 23 LINE",
"372 -20 LINE",
"824 1239 LINE",
"701 1282 LINE"
);
},
{
closed = 1;
nodes = (
"957 385 LINE",
"898 385 OFFCURVE",
"869 418 OFFCURVE",
"869 477 CURVE SMOOTH",
"869 573 LINE",
"759 573 LINE",
"759 459 LINE SMOOTH",
"759 342 OFFCURVE",
"826 272 OFFCURVE",
"945 272 CURVE SMOOTH",
"1021 272 LINE",
"1021 0 LINE",
"1138 0 LINE",
"1138 272 LINE",
"1260 272 LINE",
"1228 385 LINE",
"1138 385 LINE",
"1138 573 LINE",
"1021 573 LINE",
"1021 385 LINE"
);
},
{
closed = 1;
nodes = (
"214 1149 LINE",
"116 961 LINE",
"210 961 LINE SMOOTH",
"263 961 OFFCURVE",
"277 936 OFFCURVE",
"277 907 CURVE SMOOTH",
"277 842 OFFCURVE",
"193 797 OFFCURVE",
"91 770 CURVE",
"132 668 LINE",
"265 711 OFFCURVE",
"394 774 OFFCURVE",
"394 915 CURVE SMOOTH",
"394 1004 OFFCURVE",
"347 1044 OFFCURVE",
"284 1063 CURVE",
"390 1262 LINE",
"83 1262 LINE",
"83 1149 LINE"
);
}
);
width = 1312;
}
);
unicode = 00BE;
},
{
glyphname = asterisk;
layers = (
{
hints = (
{
place = "{418, 117}";
},
{
horizontal = 1;
place = "{631, 43}";
},
{
horizontal = 1;
place = "{1407, -20}";
target = down;
type = TopGhost;
}
);
layerId = UUID0;
paths = (
{
closed = 1;
nodes = (
"328 864 LINE",
"156 647 LINE",
"272 559 LINE",
"426 788 LINE",
"584 559 LINE",
"701 647 LINE",
"522 866 LINE",
"791 940 LINE",
"748 1081 LINE",
"490 985 LINE",
"500 1262 LINE",
"354 1262 LINE",
"363 983 LINE",
"105 1081 LINE",
"62 940 LINE"
);
}
);
width = 854;
}
);
unicode = 002A;
},
{
glyphname = backslash;
layers = (
{
hints = (
{
place = "{837, -90}";
},
{
place = "{499, -90}";
},
{
place = "{474, -90}";
},
{
place = "{138, -90}";
},
{
place = "{829, -131}";
},
{
place = "{300, -131}";
},
{
horizontal = 1;
place = "{-18, 81}";
},
{
horizontal = 1;
place = "{455, 82}";
},
{
horizontal = 1;
place = "{821, 82}";
},
{
horizontal = 1;
place = "{1292, 84}";
},
{
horizontal = 1;
place = "{813, 127}";
},
{
horizontal = 1;
place = "{-18, 43}";
}
);
layerId = UUID0;
paths = (
{
closed = 1;
nodes = (
"169 1282 LINE",
"46 1239 LINE",
"646 -432 LINE",
"769 -389 LINE"
);
}
);
width = 813;
}
);
unicode = 005C;
},
{
glyphname = periodcentered;
layers = (
{
hints = (
{
place = "{115, 172}";
},
{
horizontal = 1;
place = "{0, 172}";
}
);
layerId = UUID0;
paths = (
{
closed = 1;
nodes = (
"115 709 LINE",
"115 537 LINE",
"287 537 LINE",
"287 709 LINE"
);
}
);
width = 401;
}
);
unicode = 00B7;
},
{
glyphname = bullet;
layers = (
{
hints = (
{
place = "{29, 172}";
},
{
horizontal = 1;
place = "{0, 172}";
}
);
layerId = UUID0;
paths = (
{
closed = 1;
nodes = (
"113 942 LINE",
"113 532 LINE",
"523 532 LINE",
"523 942 LINE"
);
}
);
width = 636;
}
);
unicode = 2022;
},
{
glyphname = colon;
layers = (
{
hints = (
{
place = "{118, 172}";
},
{
horizontal = 1;
place = "{0, 172}";
},
{
horizontal = 1;
place = "{590, 172}";
}
);
layerId = UUID0;
paths = (
{
closed = 1;
nodes = (
"118 172 LINE",
"118 0 LINE",
"290 0 LINE",
"290 172 LINE"
);
},
{
closed = 1;
nodes = (
"118 922 LINE",
"118 750 LINE",
"290 750 LINE",
"290 922 LINE"
);
}
);
width = 409;
}
);
leftKerningGroup = colon;
unicode = 003A;
},
{
glyphname = comma;
layers = (
{
hints = (
{
place = "{148, 148}";
},
{
place = "{157, 131}";
},
{
horizontal = 1;
place = "{172, -20}";
target = down;
type = TopGhost;
},
{
horizontal = 1;
place = "{-209, 43}";
},
{
horizontal = 1;
place = "{127, 174}";
},
{
horizontal = 1;
place = "{455, -154}";
},
{
horizontal = 1;
place = "{-795, 43}";
}
);
layerId = UUID0;
paths = (
{
closed = 1;
nodes = (
"73 172 LINE",
"157 0 LINE",
"161 -35 OFFCURVE",
"148 -63 OFFCURVE",
"132 -80 CURVE SMOOTH",
"116 -98 OFFCURVE",
"83 -117 OFFCURVE",
"67 -123 CURVE",
"114 -209 LINE",
"148 -195 OFFCURVE",
"189 -168 OFFCURVE",
"212 -141 CURVE SMOOTH",
"241 -106 OFFCURVE",
"259 -53 OFFCURVE",
"259 0 CURVE SMOOTH",
"259 172 LINE"
);
}
);
width = 355;
}
);
leftKerningGroup = period;
rightKerningGroup = period;
unicode = 002C;
},
{
glyphname = exclam;
layers = (
{
hints = (
{
place = "{144, 144}";
},
{
horizontal = 1;
place = "{0, 154}";
},
{
horizontal = 1;
place = "{1262, -20}";
target = down;
type = TopGhost;
}
);
layerId = UUID0;
paths = (
{
closed = 1;
nodes = (
"103 1262 LINE",
"144 1130 LINE",
"144 334 LINE",
"288 334 LINE",
"288 1262 LINE"
);
},
{
closed = 1;
nodes = (
"130 172 LINE",
"130 0 LINE",
"302 0 LINE",
"302 172 LINE"
);
}
);
width = 427;
}
);
unicode = 0021;
},
{
glyphname = exclamdown;
layers = (
{
hints = (
{
place = "{154, 144}";
},
{
horizontal = 1;
place = "{0, 154}";
},
{
horizontal = 1;
place = "{1262, -20}";
target = down;
type = TopGhost;
}
);
layerId = UUID0;
paths = (
{
closed = 1;
nodes = (
"312 -340 LINE",
"271 -209 LINE",
"271 588 LINE",
"128 588 LINE",
"128 -340 LINE"
);
},
{
closed = 1;
nodes = (
"285 750 LINE",
"285 922 LINE",
"113 922 LINE",
"113 750 LINE"
);
}
);
width = 403;
}
);
unicode = 00A1;
},
{
glyphname = numbersign;
layers = (
{
hints = (
{
horizontal = 1;
place = "{479, 109}";
},
{
horizontal = 1;
place = "{807, 108}";
},
{
horizontal = 1;
place = "{-39, 43}";
},
{
horizontal = 1;
place = "{1411, -20}";
target = down;
type = TopGhost;
}
);
layerId = UUID0;
paths = (
{
closed = 1;
nodes = (
"254 0 LINE",
"344 432 LINE",
"508 432 LINE",
"418 0 LINE",
"516 0 LINE",
"606 432 LINE",
"788 432 LINE",
"811 541 LINE",
"626 541 LINE",
"672 760 LINE",
"856 760 LINE",
"878 868 LINE",
"694 868 LINE",
"774 1262 LINE",
"676 1262 LINE",
"596 868 LINE",
"432 868 LINE",
"512 1262 LINE",
"416 1262 LINE",
"336 868 LINE",
"151 868 LINE",
"129 760 LINE",
"313 760 LINE",
"268 541 LINE",
"84 541 LINE",
"61 432 LINE",
"248 432 LINE",
"157 0 LINE"
);
},
{
closed = 1;
nodes = (
"366 541 LINE",
"411 760 LINE",
"573 760 LINE",
"530 541 LINE"
);
}
);
width = 938;
}
);
unicode = 0023;
},
{
glyphname = period;
layers = (
{
hints = (
{
place = "{95, 172}";
},
{
horizontal = 1;
place = "{0, 172}";
}
);
layerId = UUID0;
paths = (
{
closed = 1;
nodes = (
"95 172 LINE",
"95 0 LINE",
"267 0 LINE",
"267 172 LINE"
);
}
);
width = 361;
}
);
leftKerningGroup = period;
rightKerningGroup = period;
unicode = 002E;
},
{
glyphname = question;
layers = (
{
hints = (
{
place = "{394, -143}";
},
{
place = "{388, -131}";
},
{
place = "{953, 144}";
},
{
place = "{1568, 143}";
},
{
place = "{-960, 131}";
},
{
place = "{-407, 131}";
},
{
place = "{-962, 144}";
},
{
place = "{-347, 143}";
},
{
place = "{1981, 144}";
},
{
place = "{1676, -143}";
},
{
place = "{236, 172}";
},
{
horizontal = 1;
place = "{0, 154}";
},
{
horizontal = 1;
place = "{1153, 127}";
},
{
horizontal = 1;
place = "{-18, 135}";
},
{
horizontal = 1;
place = "{1145, 135}";
},
{
horizontal = 1;
place = "{-18, 127}";
},
{
horizontal = 1;
place = "{1143, 127}";
},
{
horizontal = 1;
place = "{-18, 135}";
},
{
horizontal = 1;
place = "{1145, 135}";
},
{
horizontal = 1;
place = "{-14, 135}";
},
{
horizontal = 1;
place = "{1149, 135}";
},
{
horizontal = 1;
place = "{-2, 137}";
},
{
horizontal = 1;
place = "{1161, 135}";
},
{
horizontal = 1;
place = "{0, 172}";
}
);
layerId = UUID0;
paths = (
{
closed = 1;
nodes = (
"527 1282 OFFCURVE",
"660 1151 OFFCURVE",
"660 967 CURVE SMOOTH",
"660 829 OFFCURVE",
"595 745 OFFCURVE",
"519 672 CURVE SMOOTH",
"392 547 LINE",
"392 334 LINE",
"249 334 LINE",
"249 604 LINE",
"413 762 LINE SMOOTH",
"466 813 OFFCURVE",
"517 877 OFFCURVE",
"517 967 CURVE SMOOTH",
"517 1071 OFFCURVE",
"433 1151 OFFCURVE",
"310 1151 CURVE SMOOTH",
"238 1151 OFFCURVE",
"179 1137 OFFCURVE",
"105 1102 CURVE",
"52 1223 LINE",
"132 1264 OFFCURVE",
"208 1282 OFFCURVE",
"312 1282 CURVE SMOOTH"
);
},
{
closed = 1;
nodes = (
"236 172 LINE",
"236 0 LINE",
"408 0 LINE",
"408 172 LINE"
);
}
);
width = 734;
}
);
unicode = 003F;
},
{
glyphname = questiondown;
layers = (
{
hints = (
{
place = "{338, 144}";
},
{
place = "{344, 132}";
},
{
place = "{-221, -143}";
},
{
place = "{-835, -144}";
},
{
place = "{1692, -131}";
},
{
place = "{1139, -131}";
},
{
place = "{1694, -143}";
},
{
place = "{1080, -144}";
},
{
place = "{-1249, -143}";
},
{
place = "{-944, 144}";
},
{
place = "{496, -172}";
},
{
horizontal = 1;
place = "{1282, -154}";
},
{
horizontal = 1;
place = "{129, -127}";
},
{
horizontal = 1;
place = "{1300, -135}";
},
{
horizontal = 1;
place = "{137, -135}";
},
{
horizontal = 1;
place = "{1300, -126}";
},
{
horizontal = 1;
place = "{139, -127}";
},
{
horizontal = 1;
place = "{1300, -135}";
},
{
horizontal = 1;
place = "{137, -135}";
},
{
horizontal = 1;
place = "{1296, -135}";
},
{
horizontal = 1;
place = "{133, -135}";
},
{
horizontal = 1;
place = "{1284, -137}";
},
{
horizontal = 1;
place = "{121, -135}";
},
{
horizontal = 1;
place = "{1282, -172}";
}
);
layerId = UUID0;
paths = (
{
closed = 1;
nodes = (
"205 -360 OFFCURVE",
"72 -229 OFFCURVE",
"72 -45 CURVE SMOOTH",
"72 92 OFFCURVE",
"138 176 OFFCURVE",
"213 250 CURVE SMOOTH",
"340 375 LINE",
"340 588 LINE",
"484 588 LINE",
"484 317 LINE",
"320 160 LINE SMOOTH",
"267 109 OFFCURVE",
"215 45 OFFCURVE",
"215 -45 CURVE SMOOTH",
"215 -150 OFFCURVE",
"299 -229 OFFCURVE",
"422 -229 CURVE SMOOTH",
"494 -229 OFFCURVE",
"553 -215 OFFCURVE",
"627 -180 CURVE",
"680 -301 LINE",
"600 -342 OFFCURVE",
"525 -360 OFFCURVE",
"420 -360 CURVE SMOOTH"
);
},
{
closed = 1;
nodes = (
"496 750 LINE",
"496 922 LINE",
"324 922 LINE",
"324 750 LINE"
);
}
);
width = 730;
}
);
unicode = 00BF;
},
{
glyphname = quotedbl;
layers = (
{
hints = (
{
place = "{237, 160}";
},
{
place = "{569, 160}";
},
{
horizontal = 1;
place = "{1432, -20}";
target = down;
type = TopGhost;
},
{
horizontal = 1;
place = "{834, 43}";
}
);
layerId = UUID0;
paths = (
{
closed = 1;
nodes = (
"100 1262 LINE",
"100 922 LINE",
"231 922 LINE",
"231 1262 LINE"
);
},
{
closed = 1;
nodes = (
"362 1262 LINE",
"362 922 LINE",
"493 922 LINE",
"493 1262 LINE"
);
}
);
width = 593;
}
);
leftKerningGroup = quotesingle;
rightKerningGroup = quotesingle;
unicode = 0022;
},
{
glyphname = quotesingle;
layers = (
{
hints = (
{
place = "{403, 160}";
},
{
horizontal = 1;
place = "{1432, -20}";
target = down;
type = TopGhost;
},
{
horizontal = 1;
place = "{834, 43}";
}
);
layerId = UUID0;
paths = (
{
closed = 1;
nodes = (
"100 1262 LINE",
"100 922 LINE",
"231 922 LINE",
"231 1262 LINE"
);
}
);
width = 331;
}
);
leftKerningGroup = quotesingle;
rightKerningGroup = quotesingle;
unicode = 0027;
},
{
glyphname = semicolon;
layers = (
{
hints = (
{
place = "{143, 173}";
},
{
horizontal = 1;
place = "{762, -172}";
},
{
horizontal = 1;
place = "{-209, 43}";
}
);
layerId = UUID0;
paths = (
{
closed = 1;
nodes = (
"143 922 LINE",
"143 750 LINE",
"316 750 LINE",
"316 922 LINE"
);
},
{
closed = 1;
nodes = (
"117 172 LINE",
"201 0 LINE",
"205 -35 OFFCURVE",
"193 -63 OFFCURVE",
"176 -80 CURVE SMOOTH",
"160 -98 OFFCURVE",
"127 -117 OFFCURVE",
"111 -123 CURVE",
"158 -209 LINE",
"193 -195 OFFCURVE",
"234 -168 OFFCURVE",
"256 -141 CURVE SMOOTH",
"285 -106 OFFCURVE",
"303 -53 OFFCURVE",
"303 0 CURVE SMOOTH",
"303 172 LINE"
);
}
);
width = 445;
}
);
leftKerningGroup = colon;
unicode = 003B;
},
{
glyphname = slash;
layers = (
{
hints = (
{
place = "{-23, 90}";
},
{
place = "{315, 90}";
},
{
place = "{339, 90}";
},
{
place = "{675, 90}";
},
{
place = "{-15, 131}";
},
{
place = "{513, 131}";
},
{
horizontal = 1;
place = "{-18, 81}";
},
{
horizontal = 1;
place = "{455, 82}";
},
{
horizontal = 1;
place = "{821, 82}";
},
{
horizontal = 1;
place = "{1292, 84}";
},
{
horizontal = 1;
place = "{813, 127}";
},
{
horizontal = 1;
place = "{-18, 43}";
}
);
layerId = UUID0;
paths = (
{
closed = 1;
nodes = (
"44 -389 LINE",
"167 -432 LINE",
"767 1239 LINE",
"644 1282 LINE"
);
}
);
width = 812;
}
);
unicode = 002F;
},
{
glyphname = underscore;
layers = (
{
hints = (
{
horizontal = 1;
place = "{408, 190}";
}
);
layerId = UUID0;
paths = (
{
closed = 1;
nodes = (
"155 -301 LINE",
"815 -301 LINE",
"815 -168 LINE",
"155 -168 LINE"
);
}
);
width = 970;
}
);
unicode = 005F;
},
{
glyphname = braceleft;
layers = (
{
hints = (
{
place = "{562, -273}";
},
{
place = "{421, -132}";
},
{
place = "{789, 162}";
},
{
horizontal = 1;
place = "{-307, 123}";
},
{
horizontal = 1;
place = "{1421, 121}";
},
{
horizontal = 1;
place = "{-317, 127}";
},
{
horizontal = 1;
place = "{1427, 127}";
}
);
layerId = UUID0;
paths = (
{
closed = 1;
nodes = (
"38 457 LINE",
"175 426 OFFCURVE",
"177 344 OFFCURVE",
"177 197 CURVE SMOOTH",
"177 63 LINE SMOOTH",
"177 -143 OFFCURVE",
"277 -246 OFFCURVE",
"410 -301 CURVE",
"468 -178 LINE",
"371 -133 OFFCURVE",
"308 -76 OFFCURVE",
"308 59 CURVE SMOOTH",
"308 197 LINE SMOOTH",
"308 338 OFFCURVE",
"300 446 OFFCURVE",
"175 520 CURVE",
"300 594 OFFCURVE",
"308 702 OFFCURVE",
"308 844 CURVE SMOOTH",
"308 981 LINE SMOOTH",
"308 1116 OFFCURVE",
"371 1174 OFFCURVE",
"468 1219 CURVE",
"410 1341 LINE",
"277 1286 OFFCURVE",
"177 1184 OFFCURVE",
"177 977 CURVE SMOOTH",
"177 844 LINE SMOOTH",
"177 696 OFFCURVE",
"175 614 OFFCURVE",
"38 584 CURVE"
);
}
);
width = 513;
}
);
unicode = 007B;
},
{
glyphname = braceright;
layers = (
{
hints = (
{
place = "{-49, 273}";
},
{
place = "{93, 131}";
},
{
place = "{-276, -162}";
},
{
horizontal = 1;
place = "{-307, 123}";
},
{
horizontal = 1;
place = "{1421, 121}";
},
{
horizontal = 1;
place = "{-317, 127}";
},
{
horizontal = 1;
place = "{1427, 127}";
}
);
layerId = UUID0;
paths = (
{
closed = 1;
nodes = (
"476 584 LINE",
"338 614 OFFCURVE",
"336 696 OFFCURVE",
"336 844 CURVE SMOOTH",
"336 977 LINE SMOOTH",
"336 1184 OFFCURVE",
"236 1286 OFFCURVE",
"103 1341 CURVE",
"46 1219 LINE",
"142 1174 OFFCURVE",
"205 1116 OFFCURVE",
"205 981 CURVE SMOOTH",
"205 844 LINE SMOOTH",
"205 702 OFFCURVE",
"213 594 OFFCURVE",
"338 520 CURVE",
"213 446 OFFCURVE",
"205 338 OFFCURVE",
"205 197 CURVE SMOOTH",
"205 59 LINE SMOOTH",
"205 -76 OFFCURVE",
"142 -133 OFFCURVE",
"46 -178 CURVE",
"103 -301 LINE",
"236 -246 OFFCURVE",
"336 -143 OFFCURVE",
"336 63 CURVE SMOOTH",
"336 197 LINE SMOOTH",
"336 344 OFFCURVE",
"338 426 OFFCURVE",
"476 457 CURVE"
);
}
);
width = 513;
}
);
unicode = 007D;
},
{
glyphname = bracketleft;
layers = (
{
hints = (
{
place = "{132, 162}";
},
{
horizontal = 1;
place = "{-317, 127}";
},
{
horizontal = 1;
place = "{1427, 127}";
}
);
layerId = UUID0;
paths = (
{
closed = 1;
nodes = (
"132 -301 LINE",
"638 -301 LINE",
"638 -174 LINE",
"263 -174 LINE",
"263 1214 LINE",
"638 1214 LINE",
"638 1341 LINE",
"132 1341 LINE"
);
}
);
width = 686;
}
);
unicode = 005B;
},
{
glyphname = bracketright;
layers = (
{
hints = (
{
place = "{321, 162}";
},
{
horizontal = 1;
place = "{-317, 127}";
},
{
horizontal = 1;
place = "{1427, 127}";
}
);
layerId = UUID0;
paths = (
{
closed = 1;
nodes = (
"555 1341 LINE",
"49 1341 LINE",
"49 1214 LINE",
"423 1214 LINE",
"423 -174 LINE",
"49 -174 LINE",
"49 -301 LINE",
"555 -301 LINE"
);
}
);
width = 687;
}
);
unicode = 005D;
},
{
glyphname = parenleft;
layers = (
{
hints = (
{
place = "{87, 135}";
},
{
horizontal = 1;
place = "{1491, -20}";
target = down;
type = TopGhost;
},
{
horizontal = 1;
place = "{-301, 43}";
}
);
layerId = UUID0;
paths = (
{
closed = 1;
nodes = (
"455 -225 LINE",
"263 41 OFFCURVE",
"222 340 OFFCURVE",
"222 520 CURVE SMOOTH",
"222 698 OFFCURVE",
"263 1004 OFFCURVE",
"455 1270 CURVE",
"343 1343 LINE",
"126 1026 OFFCURVE",
"87 748 OFFCURVE",
"87 520 CURVE SMOOTH",
"87 295 OFFCURVE",
"126 16 OFFCURVE",
"343 -301 CURVE"
);
}
);
width = 495;
}
);
unicode = 0028;
},
{
glyphname = parenright;
layers = (
{
hints = (
{
place = "{207, 135}";
},
{
horizontal = 1;
place = "{-301, 43}";
},
{
horizontal = 1;
place = "{1491, -20}";
target = down;
type = TopGhost;
}
);
layerId = UUID0;
paths = (
{
closed = 1;
nodes = (
"153 -301 LINE",
"370 16 OFFCURVE",
"409 295 OFFCURVE",
"409 520 CURVE SMOOTH",
"409 748 OFFCURVE",
"370 1026 OFFCURVE",
"153 1343 CURVE",
"41 1270 LINE",
"233 1004 OFFCURVE",
"274 698 OFFCURVE",
"274 520 CURVE SMOOTH",
"274 340 OFFCURVE",
"233 41 OFFCURVE",
"41 -225 CURVE"
);
}
);
width = 496;
}
);
unicode = 0029;
},
{
glyphname = emdash;
layers = (
{
hints = (
{
horizontal = 1;
place = "{408, 190}";
}
);
layerId = UUID0;
paths = (
{
closed = 1;
nodes = (
"111 444 LINE",
"1076 444 LINE",
"1076 578 LINE",
"111 578 LINE"
);
}
);
width = 1188;
}
);
leftKerningGroup = hyphen;
rightKerningGroup = hyphen;
unicode = 2014;
},
{
glyphname = endash;
layers = (
{
hints = (
{
horizontal = 1;
place = "{408, 190}";
}
);
layerId = UUID0;
paths = (
{
closed = 1;
nodes = (
"111 444 LINE",
"771 444 LINE",
"771 578 LINE",
"111 578 LINE"
);
}
);
width = 882;
}
);
leftKerningGroup = hyphen;
rightKerningGroup = hyphen;
unicode = 2013;
},
{
glyphname = hyphen;
layers = (
{
hints = (
{
horizontal = 1;
place = "{408, 190}";
}
);
layerId = UUID0;
paths = (
{
closed = 1;
nodes = (
"113 434 LINE",
"691 434 LINE",
"691 578 LINE",
"113 578 LINE"
);
}
);
width = 804;
}
);
leftKerningGroup = hyphen;
rightKerningGroup = hyphen;
unicode = 002D;
},
{
glyphname = softhyphen;
layers = (
{
hints = (
{
horizontal = 1;
place = "{408, 190}";
}
);
layerId = UUID0;
paths = (
{
closed = 1;
nodes = (
"113 434 LINE",
"691 434 LINE",
"691 578 LINE",
"113 578 LINE"
);
}
);
width = 804;
}
);
leftKerningGroup = hyphen;
rightKerningGroup = hyphen;
unicode = 00AD;
},
{
glyphname = guillemetleft;
layers = (
{
hints = (
{
place = "{1227, 144}";
},
{
horizontal = 1;
place = "{254, 43}";
},
{
horizontal = 1;
place = "{1114, -20}";
target = down;
type = TopGhost;
},
{
horizontal = 1;
place = "{621, 137}";
},
{
horizontal = 1;
place = "{209, 43}";
},
{
horizontal = 1;
place = "{1161, -20}";
target = down;
type = TopGhost;
}
);
layerId = UUID0;
paths = (
{
closed = 1;
nodes = (
"95 518 LINE",
"367 246 LINE",
"461 340 LINE",
"218 584 LINE",
"461 827 LINE",
"367 922 LINE",
"95 649 LINE"
);
},
{
closed = 1;
nodes = (
"527 406 LINE",
"621 500 LINE",
"537 584 LINE",
"621 668 LINE",
"527 762 LINE",
"349 584 LINE"
);
}
);
width = 686;
}
);
leftKerningGroup = guilsinglleft;
unicode = 00AB;
},
{
glyphname = guillemetright;
layers = (
{
hints = (
{
place = "{-543, -143}";
},
{
horizontal = 1;
place = "{254, 43}";
},
{
horizontal = 1;
place = "{1114, -20}";
target = down;
type = TopGhost;
},
{
horizontal = 1;
place = "{621, 137}";
},
{
horizontal = 1;
place = "{209, 43}";
},
{
horizontal = 1;
place = "{1161, -20}";
target = down;
type = TopGhost;
}
);
layerId = UUID0;
paths = (
{
closed = 1;
nodes = (
"336 584 LINE",
"158 762 LINE",
"64 668 LINE",
"148 584 LINE",
"64 500 LINE",
"158 406 LINE"
);
},
{
closed = 1;
nodes = (
"590 649 LINE",
"318 922 LINE",
"223 827 LINE",
"467 584 LINE",
"223 340 LINE",
"318 246 LINE",
"590 518 LINE"
);
}
);
width = 685;
}
);
rightKerningGroup = guilsinglright;
unicode = 00BB;
},
{
glyphname = guilsinglleft;
layers = (
{
hints = (
{
place = "{1227, 144}";
},
{
horizontal = 1;
place = "{254, 43}";
},
{
horizontal = 1;
place = "{1114, -20}";
target = down;
type = TopGhost;
},
{
horizontal = 1;
place = "{621, 137}";
},
{
horizontal = 1;
place = "{209, 43}";
},
{
horizontal = 1;
place = "{1161, -20}";
target = down;
type = TopGhost;
}
);
layerId = UUID0;
paths = (
{
closed = 1;
nodes = (
"95 518 LINE",
"367 246 LINE",
"461 340 LINE",
"218 584 LINE",
"461 827 LINE",
"367 922 LINE",
"95 649 LINE"
);
}
);
width = 542;
}
);
leftKerningGroup = guilsinglleft;
unicode = 2039;
},
{
glyphname = guilsinglright;
layers = (
{
hints = (
{
place = "{-685, -143}";
},
{
horizontal = 1;
place = "{254, 43}";
},
{
horizontal = 1;
place = "{1114, -20}";
target = down;
type = TopGhost;
},
{
horizontal = 1;
place = "{621, 137}";
},
{
horizontal = 1;
place = "{209, 43}";
},
{
horizontal = 1;
place = "{1161, -20}";
target = down;
type = TopGhost;
}
);
layerId = UUID0;
paths = (
{
closed = 1;
nodes = (
"448 649 LINE",
"176 922 LINE",
"81 827 LINE",
"325 584 LINE",
"81 340 LINE",
"176 246 LINE",
"448 518 LINE"
);
}
);
width = 543;
}
);
rightKerningGroup = guilsinglright;
unicode = 203A;
},
{
glyphname = quotedblbase;
layers = (
{
hints = (
{
place = "{148, 148}";
},
{
place = "{157, 131}";
},
{
horizontal = 1;
place = "{172, -20}";
target = down;
type = TopGhost;
},
{
horizontal = 1;
place = "{-209, 43}";
},
{
horizontal = 1;
place = "{127, 174}";
},
{
horizontal = 1;
place = "{455, -154}";
},
{
horizontal = 1;
place = "{-795, 43}";
}
);
layerId = UUID0;
paths = (
{
closed = 1;
nodes = (
"73 172 LINE",
"157 0 LINE",
"161 -35 OFFCURVE",
"148 -63 OFFCURVE",
"132 -80 CURVE SMOOTH",
"116 -98 OFFCURVE",
"83 -117 OFFCURVE",
"67 -123 CURVE",
"114 -209 LINE",
"148 -195 OFFCURVE",
"189 -168 OFFCURVE",
"212 -141 CURVE SMOOTH",
"241 -106 OFFCURVE",
"259 -53 OFFCURVE",
"259 0 CURVE SMOOTH",
"259 172 LINE"
);
},
{
closed = 1;
nodes = (
"357 172 LINE",
"441 0 LINE",
"445 -35 OFFCURVE",
"433 -63 OFFCURVE",
"417 -80 CURVE SMOOTH",
"400 -98 OFFCURVE",
"368 -117 OFFCURVE",
"351 -123 CURVE",
"398 -209 LINE",
"433 -195 OFFCURVE",
"474 -168 OFFCURVE",
"497 -141 CURVE SMOOTH",
"525 -106 OFFCURVE",
"544 -53 OFFCURVE",
"544 0 CURVE SMOOTH",
"544 172 LINE"
);
}
);
width = 641;
}
);
leftKerningGroup = period;
rightKerningGroup = period;
unicode = 201E;
},
{
glyphname = quotedblleft;
layers = (
{
hints = (
{
place = "{443, 160}";
},
{
place = "{158, 148}";
},
{
place = "{167, 131}";
},
{
horizontal = 1;
place = "{1432, -20}";
target = down;
type = TopGhost;
},
{
horizontal = 1;
place = "{834, 43}";
},
{
horizontal = 1;
place = "{1262, -20}";
target = down;
type = TopGhost;
},
{
horizontal = 1;
place = "{881, 43}";
},
{
horizontal = 1;
place = "{1217, 174}";
},
{
horizontal = 1;
place = "{1544, -153}";
},
{
horizontal = 1;
place = "{295, 43}";
}
);
layerId = UUID0;
paths = (
{
closed = 1;
nodes = (
"277 961 LINE",
"193 1133 LINE",
"189 1167 OFFCURVE",
"201 1196 OFFCURVE",
"218 1212 CURVE SMOOTH",
"234 1231 OFFCURVE",
"267 1249 OFFCURVE",
"283 1255 CURVE",
"236 1341 LINE",
"201 1327 OFFCURVE",
"161 1300 OFFCURVE",
"138 1274 CURVE SMOOTH",
"109 1239 OFFCURVE",
"91 1186 OFFCURVE",
"91 1133 CURVE SMOOTH",
"91 961 LINE"
);
},
{
closed = 1;
nodes = (
"564 961 LINE",
"480 1133 LINE",
"476 1167 OFFCURVE",
"488 1196 OFFCURVE",
"505 1212 CURVE SMOOTH",
"521 1231 OFFCURVE",
"554 1249 OFFCURVE",
"570 1255 CURVE",
"523 1341 LINE",
"488 1327 OFFCURVE",
"447 1300 OFFCURVE",
"425 1274 CURVE SMOOTH",
"396 1239 OFFCURVE",
"378 1186 OFFCURVE",
"378 1133 CURVE SMOOTH",
"378 961 LINE"
);
}
);
width = 642;
}
);
leftKerningGroup = quoteleft;
rightKerningGroup = quoteleft;
unicode = 201C;
},
{
glyphname = quotedblright;
layers = (
{
hints = (
{
place = "{415, 160}";
},
{
place = "{130, 148}";
},
{
place = "{139, 131}";
},
{
horizontal = 1;
place = "{1432, -20}";
target = down;
type = TopGhost;
},
{
horizontal = 1;
place = "{834, 43}";
},
{
horizontal = 1;
place = "{1262, -20}";
target = down;
type = TopGhost;
},
{
horizontal = 1;
place = "{881, 43}";
},
{
horizontal = 1;
place = "{1217, 174}";
},
{
horizontal = 1;
place = "{1544, -153}";
},
{
horizontal = 1;
place = "{295, 43}";
}
);
layerId = UUID0;
paths = (
{
closed = 1;
nodes = (
"69 1341 LINE",
"153 1169 LINE",
"157 1135 OFFCURVE",
"145 1106 OFFCURVE",
"128 1090 CURVE SMOOTH",
"112 1071 OFFCURVE",
"79 1053 OFFCURVE",
"63 1047 CURVE",
"110 961 LINE",
"145 975 OFFCURVE",
"186 1001 OFFCURVE",
"208 1028 CURVE SMOOTH",
"237 1063 OFFCURVE",
"255 1116 OFFCURVE",
"255 1169 CURVE SMOOTH",
"255 1341 LINE"
);
},
{
closed = 1;
nodes = (
"356 1341 LINE",
"440 1169 LINE",
"444 1135 OFFCURVE",
"432 1106 OFFCURVE",
"415 1090 CURVE SMOOTH",
"399 1071 OFFCURVE",
"366 1053 OFFCURVE",
"350 1047 CURVE",
"397 961 LINE",
"432 975 OFFCURVE",
"472 1001 OFFCURVE",
"495 1028 CURVE SMOOTH",
"524 1063 OFFCURVE",
"542 1116 OFFCURVE",
"542 1169 CURVE SMOOTH",
"542 1341 LINE"
);
}
);
width = 617;
}
);
leftKerningGroup = quoteright;
rightKerningGroup = quoteright;
unicode = 201D;
},
{
glyphname = quoteleft;
layers = (
{
hints = (
{
place = "{443, 160}";
},
{
place = "{158, 148}";
},
{
place = "{167, 131}";
},
{
horizontal = 1;
place = "{1432, -20}";
target = down;
type = TopGhost;
},
{
horizontal = 1;
place = "{834, 43}";
},
{
horizontal = 1;
place = "{1262, -20}";
target = down;
type = TopGhost;
},
{
horizontal = 1;
place = "{881, 43}";
},
{
horizontal = 1;
place = "{1217, 174}";
},
{
horizontal = 1;
place = "{1544, -153}";
},
{
horizontal = 1;
place = "{295, 43}";
}
);
layerId = UUID0;
paths = (
{
closed = 1;
nodes = (
"277 961 LINE",
"193 1133 LINE",
"189 1167 OFFCURVE",
"201 1196 OFFCURVE",
"218 1212 CURVE SMOOTH",
"234 1231 OFFCURVE",
"267 1249 OFFCURVE",
"283 1255 CURVE",
"236 1341 LINE",
"201 1327 OFFCURVE",
"161 1300 OFFCURVE",
"138 1274 CURVE SMOOTH",
"109 1239 OFFCURVE",
"91 1186 OFFCURVE",
"91 1133 CURVE SMOOTH",
"91 961 LINE"
);
}
);
width = 356;
}
);
leftKerningGroup = quoteleft;
rightKerningGroup = quoteleft;
unicode = 2018;
},
{
glyphname = quoteright;
layers = (
{
hints = (
{
place = "{415, 160}";
},
{
place = "{130, 148}";
},
{
place = "{139, 131}";
},
{
horizontal = 1;
place = "{1432, -20}";
target = down;
type = TopGhost;
},
{
horizontal = 1;
place = "{834, 43}";
},
{
horizontal = 1;
place = "{1262, -20}";
target = down;
type = TopGhost;
},
{
horizontal = 1;
place = "{881, 43}";
},
{
horizontal = 1;
place = "{1217, 174}";
},
{
horizontal = 1;
place = "{1544, -153}";
},
{
horizontal = 1;
place = "{295, 43}";
}
);
layerId = UUID0;
paths = (
{
closed = 1;
nodes = (
"69 1341 LINE",
"153 1169 LINE",
"157 1135 OFFCURVE",
"145 1106 OFFCURVE",
"128 1090 CURVE SMOOTH",
"112 1071 OFFCURVE",
"79 1053 OFFCURVE",
"63 1047 CURVE",
"110 961 LINE",
"145 975 OFFCURVE",
"186 1001 OFFCURVE",
"208 1028 CURVE SMOOTH",
"237 1063 OFFCURVE",
"255 1116 OFFCURVE",
"255 1169 CURVE SMOOTH",
"255 1341 LINE"
);
}
);
width = 330;
}
);
leftKerningGroup = quoteright;
rightKerningGroup = quoteright;
unicode = 2019;
},
{
glyphname = quotesinglbase;
layers = (
{
hints = (
{
place = "{148, 148}";
},
{
place = "{157, 131}";
},
{
horizontal = 1;
place = "{172, -20}";
target = down;
type = TopGhost;
},
{
horizontal = 1;
place = "{-209, 43}";
},
{
horizontal = 1;
place = "{127, 174}";
},
{
horizontal = 1;
place = "{455, -154}";
},
{
horizontal = 1;
place = "{-795, 43}";
}
);
layerId = UUID0;
paths = (
{
closed = 1;
nodes = (
"73 172 LINE",
"157 0 LINE",
"161 -35 OFFCURVE",
"148 -63 OFFCURVE",
"132 -80 CURVE SMOOTH",
"116 -98 OFFCURVE",
"83 -117 OFFCURVE",
"67 -123 CURVE",
"114 -209 LINE",
"148 -195 OFFCURVE",
"189 -168 OFFCURVE",
"212 -141 CURVE SMOOTH",
"241 -106 OFFCURVE",
"259 -53 OFFCURVE",
"259 0 CURVE SMOOTH",
"259 172 LINE"
);
}
);
width = 355;
}
);
leftKerningGroup = period;
rightKerningGroup = period;
unicode = 201A;
},
{
glyphname = .notdef;
layers = (
{
layerId = UUID0;
paths = (
{
closed = 1;
nodes = (
"102 0 LINE",
"950 0 LINE",
"950 1024 LINE",
"102 1024 LINE"
);
},
{
closed = 1;
nodes = (
"229 897 LINE",
"823 897 LINE",
"823 127 LINE",
"229 127 LINE"
);
}
);
width = 1083;
}
);
},
{
glyphname = cent;
layers = (
{
hints = (
{
place = "{129, 131}";
},
{
horizontal = 1;
place = "{-18, 127}";
},
{
horizontal = 1;
place = "{813, 127}";
}
);
layerId = UUID0;
paths = (
{
closed = 1;
nodes = (
"514 -209 LINE",
"514 -18 LINE",
"573 -14 OFFCURVE",
"628 -2 OFFCURVE",
"682 18 CURVE",
"682 147 LINE",
"614 115 OFFCURVE",
"549 102 OFFCURVE",
"473 102 CURVE SMOOTH",
"393 102 OFFCURVE",
"327 119 OFFCURVE",
"260 156 CURVE",
"260 543 LINE SMOOTH",
"260 602 OFFCURVE",
"260 692 OFFCURVE",
"305 750 CURVE SMOOTH",
"325 776 OFFCURVE",
"375 819 OFFCURVE",
"473 819 CURVE SMOOTH",
"522 819 OFFCURVE",
"585 809 OFFCURVE",
"637 795 CURVE",
"671 913 LINE",
"622 926 OFFCURVE",
"571 938 OFFCURVE",
"514 940 CURVE",
"514 1108 LINE",
"383 1108 LINE",
"383 934 LINE",
"325 926 OFFCURVE",
"266 903 OFFCURVE",
"217 852 CURVE SMOOTH",
"123 754 OFFCURVE",
"129 618 OFFCURVE",
"129 543 CURVE SMOOTH",
"129 209 LINE",
"59 125 LINE",
"119 74 OFFCURVE",
"223 4 OFFCURVE",
"383 -14 CURVE",
"383 -209 LINE"
);
}
);
width = 766;
}
);
unicode = 00A2;
},
{
glyphname = currency;
layers = (
{
hints = (
{
place = "{204, 102}";
},
{
place = "{882, 98}";
},
{
place = "{196, 147}";
},
{
place = "{204, 131}";
},
{
horizontal = 1;
place = "{496, 102}";
},
{
horizontal = 1;
place = "{1174, 100}";
},
{
horizontal = 1;
place = "{387, 43}";
},
{
horizontal = 1;
place = "{1382, -20}";
target = down;
type = TopGhost;
},
{
horizontal = 1;
place = "{922, 174}";
},
{
horizontal = 1;
place = "{1249, -153}";
},
{
horizontal = 1;
place = "{0, 43}";
}
);
layerId = UUID0;
paths = (
{
closed = 1;
nodes = (
"980 844 OFFCURVE",
"958 918 OFFCURVE",
"911 985 CURVE",
"1103 1178 LINE",
"1011 1270 LINE",
"820 1079 LINE",
"753 1128 OFFCURVE",
"677 1151 OFFCURVE",
"593 1151 CURVE SMOOTH",
"509 1151 OFFCURVE",
"433 1128 OFFCURVE",
"366 1079 CURVE",
"175 1270 LINE",
"83 1178 LINE",
"276 985 LINE",
"229 918 OFFCURVE",
"204 844 OFFCURVE",
"204 762 CURVE SMOOTH",
"204 680 OFFCURVE",
"229 606 OFFCURVE",
"276 539 CURVE",
"83 346 LINE",
"175 254 LINE",
"366 444 LINE",
"433 395 OFFCURVE",
"509 373 OFFCURVE",
"593 373 CURVE SMOOTH",
"677 373 OFFCURVE",
"753 395 OFFCURVE",
"820 444 CURVE",
"1011 254 LINE",
"1103 346 LINE",
"911 539 LINE",
"958 606 OFFCURVE",
"980 680 OFFCURVE",
"980 762 CURVE SMOOTH"
);
},
{
closed = 1;
nodes = (
"333 903 OFFCURVE",
"450 1020 OFFCURVE",
"593 1020 CURVE SMOOTH",
"737 1020 OFFCURVE",
"851 905 OFFCURVE",
"851 762 CURVE SMOOTH",
"851 621 OFFCURVE",
"734 502 OFFCURVE",
"593 502 CURVE SMOOTH",
"450 502 OFFCURVE",
"333 621 OFFCURVE",
"333 762 CURVE SMOOTH"
);
}
);
width = 1186;
}
);
unicode = 00A4;
},
{
glyphname = dollar;
layers = (
{
hints = (
{
place = "{141, 155}";
},
{
place = "{413, 96}";
},
{
place = "{429, 95}";
},
{
place = "{446, 94}";
},
{
place = "{694, 155}";
},
{
place = "{714, -143}";
},
{
place = "{1019, 144}";
},
{
place = "{1113, 144}";
},
{
horizontal = 1;
place = "{-236, 43}";
},
{
horizontal = 1;
place = "{1579, -20}";
target = down;
type = TopGhost;
},
{
horizontal = 1;
place = "{-14, 135}";
},
{
horizontal = 1;
place = "{1149, 135}";
},
{
horizontal = 1;
place = "{-2, 137}";
},
{
horizontal = 1;
place = "{1161, 135}";
},
{
horizontal = 1;
place = "{0, 43}";
},
{
horizontal = 1;
place = "{1262, -20}";
target = down;
type = TopGhost;
}
);
layerId = UUID0;
paths = (
{
closed = 1;
nodes = (
"483 -233 LINE",
"483 -12 LINE",
"589 6 OFFCURVE",
"687 51 OFFCURVE",
"773 123 CURVE",
"714 236 LINE",
"714 324 LINE SMOOTH",
"714 461 OFFCURVE",
"618 551 OFFCURVE",
"427 694 CURVE SMOOTH",
"331 766 OFFCURVE",
"233 844 OFFCURVE",
"233 967 CURVE SMOOTH",
"233 1079 OFFCURVE",
"317 1151 OFFCURVE",
"440 1151 CURVE SMOOTH",
"497 1151 OFFCURVE",
"562 1137 OFFCURVE",
"636 1102 CURVE",
"698 1223 LINE",
"630 1257 OFFCURVE",
"565 1276 OFFCURVE",
"483 1280 CURVE",
"483 1462 LINE",
"343 1462 LINE",
"343 1274 LINE",
"188 1243 OFFCURVE",
"89 1137 OFFCURVE",
"89 963 CURVE SMOOTH",
"89 782 OFFCURVE",
"210 680 OFFCURVE",
"339 580 CURVE SMOOTH",
"429 510 OFFCURVE",
"571 424 OFFCURVE",
"571 307 CURVE SMOOTH",
"571 166 LINE",
"517 131 OFFCURVE",
"458 111 OFFCURVE",
"378 111 CURVE SMOOTH",
"304 111 OFFCURVE",
"214 131 OFFCURVE",
"134 178 CURVE",
"75 49 LINE",
"163 -2 OFFCURVE",
"272 -16 OFFCURVE",
"343 -20 CURVE",
"343 -233 LINE"
);
}
);
width = 827;
}
);
unicode = 0024;
},
{
glyphname = euro;
layers = (
{
hints = (
{
place = "{189, 143}";
},
{
place = "{189, 143}";
},
{
horizontal = 1;
place = "{-18, 137}";
},
{
horizontal = 1;
place = "{1145, 135}";
},
{
horizontal = 1;
place = "{-18, 137}";
},
{
horizontal = 1;
place = "{1145, 135}";
}
);
layerId = UUID0;
paths = (
{
closed = 1;
nodes = (
"826 1223 LINE",
"750 1264 OFFCURVE",
"679 1282 OFFCURVE",
"580 1282 CURVE SMOOTH",
"306 1282 OFFCURVE",
"212 1110 OFFCURVE",
"193 885 CURVE",
"107 885 LINE",
"83 774 LINE",
"189 774 LINE",
"189 680 LINE",
"107 680 LINE",
"83 569 LINE",
"189 569 LINE",
"189 240 LINE",
"115 145 LINE",
"277 0 OFFCURVE",
"470 -20 OFFCURVE",
"568 -20 CURVE SMOOTH",
"691 -20 OFFCURVE",
"793 6 OFFCURVE",
"863 43 CURVE",
"804 172 LINE",
"724 125 OFFCURVE",
"668 111 OFFCURVE",
"576 111 CURVE SMOOTH",
"480 111 OFFCURVE",
"408 127 OFFCURVE",
"332 174 CURVE",
"332 569 LINE",
"681 569 LINE",
"705 680 LINE",
"332 680 LINE",
"332 774 LINE",
"726 774 LINE",
"750 885 LINE",
"335 885 LINE",
"349 1034 OFFCURVE",
"402 1151 OFFCURVE",
"584 1151 CURVE SMOOTH",
"638 1151 OFFCURVE",
"705 1137 OFFCURVE",
"775 1102 CURVE"
);
}
);
width = 924;
}
);
unicode = 20AC;
},
{
glyphname = sterling;
layers = (
{
hints = (
{
place = "{167, 143}";
},
{
place = "{1162, 144}";
},
{
place = "{2604, -143}";
},
{
place = "{1990, -144}";
},
{
horizontal = 1;
place = "{-18, 137}";
},
{
horizontal = 1;
place = "{1145, 135}";
},
{
horizontal = 1;
place = "{659, 136}";
},
{
horizontal = 1;
place = "{1126, 136}";
},
{
horizontal = 1;
place = "{-39, 43}";
},
{
horizontal = 1;
place = "{-18, 135}";
},
{
horizontal = 1;
place = "{1145, 135}";
}
);
layerId = UUID0;
paths = (
{
closed = 1;
nodes = (
"102 662 LINE",
"167 662 LINE",
"167 0 LINE",
"800 0 LINE",
"757 131 LINE",
"310 131 LINE",
"310 662 LINE",
"579 662 LINE",
"579 793 LINE",
"310 793 LINE",
"310 987 OFFCURVE",
"345 1151 OFFCURVE",
"562 1151 CURVE SMOOTH",
"616 1151 OFFCURVE",
"683 1137 OFFCURVE",
"753 1102 CURVE",
"804 1223 LINE",
"728 1264 OFFCURVE",
"657 1282 OFFCURVE",
"558 1282 CURVE SMOOTH",
"249 1282 OFFCURVE",
"167 1061 OFFCURVE",
"167 793 CURVE",
"61 793 LINE"
);
}
);
width = 868;
}
);
unicode = 00A3;
},
{
glyphname = yen;
layers = (
{
hints = (
{
place = "{359, 143}";
},
{
place = "{953, 143}";
},
{
horizontal = 1;
place = "{0, 43}";
},
{
horizontal = 1;
place = "{1280, -20}";
target = down;
type = TopGhost;
},
{
horizontal = 1;
place = "{664, 135}";
},
{
horizontal = 1;
place = "{1130, 136}";
},
{
horizontal = 1;
place = "{4, 43}";
}
);
layerId = UUID0;
paths = (
{
closed = 1;
nodes = (
"197 410 LINE",
"359 410 LINE",
"359 309 LINE",
"197 309 LINE",
"197 199 LINE",
"359 199 LINE",
"359 0 LINE",
"502 0 LINE",
"502 199 LINE",
"668 199 LINE",
"668 309 LINE",
"502 309 LINE",
"502 410 LINE",
"668 410 LINE",
"668 520 LINE",
"502 520 LINE",
"502 659 LINE",
"543 668 OFFCURVE",
"605 686 OFFCURVE",
"658 750 CURVE SMOOTH",
"725 827 OFFCURVE",
"754 961 OFFCURVE",
"799 1260 CURVE",
"656 1282 LINE",
"639 1171 LINE SMOOTH",
"607 952 OFFCURVE",
"582 883 OFFCURVE",
"549 844 CURVE SMOOTH",
"512 801 OFFCURVE",
"465 793 OFFCURVE",
"431 793 CURVE SMOOTH",
"396 793 OFFCURVE",
"349 801 OFFCURVE",
"312 844 CURVE SMOOTH",
"279 883 OFFCURVE",
"254 952 OFFCURVE",
"222 1171 CURVE SMOOTH",
"205 1282 LINE",
"62 1260 LINE",
"107 961 OFFCURVE",
"136 827 OFFCURVE",
"203 750 CURVE SMOOTH",
"256 686 OFFCURVE",
"318 668 OFFCURVE",
"359 659 CURVE",
"359 520 LINE",
"197 520 LINE"
);
}
);
width = 861;
}
);
unicode = 00A5;
},
{
glyphname = plus;
layers = (
{
hints = (
{
place = "{424, 144}";
},
{
horizontal = 1;
place = "{621, 137}";
},
{
horizontal = 1;
place = "{209, 43}";
},
{
horizontal = 1;
place = "{1161, -20}";
target = down;
type = TopGhost;
}
);
layerId = UUID0;
paths = (
{
closed = 1;
nodes = (
"64 662 LINE",
"342 662 LINE",
"342 362 LINE",
"480 362 LINE",
"480 662 LINE",
"758 662 LINE",
"758 793 LINE",
"480 793 LINE",
"480 1092 LINE",
"342 1092 LINE",
"342 793 LINE",
"64 793 LINE"
);
}
);
width = 822;
}
);
unicode = 002B;
},
{
glyphname = minus;
layers = (
{
hints = (
{
place = "{655, 101}";
},
{
place = "{487, 144}";
},
{
horizontal = 1;
place = "{22, 21}";
target = up;
type = BottomGhost;
},
{
horizontal = 1;
place = "{469, 98}";
},
{
horizontal = 1;
place = "{621, 137}";
},
{
horizontal = 1;
place = "{209, 43}";
},
{
horizontal = 1;
place = "{1161, -20}";
target = down;
type = TopGhost;
}
);
layerId = UUID0;
paths = (
{
closed = 1;
nodes = (
"127 662 LINE",
"821 662 LINE",
"821 793 LINE",
"127 793 LINE"
);
}
);
width = 948;
}
);
unicode = 2212;
},
{
glyphname = multiply;
layers = (
{
hints = (
{
place = "{407, 144}";
},
{
horizontal = 1;
place = "{621, 137}";
},
{
horizontal = 1;
place = "{209, 43}";
},
{
horizontal = 1;
place = "{1161, -20}";
target = down;
type = TopGhost;
}
);
layerId = UUID0;
paths = (
{
closed = 1;
nodes = (
"88 940 LINE",
"299 729 LINE",
"88 516 LINE",
"184 420 LINE",
"395 631 LINE",
"608 420 LINE",
"700 512 LINE",
"489 725 LINE",
"700 936 LINE",
"604 1032 LINE",
"391 821 LINE",
"180 1032 LINE"
);
}
);
width = 790;
}
);
unicode = 00D7;
},
{
glyphname = divide;
layers = (
{
hints = (
{
place = "{449, 140}";
},
{
place = "{447, 144}";
},
{
place = "{109, 172}";
},
{
horizontal = 1;
place = "{193, 131}";
},
{
horizontal = 1;
place = "{741, 131}";
},
{
horizontal = 1;
place = "{1202, -20}";
target = down;
type = TopGhost;
},
{
horizontal = 1;
place = "{621, 137}";
},
{
horizontal = 1;
place = "{209, 43}";
},
{
horizontal = 1;
place = "{1161, -20}";
target = down;
type = TopGhost;
},
{
horizontal = 1;
place = "{0, 172}";
}
);
layerId = UUID0;
paths = (
{
closed = 1;
nodes = (
"87 662 LINE",
"781 662 LINE",
"781 793 LINE",
"87 793 LINE"
);
},
{
closed = 1;
nodes = (
"349 522 LINE",
"349 350 LINE",
"521 350 LINE",
"521 522 LINE"
);
},
{
closed = 1;
nodes = (
"349 1104 LINE",
"349 932 LINE",
"521 932 LINE",
"521 1104 LINE"
);
}
);
width = 868;
}
);
unicode = 00F7;
},
{
glyphname = equal;
layers = (
{
hints = (
{
horizontal = 1;
place = "{459, 129}";
},
{
horizontal = 1;
place = "{782, 129}";
}
);
layerId = UUID0;
paths = (
{
closed = 1;
nodes = (
"132 500 LINE",
"785 500 LINE",
"785 631 LINE",
"132 631 LINE"
);
},
{
closed = 1;
nodes = (
"132 823 LINE",
"785 823 LINE",
"785 954 LINE",
"132 954 LINE"
);
}
);
width = 917;
}
);
unicode = 003D;
},
{
glyphname = greater;
layers = (
{
hints = (
{
place = "{-457, -143}";
},
{
horizontal = 1;
place = "{254, 43}";
},
{
horizontal = 1;
place = "{1114, -20}";
target = down;
type = TopGhost;
},
{
horizontal = 1;
place = "{621, 137}";
},
{
horizontal = 1;
place = "{209, 43}";
},
{
horizontal = 1;
place = "{1161, -20}";
target = down;
type = TopGhost;
}
);
layerId = UUID0;
paths = (
{
closed = 1;
nodes = (
"708 793 LINE",
"172 1126 LINE",
"94 1008 LINE",
"542 727 LINE",
"94 446 LINE",
"172 328 LINE",
"708 662 LINE"
);
}
);
width = 771;
}
);
unicode = 003E;
},
{
glyphname = less;
layers = (
{
hints = (
{
place = "{1228, 144}";
},
{
horizontal = 1;
place = "{254, 43}";
},
{
horizontal = 1;
place = "{1114, -20}";
target = down;
type = TopGhost;
},
{
horizontal = 1;
place = "{621, 137}";
},
{
horizontal = 1;
place = "{209, 43}";
},
{
horizontal = 1;
place = "{1161, -20}";
target = down;
type = TopGhost;
}
);
layerId = UUID0;
paths = (
{
closed = 1;
nodes = (
"63 662 LINE",
"599 328 LINE",
"677 446 LINE",
"229 727 LINE",
"677 1008 LINE",
"599 1126 LINE",
"63 793 LINE"
);
}
);
width = 771;
}
);
unicode = 003C;
},
{
glyphname = plusminus;
layers = (
{
hints = (
{
place = "{479, 140}";
},
{
place = "{477, 144}";
},
{
horizontal = 1;
place = "{193, 131}";
},
{
horizontal = 1;
place = "{741, 131}";
},
{
horizontal = 1;
place = "{1202, -20}";
target = down;
type = TopGhost;
},
{
horizontal = 1;
place = "{621, 137}";
},
{
horizontal = 1;
place = "{209, 43}";
},
{
horizontal = 1;
place = "{1161, -20}";
target = down;
type = TopGhost;
}
);
layerId = UUID0;
paths = (
{
closed = 1;
nodes = (
"117 662 LINE",
"395 662 LINE",
"395 444 LINE",
"533 444 LINE",
"533 662 LINE",
"811 662 LINE",
"811 793 LINE",
"533 793 LINE",
"533 1092 LINE",
"395 1092 LINE",
"395 793 LINE",
"117 793 LINE"
);
},
{
closed = 1;
nodes = (
"117 193 LINE",
"811 193 LINE",
"811 324 LINE",
"117 324 LINE"
);
}
);
width = 928;
}
);
unicode = 00B1;
},
{
glyphname = asciitilde;
layers = (
{
hints = (
{
horizontal = 1;
place = "{573, 138}";
},
{
horizontal = 1;
place = "{659, 138}";
},
{
horizontal = 1;
place = "{557, 43}";
},
{
horizontal = 1;
place = "{813, -20}";
target = down;
type = TopGhost;
}
);
layerId = UUID0;
paths = (
{
closed = 1;
nodes = (
"143 559 LINE",
"194 618 OFFCURVE",
"225 659 OFFCURVE",
"304 659 CURVE SMOOTH",
"423 659 OFFCURVE",
"550 532 OFFCURVE",
"673 532 CURVE SMOOTH",
"788 532 OFFCURVE",
"859 596 OFFCURVE",
"931 678 CURVE",
"853 770 LINE",
"802 711 OFFCURVE",
"771 670 OFFCURVE",
"687 670 CURVE SMOOTH",
"599 670 OFFCURVE",
"452 797 OFFCURVE",
"319 797 CURVE SMOOTH",
"208 797 OFFCURVE",
"137 717 OFFCURVE",
"65 635 CURVE"
);
}
);
width = 996;
}
);
unicode = 007E;
},
{
glyphname = logicalnot;
layers = (
{
hints = (
{
place = "{794, 143}";
},
{
horizontal = 1;
place = "{774, 137}";
},
{
horizontal = 1;
place = "{459, 43}";
},
{
horizontal = 1;
place = "{459, 129}";
},
{
horizontal = 1;
place = "{782, 129}";
}
);
layerId = UUID0;
paths = (
{
closed = 1;
nodes = (
"75 823 LINE",
"601 823 LINE",
"601 614 LINE",
"728 614 LINE",
"728 954 LINE",
"75 954 LINE"
);
}
);
width = 850;
}
);
unicode = 00AC;
},
{
glyphname = micro;
layers = (
{
hints = (
{
place = "{141, 131}";
},
{
place = "{668, 131}";
},
{
place = "{-647, 131}";
},
{
place = "{-106, 135}";
},
{
horizontal = 1;
place = "{127, -127}";
},
{
horizontal = 1;
place = "{1006, -20}";
target = down;
type = TopGhost;
},
{
horizontal = 1;
place = "{-393, 43}";
},
{
horizontal = 1;
place = "{-18, 127}";
},
{
horizontal = 1;
place = "{922, -20}";
target = down;
type = TopGhost;
},
{
horizontal = 1;
place = "{-18, 127}";
},
{
horizontal = 1;
place = "{813, 127}";
},
{
horizontal = 1;
place = "{-432, 43}";
}
);
layerId = UUID0;
paths = (
{
closed = 1;
nodes = (
"141 461 LINE",
"141 -432 LINE",
"272 -432 LINE",
"272 33 LINE",
"342 -10 OFFCURVE",
"428 -20 OFFCURVE",
"496 -20 CURVE SMOOTH",
"660 -20 OFFCURVE",
"778 31 OFFCURVE",
"850 74 CURVE",
"801 174 LINE",
"801 922 LINE",
"670 922 LINE",
"670 133 LINE",
"625 115 OFFCURVE",
"571 102 OFFCURVE",
"506 102 CURVE SMOOTH",
"389 102 OFFCURVE",
"336 150 OFFCURVE",
"311 186 CURVE SMOOTH",
"277 238 OFFCURVE",
"272 322 OFFCURVE",
"272 502 CURVE SMOOTH",
"272 922 LINE",
"141 922 LINE",
"141 506 LINE"
);
}
);
width = 919;
}
);
unicode = 00B5;
},
{
glyphname = percent;
layers = (
{
hints = (
{
place = "{74, 90}";
},
{
place = "{412, 90}";
},
{
place = "{436, 90}";
},
{
place = "{772, 90}";
},
{
place = "{82, 131}";
},
{
place = "{610, 131}";
},
{
horizontal = 1;
place = "{-18, 81}";
},
{
horizontal = 1;
place = "{455, 82}";
},
{
horizontal = 1;
place = "{821, 82}";
},
{
horizontal = 1;
place = "{1292, 84}";
},
{
horizontal = 1;
place = "{813, 127}";
},
{
horizontal = 1;
place = "{-18, 43}";
}
);
layerId = UUID0;
paths = (
{
closed = 1;
nodes = (
"289 23 LINE",
"412 -20 LINE",
"864 1239 LINE",
"741 1282 LINE"
);
},
{
closed = 1;
nodes = (
"459 1053 LINE SMOOTH",
"459 1096 OFFCURVE",
"461 1174 OFFCURVE",
"410 1231 CURVE SMOOTH",
"367 1278 OFFCURVE",
"309 1282 OFFCURVE",
"268 1282 CURVE SMOOTH",
"229 1282 OFFCURVE",
"172 1278 OFFCURVE",
"127 1231 CURVE SMOOTH",
"76 1174 OFFCURVE",
"80 1096 OFFCURVE",
"80 1053 CURVE SMOOTH",
"80 897 LINE SMOOTH",
"80 854 OFFCURVE",
"76 776 OFFCURVE",
"127 719 CURVE SMOOTH",
"172 672 OFFCURVE",
"229 668 OFFCURVE",
"268 668 CURVE SMOOTH",
"309 668 OFFCURVE",
"367 672 OFFCURVE",
"410 719 CURVE SMOOTH",
"461 776 OFFCURVE",
"459 854 OFFCURVE",
"459 897 CURVE SMOOTH"
);
},
{
closed = 1;
nodes = (
"190 1063 LINE SMOOTH",
"190 1087 OFFCURVE",
"190 1120 OFFCURVE",
"207 1141 CURVE SMOOTH",
"215 1149 OFFCURVE",
"233 1169 OFFCURVE",
"268 1169 CURVE SMOOTH",
"303 1169 OFFCURVE",
"322 1149 OFFCURVE",
"328 1141 CURVE SMOOTH",
"342 1120 OFFCURVE",
"342 1087 OFFCURVE",
"342 1063 CURVE SMOOTH",
"342 887 LINE SMOOTH",
"342 862 OFFCURVE",
"342 829 OFFCURVE",
"328 809 CURVE SMOOTH",
"322 801 OFFCURVE",
"303 780 OFFCURVE",
"268 780 CURVE SMOOTH",
"233 780 OFFCURVE",
"215 801 OFFCURVE",
"207 809 CURVE SMOOTH",
"190 829 OFFCURVE",
"190 862 OFFCURVE",
"190 887 CURVE SMOOTH"
);
},
{
closed = 1;
nodes = (
"1075 365 LINE SMOOTH",
"1075 408 OFFCURVE",
"1077 485 OFFCURVE",
"1026 543 CURVE SMOOTH",
"983 590 OFFCURVE",
"926 594 OFFCURVE",
"885 594 CURVE SMOOTH",
"846 594 OFFCURVE",
"788 590 OFFCURVE",
"743 543 CURVE SMOOTH",
"692 485 OFFCURVE",
"696 408 OFFCURVE",
"696 365 CURVE SMOOTH",
"696 209 LINE SMOOTH",
"696 166 OFFCURVE",
"692 88 OFFCURVE",
"743 31 CURVE SMOOTH",
"788 -16 OFFCURVE",
"846 -20 OFFCURVE",
"885 -20 CURVE SMOOTH",
"926 -20 OFFCURVE",
"983 -16 OFFCURVE",
"1026 31 CURVE SMOOTH",
"1077 88 OFFCURVE",
"1075 166 OFFCURVE",
"1075 209 CURVE SMOOTH"
);
},
{
closed = 1;
nodes = (
"807 375 LINE SMOOTH",
"807 399 OFFCURVE",
"807 432 OFFCURVE",
"823 453 CURVE SMOOTH",
"831 461 OFFCURVE",
"850 481 OFFCURVE",
"885 481 CURVE SMOOTH",
"920 481 OFFCURVE",
"938 461 OFFCURVE",
"944 453 CURVE SMOOTH",
"958 432 OFFCURVE",
"958 399 OFFCURVE",
"958 375 CURVE SMOOTH",
"958 199 LINE SMOOTH",
"958 174 OFFCURVE",
"958 141 OFFCURVE",
"944 121 CURVE SMOOTH",
"938 113 OFFCURVE",
"920 92 OFFCURVE",
"885 92 CURVE SMOOTH",
"850 92 OFFCURVE",
"831 113 OFFCURVE",
"823 121 CURVE SMOOTH",
"807 141 OFFCURVE",
"807 174 OFFCURVE",
"807 199 CURVE SMOOTH"
);
}
);
width = 1154;
}
);
unicode = 0025;
},
{
glyphname = at;
layers = (
{
hints = (
{
place = "{152, 162}";
},
{
place = "{463, 117}";
},
{
place = "{838, 148}";
},
{
place = "{846, 140}";
},
{
place = "{1158, 135}";
},
{
place = "{1668, 131}";
},
{
place = "{2112, 148}";
},
{
place = "{2120, 131}";
},
{
place = "{2047, 135}";
},
{
place = "{2591, 131}";
},
{
place = "{2579, 131}";
},
{
place = "{3503, 143}";
},
{
place = "{4117, 143}";
},
{
place = "{4598, 90}";
},
{
place = "{4936, 90}";
},
{
place = "{4961, 90}";
},
{
place = "{5297, 90}";
},
{
place = "{4607, 131}";
},
{
place = "{5135, 131}";
},
{
place = "{3992, 143}";
},
{
place = "{4607, 143}";
},
{
place = "{2769, 86}";
},
{
place = "{3079, 86}";
},
{
place = "{2452, 143}";
},
{
place = "{3066, 144}";
},
{
place = "{2475, 143}";
},
{
place = "{3089, 143}";
},
{
place = "{-808, 131}";
},
{
horizontal = 1;
place = "{-39, 137}";
},
{
horizontal = 1;
place = "{315, 97}";
},
{
horizontal = 1;
place = "{864, 103}";
},
{
horizontal = 1;
place = "{1272, 135}";
},
{
horizontal = 1;
place = "{-18, 116}";
},
{
horizontal = 1;
place = "{485, 127}";
},
{
horizontal = 1;
place = "{948, -20}";
target = down;
type = TopGhost;
},
{
horizontal = 1;
place = "{922, 174}";
},
{
horizontal = 1;
place = "{1249, -153}";
},
{
horizontal = 1;
place = "{0, 43}";
},
{
horizontal = 1;
place = "{-18, 127}";
},
{
horizontal = 1;
place = "{813, 127}";
},
{
horizontal = 1;
place = "{1341, -20}";
target = down;
type = TopGhost;
},
{
horizontal = 1;
place = "{-18, 127}";
},
{
horizontal = 1;
place = "{813, 127}";
},
{
horizontal = 1;
place = "{-18, 135}";
},
{
horizontal = 1;
place = "{1145, 135}";
},
{
horizontal = 1;
place = "{-18, 81}";
},
{
horizontal = 1;
place = "{455, 82}";
},
{
horizontal = 1;
place = "{821, 82}";
},
{
horizontal = 1;
place = "{1292, 84}";
},
{
horizontal = 1;
place = "{813, 127}";
},
{
horizontal = 1;
place = "{-18, 43}";
},
{
horizontal = 1;
place = "{-18, 135}";
},
{
horizontal = 1;
place = "{1145, 135}";
},
{
horizontal = 1;
place = "{604, 80}";
},
{
horizontal = 1;
place = "{610, 74}";
},
{
horizontal = 1;
place = "{936, 80}";
},
{
horizontal = 1;
place = "{246, 26}";
},
{
horizontal = 1;
place = "{236, 26}";
},
{
horizontal = 1;
place = "{-18, 135}";
},
{
horizontal = 1;
place = "{1145, 135}";
},
{
horizontal = 1;
place = "{1260, -136}";
},
{
horizontal = 1;
place = "{96, -135}";
},
{
horizontal = 1;
place = "{-18, 127}";
},
{
horizontal = 1;
place = "{813, 127}";
}
);
layerId = UUID0;
paths = (
{
closed = 1;
nodes = (
"308 -104 OFFCURVE",
"252 78 OFFCURVE",
"252 252 CURVE SMOOTH",
"252 793 LINE SMOOTH",
"252 967 OFFCURVE",
"316 1141 OFFCURVE",
"547 1141 CURVE SMOOTH",
"752 1141 OFFCURVE",
"812 1042 OFFCURVE",
"842 922 CURVE",
"803 932 OFFCURVE",
"771 942 OFFCURVE",
"717 942 CURVE SMOOTH",
"494 942 OFFCURVE",
"384 735 OFFCURVE",
"384 518 CURVE SMOOTH",
"384 301 OFFCURVE",
"476 96 OFFCURVE",
"724 96 CURVE SMOOTH",
"846 96 OFFCURVE",
"955 135 OFFCURVE",
"1029 178 CURVE",
"977 270 LINE",
"977 805 LINE SMOOTH",
"977 1073 OFFCURVE",
"869 1262 OFFCURVE",
"554 1262 CURVE SMOOTH",
"238 1262 OFFCURVE",
"121 1049 OFFCURVE",
"121 788 CURVE SMOOTH",
"121 248 LINE SMOOTH",
"121 -12 OFFCURVE",
"238 -225 OFFCURVE",
"554 -225 CURVE",
"631 -225 OFFCURVE",
"709 -213 OFFCURVE",
"775 -186 CURVE",
"775 -61 LINE",
"709 -92 OFFCURVE",
"633 -104 OFFCURVE",
"560 -104 CURVE"
);
},
{
closed = 1;
nodes = (
"844 248 LINE",
"814 229 OFFCURVE",
"767 219 OFFCURVE",
"728 219 CURVE SMOOTH",
"562 219 OFFCURVE",
"523 383 OFFCURVE",
"523 518 CURVE SMOOTH",
"523 655 OFFCURVE",
"570 819 OFFCURVE",
"728 819 CURVE SMOOTH",
"783 819 OFFCURVE",
"824 805 OFFCURVE",
"844 793 CURVE"
);
}
);
width = 1099;
}
);
unicode = 0040;
},
{
glyphname = ampersand;
layers = (
{
hints = (
{
place = "{270, 150}";
},
{
place = "{678, 149}";
},
{
place = "{774, -143}";
},
{
place = "{373, -144}";
},
{
place = "{213, -148}";
},
{
place = "{-72, -143}";
},
{
place = "{-686, -143}";
},
{
place = "{1016, 143}";
},
{
place = "{1042, 144}";
},
{
place = "{2484, -143}";
},
{
place = "{1870, -144}";
},
{
horizontal = 1;
place = "{-18, 127}";
},
{
horizontal = 1;
place = "{1280, -20}";
target = down;
type = TopGhost;
},
{
horizontal = 1;
place = "{-16, 135}";
},
{
horizontal = 1;
place = "{614, 136}";
},
{
horizontal = 1;
place = "{1145, 135}";
},
{
horizontal = 1;
place = "{-18, 135}";
},
{
horizontal = 1;
place = "{1145, 135}";
},
{
horizontal = 1;
place = "{-18, 137}";
},
{
horizontal = 1;
place = "{1145, 135}";
},
{
horizontal = 1;
place = "{659, 136}";
},
{
horizontal = 1;
place = "{1126, 136}";
},
{
horizontal = 1;
place = "{-39, 43}";
},
{
horizontal = 1;
place = "{-18, 135}";
},
{
horizontal = 1;
place = "{1145, 135}";
}
);
layerId = UUID0;
paths = (
{
closed = 1;
nodes = (
"602 793 LINE",
"477 793 LINE SMOOTH",
"442 793 OFFCURVE",
"408 788 OFFCURVE",
"373 780 CURVE",
"373 1130 LINE",
"770 1130 LINE",
"770 1262 LINE",
"188 1262 LINE",
"229 1130 LINE",
"229 723 LINE",
"133 659 OFFCURVE",
"63 551 OFFCURVE",
"65 377 CURVE SMOOTH",
"70 133 OFFCURVE",
"211 -20 OFFCURVE",
"514 -20 CURVE SMOOTH",
"655 -20 OFFCURVE",
"815 33 OFFCURVE",
"909 131 CURVE",
"836 225 LINE",
"836 498 LINE",
"539 498 LINE",
"539 367 LINE",
"692 367 LINE",
"692 160 LINE",
"645 125 OFFCURVE",
"580 111 OFFCURVE",
"510 111 CURVE SMOOTH",
"313 111 OFFCURVE",
"213 217 OFFCURVE",
"213 383 CURVE SMOOTH",
"213 551 OFFCURVE",
"307 662 OFFCURVE",
"479 662 CURVE SMOOTH",
"602 662 LINE"
);
}
);
width = 944;
}
);
unicode = 0026;
},
{
glyphname = paragraph;
layers = (
{
hints = (
{
place = "{78, 408}";
},
{
place = "{349, 137}";
},
{
place = "{576, 139}";
},
{
place = "{1645, -143}";
},
{
place = "{1049, -143}";
},
{
horizontal = 1;
place = "{1255, 115}";
},
{
horizontal = 1;
place = "{-186, 43}";
},
{
horizontal = 1;
place = "{0, 135}";
},
{
horizontal = 1;
place = "{1282, -20}";
target = down;
type = TopGhost;
}
);
layerId = UUID0;
paths = (
{
closed = 1;
nodes = (
"308 588 LINE SMOOTH",
"259 588 OFFCURVE",
"189 592 OFFCURVE",
"134 651 CURVE SMOOTH",
"70 721 OFFCURVE",
"76 817 OFFCURVE",
"76 868 CURVE SMOOTH",
"76 1061 LINE SMOOTH",
"76 1112 OFFCURVE",
"70 1208 OFFCURVE",
"134 1278 CURVE SMOOTH",
"189 1337 OFFCURVE",
"259 1341 OFFCURVE",
"308 1341 CURVE SMOOTH",
"855 1341 LINE",
"855 1210 LINE",
"773 1210 LINE",
"773 -215 LINE",
"629 -215 LINE",
"629 1210 LINE",
"490 1210 LINE",
"490 -215 LINE",
"349 -215 LINE",
"349 588 LINE"
);
}
);
width = 940;
}
);
unicode = 00B6;
},
{
glyphname = section;
layers = (
{
hints = (
{
place = "{131, 133}";
},
{
place = "{178, 138}";
},
{
place = "{606, 138}";
},
{
place = "{658, 137}";
},
{
place = "{1698, -143}";
},
{
place = "{2003, 143}";
},
{
place = "{776, -131}";
},
{
place = "{-1472, 131}";
},
{
place = "{-944, 131}";
},
{
place = "{1542, -131}";
},
{
place = "{-706, 131}";
},
{
place = "{-178, 131}";
},
{
place = "{-891, -131}";
},
{
place = "{-1419, -131}";
},
{
place = "{-1136, 131}";
},
{
horizontal = 1;
place = "{-180, 114}";
},
{
horizontal = 1;
place = "{1294, 113}";
},
{
horizontal = 1;
place = "{-14, 135}";
},
{
horizontal = 1;
place = "{1149, 135}";
},
{
horizontal = 1;
place = "{-2, 137}";
},
{
horizontal = 1;
place = "{1161, 135}";
},
{
horizontal = 1;
place = "{-18, 127}";
},
{
horizontal = 1;
place = "{940, -20}";
target = down;
type = TopGhost;
},
{
horizontal = 1;
place = "{-33, 127}";
},
{
horizontal = 1;
place = "{799, 127}";
},
{
horizontal = 1;
place = "{813, 127}";
},
{
horizontal = 1;
place = "{-18, 43}";
},
{
horizontal = 1;
place = "{-18, 127}";
},
{
horizontal = 1;
place = "{940, -20}";
target = down;
type = TopGhost;
},
{
horizontal = 1;
place = "{-33, 127}";
},
{
horizontal = 1;
place = "{799, 127}";
},
{
horizontal = 1;
place = "{813, 127}";
},
{
horizontal = 1;
place = "{-18, 43}";
},
{
horizontal = 1;
place = "{109, -127}";
},
{
horizontal = 1;
place = "{919, 21}";
target = up;
type = BottomGhost;
},
{
horizontal = 1;
place = "{940, -127}";
},
{
horizontal = 1;
place = "{109, -127}";
}
);
layerId = UUID0;
paths = (
{
closed = 1;
nodes = (
"414 336 OFFCURVE",
"307 344 OFFCURVE",
"227 426 CURVE SMOOTH",
"133 524 OFFCURVE",
"139 659 OFFCURVE",
"139 735 CURVE SMOOTH",
"139 1110 LINE",
"70 1194 LINE",
"139 1253 OFFCURVE",
"270 1339 OFFCURVE",
"481 1339 CURVE SMOOTH",
"559 1339 OFFCURVE",
"627 1327 OFFCURVE",
"692 1300 CURVE",
"692 1171 LINE",
"625 1204 OFFCURVE",
"559 1217 OFFCURVE",
"483 1217 CURVE SMOOTH",
"404 1217 OFFCURVE",
"338 1200 OFFCURVE",
"270 1163 CURVE",
"270 926 LINE",
"293 928 OFFCURVE",
"318 930 OFFCURVE",
"344 930 CURVE SMOOTH",
"418 930 OFFCURVE",
"524 922 OFFCURVE",
"604 840 CURVE SMOOTH",
"699 741 OFFCURVE",
"692 606 OFFCURVE",
"692 530 CURVE SMOOTH",
"692 156 LINE",
"762 72 LINE",
"692 12 OFFCURVE",
"561 -74 OFFCURVE",
"350 -74 CURVE SMOOTH",
"273 -74 OFFCURVE",
"205 -61 OFFCURVE",
"139 -35 CURVE",
"139 94 LINE",
"207 61 OFFCURVE",
"273 49 OFFCURVE",
"348 49 CURVE SMOOTH",
"428 49 OFFCURVE",
"494 66 OFFCURVE",
"561 102 CURVE",
"561 340 LINE",
"537 336 OFFCURVE",
"512 336 OFFCURVE",
"488 336 CURVE SMOOTH"
);
},
{
closed = 1;
nodes = (
"336 502 OFFCURVE",
"385 459 OFFCURVE",
"483 459 CURVE SMOOTH",
"506 459 OFFCURVE",
"533 461 OFFCURVE",
"561 465 CURVE",
"561 530 LINE SMOOTH",
"561 590 OFFCURVE",
"561 680 OFFCURVE",
"516 737 CURVE SMOOTH",
"496 764 OFFCURVE",
"447 807 OFFCURVE",
"348 807 CURVE SMOOTH",
"324 807 OFFCURVE",
"297 805 OFFCURVE",
"270 801 CURVE",
"270 735 LINE SMOOTH",
"270 676 OFFCURVE",
"270 586 OFFCURVE",
"316 528 CURVE SMOOTH"
);
}
);
width = 830;
}
);
unicode = 00A7;
},
{
glyphname = copyright;
layers = (
{
hints = (
{
place = "{215, 131}";
},
{
place = "{1138, 144}";
},
{
place = "{1753, 143}";
},
{
place = "{2234, 90}";
},
{
place = "{2572, 90}";
},
{
place = "{2597, 90}";
},
{
place = "{2932, 91}";
},
{
place = "{2242, 131}";
},
{
place = "{2771, 131}";
},
{
place = "{1628, 143}";
},
{
place = "{2242, 144}";
},
{
horizontal = 1;
place = "{-18, 127}";
},
{
horizontal = 1;
place = "{813, 127}";
},
{
horizontal = 1;
place = "{-18, 135}";
},
{
horizontal = 1;
place = "{1145, 135}";
},
{
horizontal = 1;
place = "{-18, 81}";
},
{
horizontal = 1;
place = "{455, 82}";
},
{
horizontal = 1;
place = "{821, 82}";
},
{
horizontal = 1;
place = "{1292, 84}";
},
{
horizontal = 1;
place = "{813, 127}";
},
{
horizontal = 1;
place = "{-18, 43}";
},
{
horizontal = 1;
place = "{-18, 135}";
},
{
horizontal = 1;
place = "{1145, 135}";
}
);
layerId = UUID0;
paths = (
{
closed = 1;
nodes = (
"827 995 LINE",
"778 1008 OFFCURVE",
"727 1018 OFFCURVE",
"667 1018 CURVE SMOOTH",
"608 1018 OFFCURVE",
"522 1012 OFFCURVE",
"456 944 CURVE SMOOTH",
"379 864 OFFCURVE",
"385 754 OFFCURVE",
"385 692 CURVE SMOOTH",
"385 420 LINE",
"327 352 LINE",
"385 303 OFFCURVE",
"491 233 OFFCURVE",
"663 233 CURVE SMOOTH",
"727 233 OFFCURVE",
"782 244 OFFCURVE",
"835 264 CURVE",
"835 371 LINE",
"780 344 OFFCURVE",
"727 334 OFFCURVE",
"665 334 CURVE SMOOTH",
"600 334 OFFCURVE",
"547 346 OFFCURVE",
"491 377 CURVE",
"491 692 LINE SMOOTH",
"491 741 OFFCURVE",
"491 815 OFFCURVE",
"528 860 CURVE SMOOTH",
"544 883 OFFCURVE",
"585 918 OFFCURVE",
"665 918 CURVE SMOOTH",
"704 918 OFFCURVE",
"757 909 OFFCURVE",
"798 897 CURVE"
);
},
{
closed = 1;
nodes = (
"1110 1135 LINE",
"1030 1192 OFFCURVE",
"858 1282 OFFCURVE",
"622 1282 CURVE SMOOTH",
"387 1282 OFFCURVE",
"215 1192 OFFCURVE",
"135 1135 CURVE",
"135 127 LINE",
"215 70 OFFCURVE",
"387 -20 OFFCURVE",
"622 -20 CURVE SMOOTH",
"858 -20 OFFCURVE",
"1030 70 OFFCURVE",
"1110 127 CURVE"
);
},
{
closed = 1;
nodes = (
"1013 178 LINE",
"917 111 OFFCURVE",
"774 72 OFFCURVE",
"618 72 CURVE SMOOTH",
"465 72 OFFCURVE",
"319 111 OFFCURVE",
"223 178 CURVE",
"223 1083 LINE",
"319 1151 OFFCURVE",
"465 1190 OFFCURVE",
"618 1190 CURVE SMOOTH",
"774 1190 OFFCURVE",
"917 1151 OFFCURVE",
"1013 1083 CURVE"
);
}
);
width = 1245;
}
);
unicode = 00A9;
},
{
glyphname = registered;
layers = (
{
hints = (
{
place = "{215, 131}";
},
{
place = "{1138, 144}";
},
{
place = "{1753, 143}";
},
{
place = "{2234, 90}";
},
{
place = "{2572, 90}";
},
{
place = "{2597, 90}";
},
{
place = "{2932, 91}";
},
{
place = "{2242, 131}";
},
{
place = "{2771, 131}";
},
{
place = "{1628, 143}";
},
{
place = "{2242, 144}";
},
{
place = "{405, 86}";
},
{
place = "{714, 86}";
},
{
horizontal = 1;
place = "{-18, 127}";
},
{
horizontal = 1;
place = "{813, 127}";
},
{
horizontal = 1;
place = "{-18, 135}";
},
{
horizontal = 1;
place = "{1145, 135}";
},
{
horizontal = 1;
place = "{-18, 81}";
},
{
horizontal = 1;
place = "{455, 82}";
},
{
horizontal = 1;
place = "{821, 82}";
},
{
horizontal = 1;
place = "{1292, 84}";
},
{
horizontal = 1;
place = "{813, 127}";
},
{
horizontal = 1;
place = "{-18, 43}";
},
{
horizontal = 1;
place = "{-18, 135}";
},
{
horizontal = 1;
place = "{1145, 135}";
},
{
horizontal = 1;
place = "{604, 80}";
},
{
horizontal = 1;
place = "{610, 74}";
},
{
horizontal = 1;
place = "{936, 80}";
},
{
horizontal = 1;
place = "{246, 26}";
},
{
horizontal = 1;
place = "{236, 26}";
}
);
layerId = UUID0;
paths = (
{
closed = 1;
nodes = (
"1110 1135 LINE",
"1030 1192 OFFCURVE",
"858 1282 OFFCURVE",
"622 1282 CURVE SMOOTH",
"387 1282 OFFCURVE",
"215 1192 OFFCURVE",
"135 1135 CURVE",
"135 127 LINE",
"215 70 OFFCURVE",
"387 -20 OFFCURVE",
"622 -20 CURVE SMOOTH",
"858 -20 OFFCURVE",
"1030 70 OFFCURVE",
"1110 127 CURVE"
);
},
{
closed = 1;
nodes = (
"1013 178 LINE",
"917 111 OFFCURVE",
"774 72 OFFCURVE",
"618 72 CURVE SMOOTH",
"465 72 OFFCURVE",
"319 111 OFFCURVE",
"223 178 CURVE",
"223 1083 LINE",
"319 1151 OFFCURVE",
"465 1190 OFFCURVE",
"618 1190 CURVE SMOOTH",
"774 1190 OFFCURVE",
"917 1151 OFFCURVE",
"1013 1083 CURVE"
);
},
{
closed = 1;
nodes = (
"405 893 LINE",
"405 246 LINE",
"512 246 LINE",
"512 623 LINE",
"594 623 LINE",
"772 233 LINE",
"868 276 LINE",
"710 623 LINE",
"831 623 LINE",
"831 784 LINE SMOOTH",
"831 846 OFFCURVE",
"825 909 OFFCURVE",
"766 963 CURVE SMOOTH",
"725 997 OFFCURVE",
"671 1018 OFFCURVE",
"594 1018 CURVE SMOOTH",
"520 1018 OFFCURVE",
"440 997 OFFCURVE",
"370 969 CURVE"
);
},
{
closed = 1;
nodes = (
"512 905 LINE",
"532 913 OFFCURVE",
"557 918 OFFCURVE",
"585 918 CURVE SMOOTH",
"680 918 OFFCURVE",
"725 862 OFFCURVE",
"725 762 CURVE SMOOTH",
"725 723 LINE",
"512 723 LINE"
);
}
);
width = 1245;
}
);
unicode = 00AE;
},
{
glyphname = degree;
layers = (
{
hints = (
{
place = "{69, 90}";
},
{
place = "{407, 90}";
},
{
place = "{431, 90}";
},
{
place = "{767, 90}";
},
{
place = "{77, 131}";
},
{
place = "{605, 131}";
},
{
horizontal = 1;
place = "{-18, 81}";
},
{
horizontal = 1;
place = "{455, 82}";
},
{
horizontal = 1;
place = "{821, 82}";
},
{
horizontal = 1;
place = "{1292, 84}";
},
{
horizontal = 1;
place = "{813, 127}";
},
{
horizontal = 1;
place = "{-18, 43}";
}
);
layerId = UUID0;
paths = (
{
closed = 1;
nodes = (
"454 1278 OFFCURVE",
"386 1341 OFFCURVE",
"263 1341 CURVE SMOOTH",
"120 1341 OFFCURVE",
"75 1257 OFFCURVE",
"75 1151 CURVE SMOOTH",
"75 1026 OFFCURVE",
"149 963 OFFCURVE",
"263 963 CURVE SMOOTH",
"405 963 OFFCURVE",
"454 1049 OFFCURVE",
"454 1151 CURVE SMOOTH"
);
},
{
closed = 1;
nodes = (
"186 1196 OFFCURVE",
"206 1229 OFFCURVE",
"261 1229 CURVE SMOOTH",
"317 1229 OFFCURVE",
"337 1196 OFFCURVE",
"337 1153 CURVE SMOOTH",
"337 1108 OFFCURVE",
"317 1077 OFFCURVE",
"261 1077 CURVE SMOOTH",
"206 1077 OFFCURVE",
"186 1108 OFFCURVE",
"186 1153 CURVE SMOOTH"
);
}
);
width = 529;
}
);
unicode = 00B0;
},
{
glyphname = bar;
layers = (
{
hints = (
{
place = "{134, 120}";
},
{
horizontal = 1;
place = "{-483, 43}";
},
{
horizontal = 1;
place = "{1565, -20}";
target = down;
type = TopGhost;
}
);
layerId = UUID0;
paths = (
{
closed = 1;
nodes = (
"134 -432 LINE",
"265 -432 LINE",
"265 1341 LINE",
"134 1341 LINE"
);
}
);
width = 398;
}
);
unicode = 007C;
},
{
glyphname = brokenbar;
layers = (
{
hints = (
{
place = "{136, 120}";
},
{
horizontal = 1;
place = "{-483, 43}";
},
{
horizontal = 1;
place = "{1565, -20}";
target = down;
type = TopGhost;
}
);
layerId = UUID0;
paths = (
{
closed = 1;
nodes = (
"136 -432 LINE",
"267 -432 LINE",
"267 246 LINE",
"136 246 LINE"
);
},
{
closed = 1;
nodes = (
"267 1341 LINE",
"136 1341 LINE",
"136 662 LINE",
"267 662 LINE"
);
}
);
width = 402;
}
);
unicode = 00A6;
},
{
glyphname = asciicircum;
layers = (
{
hints = (
{
horizontal = 1;
place = "{793, 43}";
},
{
horizontal = 1;
place = "{1382, -20}";
target = down;
type = TopGhost;
}
);
layerId = UUID0;
paths = (
{
closed = 1;
nodes = (
"395 1341 LINE",
"-61 883 LINE",
"33 788 LINE",
"461 1219 LINE",
"887 788 LINE",
"981 883 LINE",
"526 1341 LINE"
);
}
);
width = 932;
}
);
unicode = 005E;
},
{
glyphname = acute;
layers = (
{
hints = (
{
place = "{-518, -144}";
},
{
horizontal = 1;
place = "{254, 43}";
},
{
horizontal = 1;
place = "{1114, -20}";
target = down;
type = TopGhost;
},
{
horizontal = 1;
place = "{621, 137}";
},
{
horizontal = 1;
place = "{209, 43}";
},
{
horizontal = 1;
place = "{1161, -20}";
target = down;
type = TopGhost;
}
);
layerId = UUID0;
paths = (
{
closed = 1;
nodes = (
"299 1341 LINE",
"82 1126 LINE",
"176 1032 LINE",
"393 1247 LINE"
);
}
);
width = 475;
}
);
unicode = 00B4;
},
{
glyphname = caron;
layers = (
{
hints = (
{
place = "{1239, 143}";
},
{
horizontal = 1;
place = "{254, 43}";
},
{
horizontal = 1;
place = "{1114, -20}";
target = down;
type = TopGhost;
},
{
horizontal = 1;
place = "{621, 137}";
},
{
horizontal = 1;
place = "{209, 43}";
},
{
horizontal = 1;
place = "{1161, -20}";
target = down;
type = TopGhost;
}
);
layerId = UUID0;
paths = (
{
closed = 1;
nodes = (
"295 1034 LINE",
"82 1247 LINE",
"176 1341 LINE",
"360 1155 LINE",
"545 1341 LINE",
"639 1247 LINE",
"426 1034 LINE"
);
}
);
width = 721;
}
);
unicode = 02C7;
},
{
glyphname = cedilla;
layers = (
{
hints = (
{
place = "{1190, 170}";
},
{
place = "{-881, 168}";
},
{
place = "{-365, 168}";
},
{
horizontal = 1;
place = "{-18, 145}";
},
{
horizontal = 1;
place = "{940, -20}";
target = down;
type = TopGhost;
},
{
horizontal = 1;
place = "{-33, 146}";
},
{
horizontal = 1;
place = "{782, 144}";
},
{
horizontal = 1;
place = "{795, 145}";
},
{
horizontal = 1;
place = "{-18, 63}";
}
);
layerId = UUID0;
paths = (
{
closed = 1;
nodes = (
"276 -158 LINE",
"330 -158 OFFCURVE",
"356 -172 OFFCURVE",
"356 -207 CURVE SMOOTH",
"356 -244 OFFCURVE",
"319 -254 OFFCURVE",
"281 -254 CURVE SMOOTH",
"217 -254 OFFCURVE",
"150 -233 OFFCURVE",
"82 -205 CURVE",
"82 -315 LINE",
"133 -338 OFFCURVE",
"203 -354 OFFCURVE",
"281 -354 CURVE SMOOTH",
"383 -354 OFFCURVE",
"481 -317 OFFCURVE",
"481 -207 CURVE SMOOTH",
"481 -109 OFFCURVE",
"414 -61 OFFCURVE",
"301 -61 CURVE",
"293 -61 LINE",
"293 0 LINE",
"170 0 LINE",
"170 -158 LINE"
);
}
);
width = 563;
}
);
unicode = 00B8;
},
{
glyphname = circumflex;
layers = (
{
hints = (
{
place = "{1239, 143}";
},
{
horizontal = 1;
place = "{254, 43}";
},
{
horizontal = 1;
place = "{1114, -20}";
target = down;
type = TopGhost;
},
{
horizontal = 1;
place = "{621, 137}";
},
{
horizontal = 1;
place = "{209, 43}";
},
{
horizontal = 1;
place = "{1161, -20}";
target = down;
type = TopGhost;
}
);
layerId = UUID0;
paths = (
{
closed = 1;
nodes = (
"295 1341 LINE",
"82 1128 LINE",
"176 1034 LINE",
"360 1219 LINE",
"545 1034 LINE",
"639 1128 LINE",
"426 1341 LINE"
);
}
);
width = 721;
}
);
unicode = 02C6;
},
{
glyphname = dieresis;
layers = (
{
hints = (
{
place = "{82, 147}";
},
{
place = "{90, 131}";
},
{
horizontal = 1;
place = "{922, 174}";
},
{
horizontal = 1;
place = "{1249, -153}";
},
{
horizontal = 1;
place = "{0, 43}";
}
);
layerId = UUID0;
paths = (
{
closed = 1;
nodes = (
"82 1262 LINE",
"82 1108 LINE",
"229 1108 LINE",
"229 1262 LINE"
);
},
{
closed = 1;
nodes = (
"352 1262 LINE",
"352 1108 LINE",
"500 1108 LINE",
"500 1262 LINE"
);
}
);
width = 582;
}
);
unicode = 00A8;
},
{
glyphname = grave;
layers = (
{
hints = (
{
place = "{993, 144}";
},
{
horizontal = 1;
place = "{254, 43}";
},
{
horizontal = 1;
place = "{1114, -20}";
target = down;
type = TopGhost;
},
{
horizontal = 1;
place = "{621, 137}";
},
{
horizontal = 1;
place = "{209, 43}";
},
{
horizontal = 1;
place = "{1161, -20}";
target = down;
type = TopGhost;
}
);
layerId = UUID0;
paths = (
{
closed = 1;
nodes = (
"82 1247 LINE",
"299 1032 LINE",
"393 1126 LINE",
"176 1341 LINE"
);
}
);
width = 475;
}
);
unicode = 0060;
},
{
glyphname = macron;
layers = (
{
hints = (
{
horizontal = 1;
place = "{408, 190}";
}
);
layerId = UUID0;
paths = (
{
closed = 1;
nodes = (
"82 1135 LINE",
"598 1135 LINE",
"598 1262 LINE",
"82 1262 LINE"
);
}
);
width = 680;
}
);
unicode = 00AF;
},
{
glyphname = ring;
layers = (
{
hints = (
{
place = "{117, 90}";
},
{
place = "{455, 90}";
},
{
place = "{479, 90}";
},
{
place = "{815, 90}";
},
{
place = "{125, 131}";
},
{
place = "{653, 131}";
},
{
horizontal = 1;
place = "{-18, 81}";
},
{
horizontal = 1;
place = "{455, 82}";
},
{
horizontal = 1;
place = "{821, 82}";
},
{
horizontal = 1;
place = "{1292, 84}";
},
{
horizontal = 1;
place = "{813, 127}";
},
{
horizontal = 1;
place = "{-18, 43}";
}
);
layerId = UUID0;
paths = (
{
closed = 1;
nodes = (
"504 1298 OFFCURVE",
"436 1362 OFFCURVE",
"313 1362 CURVE SMOOTH",
"190 1362 OFFCURVE",
"123 1298 OFFCURVE",
"123 1180 CURVE SMOOTH",
"123 1061 OFFCURVE",
"190 995 OFFCURVE",
"313 995 CURVE SMOOTH",
"436 995 OFFCURVE",
"504 1061 OFFCURVE",
"504 1180 CURVE SMOOTH"
);
},
{
closed = 1;
nodes = (
"238 1221 OFFCURVE",
"260 1249 OFFCURVE",
"313 1249 CURVE SMOOTH",
"367 1249 OFFCURVE",
"389 1221 OFFCURVE",
"389 1180 CURVE SMOOTH",
"389 1137 OFFCURVE",
"367 1110 OFFCURVE",
"313 1110 CURVE SMOOTH",
"260 1110 OFFCURVE",
"238 1137 OFFCURVE",
"238 1180 CURVE SMOOTH"
);
}
);
width = 612;
}
);
unicode = 02DA;
},
{
glyphname = tilde;
layers = (
{
hints = (
{
place = "{1620, -131}";
},
{
place = "{-629, 131}";
},
{
place = "{-100, 131}";
},
{
place = "{-236, 132}";
},
{
place = "{293, 131}";
},
{
horizontal = 1;
place = "{573, 138}";
},
{
horizontal = 1;
place = "{659, 138}";
},
{
horizontal = 1;
place = "{557, 43}";
},
{
horizontal = 1;
place = "{813, -20}";
target = down;
type = TopGhost;
},
{
horizontal = 1;
place = "{-18, 127}";
},
{
horizontal = 1;
place = "{940, -20}";
target = down;
type = TopGhost;
},
{
horizontal = 1;
place = "{-33, 127}";
},
{
horizontal = 1;
place = "{799, 127}";
},
{
horizontal = 1;
place = "{813, 127}";
},
{
horizontal = 1;
place = "{-18, 43}";
},
{
horizontal = 1;
place = "{1470, 127}";
},
{
horizontal = 1;
place = "{639, 43}";
}
);
layerId = UUID0;
paths = (
{
closed = 1;
nodes = (
"172 1055 LINE",
"172 1055 OFFCURVE",
"221 1151 OFFCURVE",
"299 1184 CURVE",
"426 1059 LINE",
"532 1094 OFFCURVE",
"612 1167 OFFCURVE",
"680 1253 CURVE",
"590 1337 LINE",
"590 1337 OFFCURVE",
"541 1243 OFFCURVE",
"463 1208 CURVE",
"336 1333 LINE",
"240 1300 OFFCURVE",
"152 1233 OFFCURVE",
"82 1139 CURVE"
);
}
);
width = 762;
}
);
unicode = 02DC;
},
{
glyphname = Acute;
layers = (
{
hints = (
{
place = "{143, 144}";
},
{
place = "{-279, -143}";
},
{
horizontal = 1;
place = "{354, 135}";
},
{
horizontal = 1;
place = "{-18, 43}";
},
{
horizontal = 1;
place = "{1280, -20}";
target = down;
type = TopGhost;
},
{
horizontal = 1;
place = "{0, 43}";
},
{
horizontal = 1;
place = "{1262, -20}";
target = down;
type = TopGhost;
},
{
horizontal = 1;
place = "{573, 43}";
},
{
horizontal = 1;
place = "{1434, -20}";
target = down;
type = TopGhost;
},
{
horizontal = 1;
place = "{940, 137}";
},
{
horizontal = 1;
place = "{528, 43}";
},
{
horizontal = 1;
place = "{1481, -20}";
target = down;
type = TopGhost;
}
);
layerId = UUID0;
paths = (
{
closed = 1;
nodes = (
"539 1661 LINE",
"322 1446 LINE",
"416 1352 LINE",
"633 1567 LINE"
);
}
);
width = 893;
}
);
},
{
glyphname = uniEFFD;
layers = (
{
layerId = UUID0;
paths = (
{
closed = 1;
nodes = (
"102 0 LINE",
"950 0 LINE",
"950 1024 LINE",
"102 1024 LINE"
);
},
{
closed = 1;
nodes = (
"229 897 LINE",
"823 897 LINE",
"823 127 LINE",
"229 127 LINE"
);
}
);
width = 1083;
}
);
unicode = EFFD;
},
